SplineFontDB: 3.2
FontName: BertiogaSans-SemiBold
FullName: Bertioga Sans SemiBold
FamilyName: Bertioga Sans SemiBold
Weight: Demi
Copyright: Copyright 2020 The Arimo Project Authors (https://github.com/googlefonts/arimo)\nCopyright 2020 The Libra Sans Project Authors (https://github.com/stefanpeev/libra-sans)\nCopyright 2024 The Bertioga Sans Project Authors (https://github.com/cssobral2013/bertioga-sans)
UComments: "2024-2-22: Created with FontForge (http://fontforge.org)"
Version: 3.004
ItalicAngle: 0
UnderlinePosition: -100
UnderlineWidth: 50
Ascent: 1638
Descent: 410
InvalidEm: 0
LayerCount: 2
Layer: 0 1 "Back" 1
Layer: 1 1 "Fore" 0
XUID: [1021 531 -1996577725 1147207]
StyleMap: 0x0040
FSType: 0
OS2Version: 4
OS2_WeightWidthSlopeOnly: 0
OS2_UseTypoMetrics: 1
CreationTime: 1708626668
ModificationTime: 1708633046
PfmFamily: 17
TTFWeight: 600
TTFWidth: 5
LineGap: 67
VLineGap: 0
Panose: 2 11 7 4 2 2 2 2 8 4
OS2TypoAscent: 1854
OS2TypoAOffset: 0
OS2TypoDescent: -434
OS2TypoDOffset: 0
OS2TypoLinegap: 67
OS2WinAscent: 2136
OS2WinAOffset: 0
OS2WinDescent: 797
OS2WinDOffset: 0
HheadAscent: 1854
HheadAOffset: 0
HheadDescent: -434
HheadDOffset: 0
OS2SubXSize: 1331
OS2SubYSize: 1433
OS2SubXOff: 0
OS2SubYOff: 286
OS2SupXSize: 1331
OS2SupYSize: 1433
OS2SupXOff: 0
OS2SupYOff: 983
OS2StrikeYSize: 102
OS2StrikeYPos: 530
OS2CapHeight: 1409
OS2XHeight: 1082
OS2Vendor: 'GOOG'
OS2CodePages: e00001bf.dff70000
OS2UnicodeRanges: e0000aff.500078ff.00000029.00000000
Lookup: 4 1 0 "dligDiscretionaryLigaturesinHebrewlookup1" { "dligDiscretionaryLigaturesinHebrewlookup1 subtable"  } ['dlig' ('hebr' <'dflt' > ) ]
Lookup: 4 0 0 "ccmpGlyphCompositionDecompositionlookup2" { "ccmpGlyphCompositionDecompositionlookup2 subtable"  } ['ccmp' ('latn' <'dflt' 'MAH ' > 'grek' <'dflt' > 'cyrl' <'dflt' > ) ]
Lookup: 6 0 0 "ccmpGlyphCompositionDecompositionlookup3" { "ccmpGlyphCompositionDecompositionlookup3 subtable"  } ['ccmp' ('latn' <'dflt' 'MAH ' > 'grek' <'dflt' > 'cyrl' <'dflt' > ) ]

StartChar: .notdef
Encoding: 65536 -1 0
Width: 1536
GlyphClass: 2
Flags: W
LayerCount: 2
Fore
SplineSet
1330 1409 m 1,0,0
 1330 0 l 1,0,0
 205 0 l 1,0,0
 205 1409 l 1,0,0
 1330 1409 l 1,0,0
281 76 m 1,0,0
 1254 76 l 1,0,0
 1254 1333 l 1,0,0
 281 1333 l 1,0,0
 281 76 l 1,0,0
EndSplineSet
EndChar

StartChar: exclam
Encoding: 33 33 4
Width: 644
GlyphClass: 2
Flags: W
LayerCount: 2
Fore
SplineSet
452.68 1409 m 1,0,0
 423.32 416.43 l 1,0,0
 220.38 416.43 l 1,0,0
 191.02 1409 l 1,0,0
 452.68 1409 l 1,0,0
447.34 247.23 m 1,0,0
 447.34 0 l 1,0,0
 190.36 0 l 1,0,0
 190.36 247.23 l 1,0,0
 447.34 247.23 l 1,0,0
EndSplineSet
EndChar

StartChar: quotedbl
Encoding: 34 34 5
Width: 890
GlyphClass: 2
Flags: W
LayerCount: 2
Fore
SplineSet
771.32 1409 m 1,0,0
 744.63 920.44 l 1,0,0
 551.04 920.44 l 1,0,0
 526.35 1409 l 1,0,0
 771.32 1409 l 1,0,0
362.79 1409 m 1,0,0
 337.44 920.44 l 1,0,0
 144.18 920.44 l 1,0,0
 119.16 1409 l 1,0,0
 362.79 1409 l 1,0,0
EndSplineSet
EndChar

StartChar: numbersign
Encoding: 35 35 6
Width: 1139
GlyphClass: 2
Flags: W
LayerCount: 2
Fore
SplineSet
336.08 389.91 m 1,0,0
 254.76 0 l 1,0,0
 115.95 0 l 1,0,0
 196.6 389.91 l 1,0,0
 26.42 389.91 l 1,0,0
 26.42 525.38 l 1,0,0
 226.63 525.38 l 1,0,0
 299.27 869.59 l 1,0,0
 77.42 869.59 l 1,0,0
 77.42 1004.39 l 1,0,0
 327.3 1004.39 l 1,0,0
 412.95 1396.98 l 1,0,0
 551.76 1396.98 l 1,0,0
 467.78 1004.39 l 1,0,0
 793.26 1004.39 l 1,0,0
 878.58 1396.98 l 1,0,0
 1019.4 1396.98 l 1,0,0
 934.08 1004.39 l 1,0,0
 1113.59 1004.39 l 1,0,0
 1113.59 869.59 l 1,0,0
 904.71 869.59 l 1,0,0
 832.74 525.38 l 1,0,0
 1062.59 525.38 l 1,0,0
 1062.59 389.91 l 1,0,0
 804.38 389.91 l 1,0,0
 720.4 0 l 1,0,0
 579.58 0 l 1,0,0
 661.56 389.91 l 1,0,0
 336.08 389.91 l 1,0,0
366.44 525.38 m 1,0,0
 692.93 525.38 l 1,0,0
 765.57 869.59 l 1,0,0
 441.08 869.59 l 1,0,0
 366.44 525.38 l 1,0,0
EndSplineSet
EndChar

StartChar: dollar
Encoding: 36 36 7
Width: 1139
GlyphClass: 2
Flags: W
LayerCount: 2
Fore
SplineSet
519.34 20 m 1,0,0
 305 28.33 305 28.33 183.68 120.675 c 0,0,0
 62.36 213.02 62.36 213.02 25.35 398.43 c 1,0,0
 252.97 442.13 l 1,0,0
 273.95 327.15 273.95 327.15 338.04 272.175 c 0,0,0
 402.13 217.2 402.13 217.2 519.34 207.53 c 1,0,0
 519.34 633.18 l 1,0,0
 474.41 644.16 474.41 644.16 424.225 658.33 c 0,0,0
 374.04 672.5 374.04 672.5 329.155 689.185 c 0,0,0
 284.27 705.87 284.27 705.87 254.57 722.9 c 0,0,0
 166.3 773.89 166.3 773.89 121.46 849.08 c 0,0,0
 76.62 924.27 76.62 924.27 76.62 1035.28 c 0,0,0
 76.62 1197.65 76.62 1197.65 190.46 1287.495 c 0,0,0
 304.3 1377.34 304.3 1377.34 519.34 1385.67 c 1,0,0
 519.34 1518.68 l 1,0,0
 633.29 1518.68 l 1,0,0
 633.29 1385.67 l 1,0,0
 756.95 1379.67 756.95 1379.67 843.955 1346.68 c 0,0,0
 930.96 1313.69 930.96 1313.69 987.305 1241.505 c 0,0,0
 1043.65 1169.32 1043.65 1169.32 1075 1045.57 c 1,0,0
 840.7 1008.55 l 1,0,0
 824.05 1097.86 824.05 1097.86 774.775 1147.01 c 0,0,0
 725.5 1196.16 725.5 1196.16 633.29 1207.16 c 1,0,0
 633.29 824.47 l 1,0,0
 678.07 814.86 678.07 814.86 729.675 801.055 c 0,0,0
 781.28 787.25 781.28 787.25 843.4 765.56 c 0,0,0
 979.51 715.91 979.51 715.91 1044.095 628.515 c 0,0,0
 1108.68 541.12 1108.68 541.12 1108.68 406.72 c 0,0,0
 1108.68 231 1108.68 231 987.345 131.335 c 0,0,0
 866.01 31.67 866.01 31.67 633.29 22.01 c 1,0,0
 633.29 -148.7 l 1,0,0
 519.34 -148.7 l 1,0,0
 519.34 20 l 1,0,0
308.92 1038.62 m 0,0,0
 308.92 988.67 308.92 988.67 327.89 956.71 c 0,0,0
 348.87 919.06 348.87 919.06 391.335 897.09 c 0,0,0
 433.8 875.12 433.8 875.12 519.34 849.13 c 1,0,0
 519.34 1210.5 l 1,0,0
 308.92 1197.17 308.92 1197.17 308.92 1038.62 c 0,0,0
877.72 403.38 m 0,0,0
 877.72 458.33 877.72 458.33 857.415 493.295 c 0,0,0
 837.11 528.26 837.11 528.26 797.49 550.9 c 0,0,0
 757.87 573.21 757.87 573.21 633.29 607.53 c 1,0,0
 633.29 207.2 l 1,0,0
 753.52 215.53 753.52 215.53 815.62 264.82 c 0,0,0
 877.72 314.11 877.72 314.11 877.72 403.38 c 0,0,0
EndSplineSet
EndChar

StartChar: percent
Encoding: 37 37 8
Width: 1821
GlyphClass: 2
Flags: W
LayerCount: 2
Fore
SplineSet
403.38 1423.68 m 0,0,0
 742.51 1423.68 742.51 1423.68 742.51 976.34 c 0,0,0
 742.51 758.67 742.51 758.67 655.64 642.675 c 0,0,0
 568.77 526.68 568.77 526.68 398.71 526.68 c 0,0,0
 229.99 526.68 229.99 526.68 144.125 641.675 c 0,0,0
 58.26 756.67 58.26 756.67 58.26 976.34 c 0,0,0
 58.26 1202.02 58.26 1202.02 141.29 1312.85 c 0,0,0
 224.32 1423.68 224.32 1423.68 403.38 1423.68 c 0,0,0
1467.08 1409 m 1,0,0
 543.75 0 l 1,0,0
 354.58 0 l 1,0,0
 1275.24 1409 l 1,0,0
 1467.08 1409 l 1,0,0
548.61 976.34 m 0,0,0
 548.61 1140.28 548.61 1140.28 515.635 1212.235 c 0,0,0
 482.66 1284.19 482.66 1284.19 403.38 1284.19 c 0,0,0
 318.76 1284.19 318.76 1284.19 284.79 1212.73 c 0,0,0
 250.82 1141.27 250.82 1141.27 250.82 976.34 c 0,0,0
 250.82 814.06 250.82 814.06 285.795 741.275 c 0,0,0
 320.77 668.49 320.77 668.49 401.38 668.49 c 0,0,0
 479.67 668.49 479.67 668.49 514.14 741.77 c 0,0,0
 548.61 815.05 548.61 815.05 548.61 976.34 c 0,0,0
1760.73 432.66 m 0,0,0
 1760.73 215.65 1760.73 215.65 1673.7 100.485 c 0,0,0
 1586.67 -14.68 1586.67 -14.68 1417.95 -14.68 c 0,0,0
 1248.55 -14.68 1248.55 -14.68 1162.685 98.825 c 0,0,0
 1076.82 212.33 1076.82 212.33 1076.82 432.66 c 0,0,0
 1076.82 657.98 1076.82 657.98 1159.685 770.15 c 0,0,0
 1242.55 882.32 1242.55 882.32 1421.95 882.32 c 0,0,0
 1596.67 882.32 1596.67 882.32 1678.7 768.49 c 0,0,0
 1760.73 654.66 1760.73 654.66 1760.73 432.66 c 0,0,0
1567.84 432.66 m 0,0,0
 1567.84 598.93 1567.84 598.93 1534.7 670.72 c 0,0,0
 1501.56 742.51 1501.56 742.51 1421.95 742.51 c 0,0,0
 1338.32 742.51 1338.32 742.51 1304.52 669.875 c 0,0,0
 1270.72 597.24 1270.72 597.24 1270.72 432.66 c 0,0,0
 1270.72 268.36 1270.72 268.36 1305.53 197.585 c 0,0,0
 1340.34 126.81 1340.34 126.81 1419.95 126.81 c 0,0,0
 1497.9 126.81 1497.9 126.81 1532.87 199.925 c 0,0,0
 1567.84 273.04 1567.84 273.04 1567.84 432.66 c 0,0,0
EndSplineSet
EndChar

StartChar: ampersand
Encoding: 38 38 9
Width: 1441
GlyphClass: 2
Flags: W
LayerCount: 2
Fore
SplineSet
84.06 380.38 m 0,0,0
 84.06 516.7 84.06 516.7 166.545 622.695 c 0,0,0
 249.03 728.69 249.03 728.69 423.71 808.71 c 1,0,0
 388.03 879.42 388.03 879.42 367.715 954.37 c 0,0,0
 347.4 1029.32 347.4 1029.32 347.4 1095.3 c 0,0,0
 347.4 1249.32 347.4 1249.32 443.255 1333.16 c 0,0,0
 539.11 1417 539.11 1417 715.82 1417 c 0,0,0
 878.21 1417 878.21 1417 974.06 1338.32 c 0,0,0
 1069.91 1259.64 1069.91 1259.64 1069.91 1124.29 c 0,0,0
 1069.91 1049.6 1069.91 1049.6 1033.385 988.095 c 0,0,0
 996.86 926.59 996.86 926.59 925.86 872.6 c 0,0,0
 885.57 842.97 885.57 842.97 822.76 808.645 c 0,0,0
 759.95 774.32 759.95 774.32 672.3 735.64 c 1,0,0
 775.27 550.06 775.27 550.06 932.47 374.56 c 1,0,0
 1039.44 536.2 1039.44 536.2 1094.76 753.07 c 1,0,0
 1282.64 691.98 l 1,0,0
 1217.29 456.37 1217.29 456.37 1083.37 255.81 c 1,0,0
 1172 174.56 1172 174.56 1271.27 174.56 c 0,0,0
 1339.25 174.56 1339.25 174.56 1388.27 190.56 c 1,0,0
 1388.27 10 l 1,0,0
 1334.27 -12 1334.27 -12 1253.97 -12 c 0,0,0
 1167.31 -12 1167.31 -12 1084.77 19.165 c 0,0,0
 1002.23 50.33 1002.23 50.33 934.53 110.98 c 1,0,0
 770.15 -20 770.15 -20 557.84 -20 c 0,0,0
 332.12 -20 332.12 -20 208.09 85.51 c 0,0,0
 84.06 191.02 84.06 191.02 84.06 380.38 c 0,0,0
869.67 1122.95 m 0,0,0
 869.67 1184.9 869.67 1184.9 827.71 1224.035 c 0,0,0
 785.75 1263.17 785.75 1263.17 713.82 1263.17 c 0,0,0
 630.55 1263.17 630.55 1263.17 586.915 1217.365 c 0,0,0
 543.28 1171.56 543.28 1171.56 543.28 1093.96 c 0,0,0
 543.28 999.38 543.28 999.38 600.91 884.13 c 1,0,0
 715.16 931.77 715.16 931.77 765.77 965.41 c 0,0,0
 816.38 999.05 816.38 999.05 843.025 1037.35 c 0,0,0
 869.67 1075.65 869.67 1075.65 869.67 1122.95 c 0,0,0
790.31 236.43 m 1,0,0
 702.03 336.68 702.03 336.68 630.235 437.615 c 0,0,0
 558.44 538.55 558.44 538.55 502.8 639.83 c 1,0,0
 309.68 552.23 309.68 552.23 309.68 383.72 c 0,0,0
 309.68 277.46 309.68 277.46 378.805 213.995 c 0,0,0
 447.93 150.53 447.93 150.53 567.19 150.53 c 0,0,0
 634.17 150.53 634.17 150.53 692.775 175.685 c 0,0,0
 751.38 200.84 751.38 200.84 790.31 236.43 c 1,0,0
EndSplineSet
EndChar

StartChar: quotesingle
Encoding: 39 39 10
Width: 455
GlyphClass: 2
Flags: W
LayerCount: 2
Fore
SplineSet
350.31 1409 m 1,0,0
 324.96 920.44 l 1,0,0
 131.7 920.44 l 1,0,0
 107.35 1409 l 1,0,0
 350.31 1409 l 1,0,0
EndSplineSet
EndChar

StartChar: parenleft
Encoding: 40 40 11
Width: 682
GlyphClass: 2
Flags: W
LayerCount: 2
Fore
SplineSet
431.01 -424.67 m 1,0,0
 319.75 -278.62 319.75 -278.62 248.47 -130.615 c 0,0,0
 177.19 17.39 177.19 17.39 143.72 179.875 c 0,0,0
 110.25 342.36 110.25 342.36 110.25 530.01 c 0,0,0
 110.25 718.98 110.25 718.98 143.885 881.295 c 0,0,0
 177.52 1043.61 177.52 1043.61 248.8 1191.28 c 0,0,0
 320.08 1338.95 320.08 1338.95 431.01 1484 c 1,0,0
 676.7 1484 l 1,0,0
 509.13 1262.6 509.13 1262.6 432.35 1033.96 c 0,0,0
 355.57 805.32 355.57 805.32 355.57 530 c 0,0,0
 355.57 347.34 355.57 347.34 388.88 186.36 c 0,0,0
 422.19 25.38 422.19 25.38 493.145 -124.12 c 0,0,0
 564.1 -273.62 564.1 -273.62 676.7 -424.67 c 1,0,0
 431.01 -424.67 l 1,0,0
EndSplineSet
EndChar

StartChar: parenright
Encoding: 41 41 12
Width: 682
GlyphClass: 2
Flags: W
LayerCount: 2
Fore
SplineSet
5.3 -424.67 m 1,0,0
 118.57 -273.95 118.57 -273.95 189.19 -124.45 c 0,0,0
 259.81 25.05 259.81 25.05 293.12 185.865 c 0,0,0
 326.43 346.68 326.43 346.68 326.43 530 c 0,0,0
 326.43 806.32 326.43 806.32 249.315 1034.965 c 0,0,0
 172.2 1263.61 172.2 1263.61 5.3 1484 c 1,0,0
 250.99 1484 l 1,0,0
 363.59 1337.95 363.59 1337.95 434.035 1189.61 c 0,0,0
 504.48 1041.27 504.48 1041.27 538.115 879.62 c 0,0,0
 571.75 717.97 571.75 717.97 571.75 531.33 c 0,0,0
 571.75 343.36 571.75 343.36 538.115 180.88 c 0,0,0
 504.48 18.4 504.48 18.4 434.035 -129.775 c 0,0,0
 363.59 -277.95 363.59 -277.95 250.99 -424.67 c 1,0,0
 5.3 -424.67 l 1,0,0
EndSplineSet
EndChar

StartChar: asterisk
Encoding: 42 42 13
Width: 797
GlyphClass: 2
Flags: W
LayerCount: 2
Fore
SplineSet
710.21 766.02 m 1,0,0
 547.66 661.19 l 1,0,0
 400.34 915.17 l 1,0,0
 249.03 661.85 l 1,0,0
 85.14 768.02 l 1,0,0
 274.81 991.23 l 1,0,0
 14.91 1056.19 l 1,0,0
 75.32 1232.4 l 1,0,0
 323.56 1127.41 l 1,0,0
 307.54 1409 l 1,0,0
 496.47 1409 l 1,0,0
 480.12 1128.07 l 1,0,0
 724.69 1231.74 l 1,0,0
 785.1 1056.19 l 1,0,0
 524.54 991.23 l 1,0,0
 710.21 766.02 l 1,0,0
EndSplineSet
EndChar

StartChar: plus
Encoding: 43 43 14
Width: 1196
GlyphClass: 2
Flags: W
LayerCount: 2
Fore
SplineSet
697.8 581.87 m 1,0,0
 697.8 167.27 l 1,0,0
 497.87 167.27 l 1,0,0
 497.87 581.87 l 1,0,0
 90.62 581.87 l 1,0,0
 90.62 780.13 l 1,0,0
 497.87 780.13 l 1,0,0
 497.87 1194.73 l 1,0,0
 697.8 1194.73 l 1,0,0
 697.8 780.13 l 1,0,0
 1107.06 780.13 l 1,0,0
 1107.06 581.87 l 1,0,0
 697.8 581.87 l 1,0,0
EndSplineSet
EndChar

StartChar: comma
Encoding: 44 44 15
Width: 569
GlyphClass: 2
Flags: W
LayerCount: 2
Fore
SplineSet
416.49 61.05 m 2,0,0
 416.49 -54.33 416.49 -54.33 393.135 -139.4 c 0,0,0
 369.78 -224.47 369.78 -224.47 318.39 -298.85 c 1,0,0
 153.85 -298.85 l 1,0,0
 208.89 -228.84 208.89 -228.84 241.435 -150.275 c 0,0,0
 273.98 -71.71 273.98 -71.71 273.98 0 c 1,0,0
 158.51 0 l 1,0,0
 158.51 276.62 l 1,0,0
 416.49 276.62 l 1,0,0
 416.49 61.05 l 2,0,0
EndSplineSet
EndChar

StartChar: hyphen
Encoding: 45 45 16
Width: 682
GlyphClass: 2
Flags: W
LayerCount: 2
Fore
SplineSet
597.03 643.43 m 1,0,0
 597.03 427.15 l 1,0,0
 83.63 427.15 l 1,0,0
 83.63 643.43 l 1,0,0
 597.03 643.43 l 1,0,0
EndSplineSet
EndChar

StartChar: period
Encoding: 46 46 17
Width: 569
GlyphClass: 2
Flags: W
LayerCount: 2
Fore
SplineSet
412.82 276.62 m 1,0,0
 412.82 0 l 1,0,0
 154.84 0 l 1,0,0
 154.84 276.62 l 1,0,0
 412.82 276.62 l 1,0,0
EndSplineSet
EndChar

StartChar: slash
Encoding: 47 47 18
Width: 569
GlyphClass: 2
Flags: W
LayerCount: 2
Fore
SplineSet
555.6 1484 m 1,0,0
 229.67 -34.07 l 1,0,0
 13.4 -34.07 l 1,0,0
 344 1484 l 1,0,0
 555.6 1484 l 1,0,0
EndSplineSet
EndChar

StartChar: zero
Encoding: 48 48 19
Width: 1139
GlyphClass: 2
Flags: W
LayerCount: 2
Fore
SplineSet
1056.32 705 m 0,0,0
 1056.32 349.32 1056.32 349.32 933.16 164.66 c 0,0,0
 810 -20 810 -20 565.66 -20 c 0,0,0
 323.33 -20 323.33 -20 202 162.655 c 0,0,0
 80.67 345.31 80.67 345.31 80.67 705 c 0,0,0
 80.67 1073.36 80.67 1073.36 197.16 1251.68 c 0,0,0
 313.65 1430 313.65 1430 573 1430 c 0,0,0
 822.67 1430 822.67 1430 939.495 1248.34 c 0,0,0
 1056.32 1066.68 1056.32 1066.68 1056.32 705 c 0,0,0
806.99 705 m 0,0,0
 806.99 899.62 806.99 899.62 785.535 1015.73 c 0,0,0
 764.08 1131.84 764.08 1131.84 712.49 1183.13 c 0,0,0
 660.9 1234.42 660.9 1234.42 571.66 1234.42 c 0,0,0
 478.41 1234.42 478.41 1234.42 425.155 1183.125 c 0,0,0
 371.9 1131.83 371.9 1131.83 350.45 1015.72 c 0,0,0
 329 899.61 329 899.61 329 705 c 0,0,0
 329 512.37 329 512.37 351.45 396.095 c 0,0,0
 373.9 279.82 373.9 279.82 426.155 228.2 c 0,0,0
 478.41 176.58 478.41 176.58 567.66 176.58 c 0,0,0
 700.53 176.58 700.53 176.58 753.76 301.16 c 0,0,0
 806.99 425.74 806.99 425.74 806.99 705 c 0,0,0
EndSplineSet
EndChar

StartChar: one
Encoding: 49 49 20
Width: 1139
GlyphClass: 2
Flags: W
LayerCount: 2
Fore
SplineSet
1067.81 190.52 m 1,0,0
 1067.81 0 l 1,0,0
 137.91 0 l 1,0,0
 137.91 190.52 l 1,0,0
 490.21 190.52 l 1,0,0
 490.21 1192.11 l 1,0,0
 158.81 975.83 l 1,0,0
 158.81 1180 l 1,0,0
 505.21 1409 l 1,0,0
 738.21 1409 l 1,0,0
 738.21 190.52 l 1,0,0
 1067.81 190.52 l 1,0,0
EndSplineSet
EndChar

StartChar: two
Encoding: 50 50 21
Width: 1139
GlyphClass: 2
Flags: W
LayerCount: 2
Fore
SplineSet
1050.07 205.26 m 1,0,0
 1050.07 0 l 1,0,0
 81.56 0 l 1,0,0
 81.56 172.56 l 1,0,0
 123.18 265.44 123.18 265.44 185.295 347.065 c 0,0,0
 247.41 428.69 247.41 428.69 327.735 505.045 c 0,0,0
 408.06 581.4 408.06 581.4 486.82 644.65 c 0,0,0
 565.58 707.9 565.58 707.9 612.135 751.295 c 0,0,0
 658.69 794.69 658.69 794.69 694.295 836.165 c 0,0,0
 729.9 877.64 729.9 877.64 752.985 925.875 c 0,0,0
 776.07 974.11 776.07 974.11 776.07 1027.28 c 0,0,0
 776.07 1127.2 776.07 1127.2 722.475 1179.14 c 0,0,0
 668.88 1231.08 668.88 1231.08 567.31 1231.08 c 0,0,0
 469.06 1231.08 469.06 1231.08 412.65 1177.96 c 0,0,0
 356.24 1124.84 356.24 1124.84 342.57 1022.56 c 1,0,0
 92.24 1038.89 l 1,0,0
 114.92 1225.98 114.92 1225.98 237.75 1327.99 c 0,0,0
 360.58 1430 360.58 1430 565.97 1430 c 0,0,0
 789.02 1430 789.02 1430 908.545 1327.155 c 0,0,0
 1028.07 1224.31 1028.07 1224.31 1028.07 1037.3 c 0,0,0
 1028.07 939.22 1028.07 939.22 986.215 856.21 c 0,0,0
 944.36 773.2 944.36 773.2 884.505 709.015 c 0,0,0
 824.65 644.83 824.65 644.83 753.985 587.19 c 0,0,0
 683.32 529.55 683.32 529.55 601.625 463.835 c 0,0,0
 519.93 398.12 519.93 398.12 458.965 335.015 c 0,0,0
 398 271.91 398 271.91 369.34 205.26 c 1,0,0
 1050.07 205.26 l 1,0,0
EndSplineSet
EndChar

StartChar: three
Encoding: 51 51 22
Width: 1139
GlyphClass: 2
Flags: W
LayerCount: 2
Fore
SplineSet
1059.72 390.34 m 0,0,0
 1059.72 193.33 1059.72 193.33 931.7 85.66 c 0,0,0
 803.68 -22.01 803.68 -22.01 566.98 -22.01 c 0,0,0
 344.27 -22.01 344.27 -22.01 212.415 79.85 c 0,0,0
 80.56 181.71 80.56 181.71 57.23 376.07 c 1,0,0
 310.23 398.43 l 1,0,0
 340.2 179.92 340.2 179.92 566.31 179.92 c 0,0,0
 678.86 179.92 678.86 179.92 741.955 235.53 c 0,0,0
 805.05 291.14 805.05 291.14 805.05 403.71 c 0,0,0
 805.05 504.64 805.05 504.64 730.285 559.425 c 0,0,0
 655.52 614.21 655.52 614.21 510.63 614.21 c 2,0,0
 411.31 614.21 l 1,0,0
 411.31 817.78 l 1,0,0
 505.29 817.78 l 2,0,0
 635.2 817.78 635.2 817.78 702.965 872.23 c 0,0,0
 770.73 926.68 770.73 926.68 770.73 1025.94 c 0,0,0
 770.73 1121.52 770.73 1121.52 716.29 1176.3 c 0,0,0
 661.85 1231.08 661.85 1231.08 556.31 1231.08 c 0,0,0
 458.75 1231.08 458.75 1231.08 398.65 1178.79 c 0,0,0
 338.55 1126.5 338.55 1126.5 329.23 1030.91 c 1,0,0
 81.23 1048.93 l 1,0,0
 102.57 1227.96 102.57 1227.96 229.755 1328.98 c 0,0,0
 356.94 1430 356.94 1430 560.32 1430 c 0,0,0
 778.35 1430 778.35 1430 900.54 1330.83 c 0,0,0
 1022.73 1231.66 1022.73 1231.66 1022.73 1055.66 c 0,0,0
 1022.73 922.67 1022.73 922.67 945.89 837.835 c 0,0,0
 869.05 753 869.05 753 723.71 724.34 c 1,0,0
 723.71 720.34 l 1,0,0
 884.39 702 884.39 702 972.055 614.005 c 0,0,0
 1059.72 526.01 1059.72 526.01 1059.72 390.34 c 0,0,0
EndSplineSet
EndChar

StartChar: four
Encoding: 52 52 23
Width: 1139
GlyphClass: 2
Flags: W
LayerCount: 2
Fore
SplineSet
920.53 297.56 m 1,0,0
 920.53 0 l 1,0,0
 684.87 0 l 1,0,0
 684.87 297.56 l 1,0,0
 36.28 297.56 l 1,0,0
 36.28 485.13 l 1,0,0
 647.78 1409 l 1,0,0
 920.53 1409 l 1,0,0
 920.53 484.45 l 1,0,0
 1111.83 484.45 l 1,0,0
 1111.83 297.56 l 1,0,0
 920.53 297.56 l 1,0,0
244.49 484.45 m 1,0,0
 684.87 484.45 l 1,0,0
 684.87 978.78 l 2,0,0
 684.87 1030.14 684.87 1030.14 687.38 1087.365 c 0,0,0
 689.89 1144.59 689.89 1144.59 692.22 1171.83 c 1,0,0
 675.92 1138.55 675.92 1138.55 654.565 1102.34 c 0,0,0
 633.21 1066.13 633.21 1066.13 605.81 1024.02 c 2,0,0
 244.49 484.45 l 1,0,0
EndSplineSet
EndChar

StartChar: five
Encoding: 53 53 24
Width: 1139
GlyphClass: 2
Flags: W
LayerCount: 2
Fore
SplineSet
1072.43 465.7 m 0,0,0
 1072.43 242.03 1072.43 242.03 935.24 111.015 c 0,0,0
 798.05 -20 798.05 -20 557.69 -20 c 0,0,0
 350.64 -20 350.64 -20 225.285 72.365 c 0,0,0
 99.93 164.73 99.93 164.73 69.27 339.79 c 1,0,0
 317.6 362.13 l 1,0,0
 341.91 267.51 341.91 267.51 403.52 222.715 c 0,0,0
 465.13 177.92 465.13 177.92 561.02 177.92 c 0,0,0
 679.22 177.92 679.22 177.92 748.155 251.685 c 0,0,0
 817.09 325.45 817.09 325.45 817.09 460.36 c 0,0,0
 817.09 578.62 817.09 578.62 750.335 650.235 c 0,0,0
 683.58 721.85 683.58 721.85 566.36 721.85 c 0,0,0
 503.41 721.85 503.41 721.85 450.46 699.185 c 0,0,0
 397.51 676.52 397.51 676.52 351.93 627.55 c 1,0,0
 110.27 627.55 l 1,0,0
 158.61 1409 l 1,0,0
 990.43 1409 l 1,0,0
 990.43 1218.48 l 1,0,0
 383.58 1218.48 l 1,0,0
 359.26 832.45 l 1,0,0
 466.21 922.45 466.21 922.45 626.14 922.45 c 0,0,0
 761.79 922.45 761.79 922.45 862.115 866.28 c 0,0,0
 962.44 810.11 962.44 810.11 1017.435 707.76 c 0,0,0
 1072.43 605.41 1072.43 605.41 1072.43 465.7 c 0,0,0
EndSplineSet
EndChar

StartChar: six
Encoding: 54 54 25
Width: 1139
GlyphClass: 2
Flags: W
LayerCount: 2
Fore
SplineSet
1059.72 461 m 0,0,0
 1059.72 236.66 1059.72 236.66 935.37 108.33 c 0,0,0
 811.02 -20 811.02 -20 591.99 -20 c 0,0,0
 346.62 -20 346.62 -20 215.595 155.325 c 0,0,0
 84.57 330.65 84.57 330.65 84.57 672 c 0,0,0
 84.57 1045.37 84.57 1045.37 218.585 1237.685 c 0,0,0
 352.6 1430 352.6 1430 601.3 1430 c 0,0,0
 774.03 1430 774.03 1430 876.54 1353.31 c 0,0,0
 979.05 1276.62 979.05 1276.62 1021.39 1118.21 c 1,0,0
 787.08 1083.19 l 1,0,0
 745.13 1233.08 745.13 1233.08 596.62 1233.08 c 0,0,0
 470.09 1233.08 470.09 1233.08 398.99 1110.015 c 0,0,0
 327.89 986.95 327.89 986.95 327.89 743.09 c 1,0,0
 374.21 823.37 374.21 823.37 457.18 865.845 c 0,0,0
 540.15 908.32 540.15 908.32 645.77 908.32 c 0,0,0
 836.75 908.32 836.75 908.32 948.235 787.66 c 0,0,0
 1059.72 667 1059.72 667 1059.72 461 c 0,0,0
810.39 453 m 0,0,0
 810.39 583.89 810.39 583.89 748.455 653.825 c 0,0,0
 686.52 723.76 686.52 723.76 577.31 723.76 c 0,0,0
 473.42 723.76 473.42 723.76 410.325 659.64 c 0,0,0
 347.23 595.52 347.23 595.52 347.23 487.29 c 0,0,0
 347.23 396.71 347.23 396.71 377.195 326.11 c 0,0,0
 407.16 255.51 407.16 255.51 460.605 215.045 c 0,0,0
 514.05 174.58 514.05 174.58 583.98 174.58 c 0,0,0
 690.53 174.58 690.53 174.58 750.46 248.68 c 0,0,0
 810.39 322.78 810.39 322.78 810.39 453 c 0,0,0
EndSplineSet
EndChar

StartChar: seven
Encoding: 55 55 26
Width: 1139
GlyphClass: 2
Flags: W
LayerCount: 2
Fore
SplineSet
1044.71 1211.41 m 1,0,0
 945.42 1056.46 945.42 1056.46 863.56 919.755 c 0,0,0
 781.7 783.05 781.7 783.05 724.97 656.22 c 0,0,0
 653.39 499.37 653.39 499.37 614.25 338.14 c 0,0,0
 575.11 176.91 575.11 176.91 575.11 0 c 1,0,0
 316.76 0 l 1,0,0
 316.76 154.07 316.76 154.07 349.78 298.57 c 0,0,0
 382.8 443.07 382.8 443.07 454.84 602.74 c 0,0,0
 508.14 721.59 508.14 721.59 593.605 865.985 c 0,0,0
 679.07 1010.38 679.07 1010.38 812.42 1203.74 c 1,0,0
 93.61 1203.74 l 1,0,0
 93.61 1409 l 1,0,0
 1044.71 1409 l 1,0,0
 1044.71 1211.41 l 1,0,0
EndSplineSet
EndChar

StartChar: eight
Encoding: 56 56 27
Width: 1139
GlyphClass: 2
Flags: W
LayerCount: 2
Fore
SplineSet
1067.42 395.68 m 0,0,0
 1067.42 198.67 1067.42 198.67 938.73 89.335 c 0,0,0
 810.04 -20 810.04 -20 570.67 -20 c 0,0,0
 334.62 -20 334.62 -20 203.77 88.34 c 0,0,0
 72.92 196.68 72.92 196.68 72.92 393.68 c 0,0,0
 72.92 529.67 72.92 529.67 151.25 622.665 c 0,0,0
 229.58 715.66 229.58 715.66 357.94 737 c 1,0,0
 357.94 741 l 1,0,0
 243.61 766.66 243.61 766.66 174.765 855.32 c 0,0,0
 105.92 943.98 105.92 943.98 105.92 1060.96 c 0,0,0
 105.92 1230 105.92 1230 227.76 1330 c 0,0,0
 349.6 1430 349.6 1430 566.67 1430 c 0,0,0
 788.74 1430 788.74 1430 910.58 1332.335 c 0,0,0
 1032.42 1234.67 1032.42 1234.67 1032.42 1058.96 c 0,0,0
 1032.42 941.98 1032.42 941.98 963.745 853.99 c 0,0,0
 895.07 766 895.07 766 778.4 743 c 1,0,0
 778.4 739 l 1,0,0
 914.07 717 914.07 717 990.745 626.51 c 0,0,0
 1067.42 536.02 1067.42 536.02 1067.42 395.68 c 0,0,0
777.08 1045.61 m 0,0,0
 777.08 1253.79 777.08 1253.79 566.67 1253.79 c 0,0,0
 358.93 1253.79 358.93 1253.79 358.93 1045.61 c 0,0,0
 358.93 938.01 358.93 938.01 412.355 883.22 c 0,0,0
 465.78 828.43 465.78 828.43 568.67 828.43 c 0,0,0
 672.22 828.43 672.22 828.43 724.65 879.225 c 0,0,0
 777.08 930.02 777.08 930.02 777.08 1045.61 c 0,0,0
810.74 416.7 m 0,0,0
 810.74 533.63 810.74 533.63 748.15 592.76 c 0,0,0
 685.56 651.89 685.56 651.89 565.33 651.89 c 0,0,0
 451.78 651.89 451.78 651.89 389.855 589.435 c 0,0,0
 327.93 526.98 327.93 526.98 327.93 412.7 c 0,0,0
 327.93 281.77 327.93 281.77 388.695 219.49 c 0,0,0
 449.46 157.21 449.46 157.21 572.67 157.21 c 0,0,0
 694.21 157.21 694.21 157.21 752.475 218.665 c 0,0,0
 810.74 280.12 810.74 280.12 810.74 416.7 c 0,0,0
EndSplineSet
EndChar

StartChar: nine
Encoding: 57 57 28
Width: 1139
GlyphClass: 2
Flags: W
LayerCount: 2
Fore
SplineSet
1056.07 728.98 m 0,0,0
 1056.07 357.94 1056.07 357.94 920.555 168.97 c 0,0,0
 785.04 -20 785.04 -20 535.35 -20 c 0,0,0
 356.28 -20 356.28 -20 252.76 56.2 c 0,0,0
 149.24 132.4 149.24 132.4 105.57 298.79 c 1,0,0
 339.21 332.49 l 1,0,0
 383.16 175.92 383.16 175.92 538.35 175.92 c 0,0,0
 668.56 175.92 668.56 175.92 739.155 299.15 c 0,0,0
 809.75 422.38 809.75 422.38 812.41 659.23 c 1,0,0
 773.75 579.28 773.75 579.28 683.785 532.82 c 0,0,0
 593.82 486.36 593.82 486.36 488.54 486.36 c 0,0,0
 363.88 486.36 363.88 486.36 271.89 544.355 c 0,0,0
 179.9 602.35 179.9 602.35 129.575 708.01 c 0,0,0
 79.25 813.67 79.25 813.67 79.25 957.34 c 0,0,0
 79.25 1179.01 79.25 1179.01 206.265 1304.505 c 0,0,0
 333.28 1430 333.28 1430 563.66 1430 c 0,0,0
 810.72 1430 810.72 1430 933.395 1254.995 c 0,0,0
 1056.07 1079.99 1056.07 1079.99 1056.07 728.98 c 0,0,0
792.4 918.39 m 0,0,0
 792.4 1062.26 792.4 1062.26 728.135 1148.34 c 0,0,0
 663.87 1234.42 663.87 1234.42 556.99 1234.42 c 0,0,0
 451.78 1234.42 451.78 1234.42 391.185 1159.99 c 0,0,0
 330.59 1085.56 330.59 1085.56 330.59 956 c 0,0,0
 330.59 826.79 330.59 826.79 390.85 750.02 c 0,0,0
 451.11 673.25 451.11 673.25 557 673.25 c 0,0,0
 622.94 673.25 622.94 673.25 676.045 703.89 c 0,0,0
 729.15 734.53 729.15 734.53 760.775 789.985 c 0,0,0
 792.4 845.44 792.4 845.44 792.4 918.39 c 0,0,0
EndSplineSet
EndChar

StartChar: colon
Encoding: 58 58 29
Width: 644
GlyphClass: 2
Flags: W
LayerCount: 2
Fore
SplineSet
451.01 1049.84 m 1,0,0
 451.01 792.59 l 1,0,0
 193.7 792.59 l 1,0,0
 193.7 1049.84 l 1,0,0
 451.01 1049.84 l 1,0,0
451.01 256.58 m 1,0,0
 451.01 0 l 1,0,0
 193.7 0 l 1,0,0
 193.7 256.58 l 1,0,0
 451.01 256.58 l 1,0,0
EndSplineSet
EndChar

StartChar: semicolon
Encoding: 59 59 30
Width: 644
GlyphClass: 2
Flags: W
LayerCount: 2
Fore
SplineSet
453.34 1049.84 m 1,0,0
 453.34 792.59 l 1,0,0
 196.03 792.59 l 1,0,0
 196.03 1049.84 l 1,0,0
 453.34 1049.84 l 1,0,0
453.34 61.05 m 2,0,0
 453.34 -54.33 453.34 -54.33 429.985 -139.4 c 0,0,0
 406.63 -224.47 406.63 -224.47 355.24 -298.85 c 1,0,0
 191.37 -298.85 l 1,0,0
 249.76 -222.14 249.76 -222.14 280.63 -145.25 c 0,0,0
 311.5 -68.36 311.5 -68.36 311.5 0 c 1,0,0
 196.03 0 l 1,0,0
 196.03 256.58 l 1,0,0
 453.34 256.58 l 1,0,0
 453.34 61.05 l 2,0,0
EndSplineSet
EndChar

StartChar: less
Encoding: 60 60 31
Width: 1196
GlyphClass: 2
Flags: W
LayerCount: 2
Fore
SplineSet
1107.39 337.15 m 1,0,0
 1107.39 134.57 l 1,0,0
 90.95 534.15 l 1,0,0
 90.95 817.54 l 1,0,0
 1107.39 1217.45 l 1,0,0
 1107.39 1013.87 l 1,0,0
 266.14 675.34 l 1,0,0
 1107.39 337.15 l 1,0,0
EndSplineSet
EndChar

StartChar: equal
Encoding: 61 61 32
Width: 1196
GlyphClass: 2
Flags: W
LayerCount: 2
Fore
SplineSet
1106.39 1044.87 m 1,0,0
 1106.39 846.62 l 1,0,0
 89.95 846.62 l 1,0,0
 89.95 1044.87 l 1,0,0
 1106.39 1044.87 l 1,0,0
1106.39 505.4 m 1,0,0
 1106.39 308.49 l 1,0,0
 89.95 308.49 l 1,0,0
 89.95 505.4 l 1,0,0
 1106.39 505.4 l 1,0,0
EndSplineSet
EndChar

StartChar: greater
Encoding: 62 62 33
Width: 1196
GlyphClass: 2
Flags: W
LayerCount: 2
Fore
SplineSet
1107.39 534.15 m 1,0,0
 90.95 134.57 l 1,0,0
 90.95 337.15 l 1,0,0
 931.53 675.34 l 1,0,0
 90.95 1013.87 l 1,0,0
 90.95 1217.45 l 1,0,0
 1107.39 817.54 l 1,0,0
 1107.39 534.15 l 1,0,0
EndSplineSet
EndChar

StartChar: question
Encoding: 63 63 34
Width: 1214
GlyphClass: 2
Flags: W
LayerCount: 2
Fore
SplineSet
1109.9 1027.98 m 0,0,0
 1109.9 925.7 1109.9 925.7 1064.75 848.04 c 0,0,0
 1019.6 770.38 1019.6 770.38 899.61 683.73 c 2,0,0
 822.29 627.41 l 2,0,0
 686.99 530.77 686.99 530.77 682.64 409.83 c 1,0,0
 446 409.83 l 1,0,0
 449.67 485.75 449.67 485.75 476.475 545.4 c 0,0,0
 503.28 605.05 503.28 605.05 550.265 653.905 c 0,0,0
 597.25 702.76 597.25 702.76 658.96 746.12 c 0,0,0
 726.01 793.15 726.01 793.15 770.655 833.485 c 0,0,0
 815.3 873.82 815.3 873.82 837.765 917.445 c 0,0,0
 860.23 961.07 860.23 961.07 860.23 1017.3 c 0,0,0
 860.23 1113.88 860.23 1113.88 796.13 1169.83 c 0,0,0
 732.03 1225.78 732.03 1225.78 614.81 1225.78 c 0,0,0
 500.94 1225.78 500.94 1225.78 427.985 1163.15 c 0,0,0
 355.03 1100.52 355.03 1100.52 342.37 995.27 c 1,0,0
 90.7 1007.27 l 1,0,0
 117.37 1208.62 117.37 1208.62 254.07 1319.31 c 0,0,0
 390.77 1430 390.77 1430 611.47 1430 c 0,0,0
 843.85 1430 843.85 1430 976.875 1323.16 c 0,0,0
 1109.9 1216.32 1109.9 1216.32 1109.9 1027.98 c 0,0,0
695.98 247.23 m 1,0,0
 695.98 0 l 1,0,0
 438 0 l 1,0,0
 438 247.23 l 1,0,0
 695.98 247.23 l 1,0,0
EndSplineSet
EndChar

StartChar: at
Encoding: 64 64 35
Width: 2024
GlyphClass: 2
Flags: W
LayerCount: 2
Fore
SplineSet
1885.92 734.9 m 0,0,0
 1885.92 551.58 1885.92 551.58 1824.9 401.58 c 0,0,0
 1762.88 251.25 1762.88 251.25 1654.015 167.575 c 0,0,0
 1545.15 83.9 1545.15 83.9 1416.14 83.9 c 0,0,0
 1321.83 83.9 1321.83 83.9 1270.845 128.905 c 0,0,0
 1219.86 173.91 1219.86 173.91 1219.86 257.22 c 0,0,0
 1220.19 275.56 1220.19 275.56 1221.36 292.555 c 0,0,0
 1222.53 309.55 1222.53 309.55 1224.87 325.21 c 1,0,0
 1218.87 325.21 l 1,0,0
 1163.59 214.27 1163.59 214.27 1065.42 149.085 c 0,0,0
 967.25 83.9 967.25 83.9 860.95 83.9 c 0,0,0
 703.95 83.9 703.95 83.9 617.45 185.565 c 0,0,0
 530.95 287.23 530.95 287.23 530.95 468.9 c 0,0,0
 530.95 631.23 530.95 631.23 595.95 774.57 c 0,0,0
 660.95 916.91 660.95 916.91 775.445 998.905 c 0,0,0
 889.94 1080.9 889.94 1080.9 1031.61 1080.9 c 0,0,0
 1234.2 1080.9 1234.2 1080.9 1307.82 904.26 c 1,0,0
 1313.82 904.26 l 1,0,0
 1352.82 1058.9 l 1,0,0
 1508.82 1058.9 l 1,0,0
 1392.15 552.9 l 2,0,0
 1355.15 385.87 1355.15 385.87 1355.15 308.61 c 0,0,0
 1355.15 259.6 1355.15 259.6 1377.66 237.775 c 0,0,0
 1400.17 215.95 1400.17 215.95 1434.14 215.95 c 0,0,0
 1514.47 215.95 1514.47 215.95 1585.49 285.62 c 0,0,0
 1656.84 354.62 1656.84 354.62 1698.02 472.605 c 0,0,0
 1739.2 590.59 1739.2 590.59 1739.2 732.9 c 0,0,0
 1739.2 909.56 1739.2 909.56 1662.87 1045.54 c 0,0,0
 1586.54 1180.86 1586.54 1180.86 1441.875 1254.355 c 0,0,0
 1297.21 1327.85 1297.21 1327.85 1105.22 1327.85 c 0,0,0
 864.89 1327.85 864.89 1327.85 680.57 1222.19 c 0,0,0
 496.58 1116.53 496.58 1116.53 391.585 917.375 c 0,0,0
 286.59 718.22 286.59 718.22 286.59 470.9 c 0,0,0
 286.59 276.9 286.59 276.9 366.26 129.56 c 0,0,0
 445.6 -18.44 445.6 -18.44 590.75 -95.095 c 0,0,0
 735.9 -171.75 735.9 -171.75 931.22 -171.75 c 0,0,0
 1077.56 -171.75 1077.56 -171.75 1225.22 -133.245 c 0,0,0
 1372.88 -94.74 1372.88 -94.74 1524.84 -14.44 c 1,0,0
 1584.53 -133.14 l 1,0,0
 1424.12 -225.5 1424.12 -225.5 1260.65 -267.985 c 0,0,0
 1097.18 -310.47 1097.18 -310.47 926.53 -310.47 c 0,0,0
 688.88 -310.47 688.88 -310.47 509.55 -214.47 c 0,0,0
 329.22 -119.47 329.22 -119.47 230.37 59.71 c 0,0,0
 131.52 238.89 131.52 238.89 131.52 470.9 c 0,0,0
 131.52 752.58 131.52 752.58 257.86 981.91 c 0,0,0
 383.53 1210.91 383.53 1210.91 605.705 1337.405 c 0,0,0
 827.88 1463.9 827.88 1463.9 1103.22 1463.9 c 0,0,0
 1345.56 1463.9 1345.56 1463.9 1522.57 1373.9 c 0,0,0
 1699.58 1282.9 1699.58 1282.9 1792.75 1117.9 c 0,0,0
 1885.92 952.9 1885.92 952.9 1885.92 734.9 c 0,0,0
1252.45 729.58 m 0,0,0
 1252.45 826.89 1252.45 826.89 1190.805 887.715 c 0,0,0
 1129.16 948.54 1129.16 948.54 1029.88 948.54 c 0,0,0
 933.57 948.54 933.57 948.54 857.92 885.88 c 0,0,0
 781.93 822.88 781.93 822.88 739.275 709.04 c 0,0,0
 696.62 595.2 696.62 595.2 696.62 470.9 c 0,0,0
 696.62 354.92 696.62 354.92 744.79 288.26 c 0,0,0
 792.96 221.6 792.96 221.6 892.63 221.6 c 0,0,0
 962.59 221.6 962.59 221.6 1028.06 264.265 c 0,0,0
 1093.53 306.93 1093.53 306.93 1144.51 383.95 c 0,0,0
 1179.49 436.62 1179.49 436.62 1203.31 501.945 c 0,0,0
 1227.13 567.27 1227.13 567.27 1239.79 628.425 c 0,0,0
 1252.45 689.58 1252.45 689.58 1252.45 729.58 c 0,0,0
EndSplineSet
EndChar

StartChar: A
Encoding: 65 65 36
Width: 1441
GlyphClass: 2
Flags: W
LayerCount: 2
Fore
SplineSet
435.69 377.16 m 1,0,0
 298.48 0 l 1,0,0
 35.49 0 l 1,0,0
 569.62 1409 l 1,0,0
 874.39 1409 l 1,0,0
 1404.21 0 l 1,0,0
 1144.22 0 l 1,0,0
 1007.34 377.16 l 1,0,0
 435.69 377.16 l 1,0,0
721.18 1216.09 m 1,0,0
 708.87 1170.81 708.87 1170.81 689.055 1110.685 c 0,0,0
 669.24 1050.56 669.24 1050.56 657.28 1017.99 c 2,0,0
 499.05 575.07 l 1,0,0
 944.31 575.07 l 1,0,0
 782.74 1026 l 2,0,0
 768.74 1065.02 768.74 1065.02 753.11 1114.28 c 0,0,0
 737.48 1163.54 737.48 1163.54 721.18 1216.09 c 1,0,0
EndSplineSet
EndChar

StartChar: B
Encoding: 66 66 37
Width: 1441
GlyphClass: 2
Flags: W
LayerCount: 2
Fore
SplineSet
1343.76 400.35 m 0,0,0
 1343.76 209.67 1343.76 209.67 1202.07 104.835 c 0,0,0
 1060.38 0 1060.38 0 808.34 0 c 2,0,0
 147.23 0 l 1,0,0
 147.23 1409 l 1,0,0
 748.34 1409 l 2,0,0
 1003.04 1409 1003.04 1409 1132.735 1320.82 c 0,0,0
 1262.43 1232.64 1262.43 1232.64 1262.43 1058.96 c 0,0,0
 1262.43 937.31 1262.43 937.31 1194.775 853.985 c 0,0,0
 1127.12 770.66 1127.12 770.66 993.76 741.66 c 1,0,0
 1163.77 721.66 1163.77 721.66 1253.765 632.51 c 0,0,0
 1343.76 543.36 1343.76 543.36 1343.76 400.35 c 0,0,0
1000.08 1024.57 m 0,0,0
 1000.08 1125.84 1000.08 1125.84 933.805 1168.81 c 0,0,0
 867.53 1211.78 867.53 1211.78 738.96 1211.78 c 2,0,0
 407.91 1211.78 l 1,0,0
 407.91 830.77 l 1,0,0
 740.3 830.77 l 2,0,0
 874.54 830.77 874.54 830.77 937.31 878.89 c 0,0,0
 1000.08 927.01 1000.08 927.01 1000.08 1024.57 c 0,0,0
1081.75 420.71 m 0,0,0
 1081.75 635.54 1081.75 635.54 775.97 635.54 c 2,0,0
 407.91 635.54 l 1,0,0
 407.91 197.22 l 1,0,0
 788.29 197.22 l 2,0,0
 941.18 197.22 941.18 197.22 1011.465 253.175 c 0,0,0
 1081.75 309.13 1081.75 309.13 1081.75 420.71 c 0,0,0
EndSplineSet
EndChar

StartChar: C
Encoding: 67 67 38
Width: 1479
GlyphClass: 2
Flags: W
LayerCount: 2
Fore
SplineSet
796.65 187.25 m 0,0,0
 1073.89 187.25 1073.89 187.25 1192.07 463.5 c 1,0,0
 1415.74 372.77 l 1,0,0
 1331.42 176.03 1331.42 176.03 1171.91 78.015 c 0,0,0
 1012.4 -20 1012.4 -20 793.68 -20 c 0,0,0
 571.64 -20 571.64 -20 414.29 67.325 c 0,0,0
 256.94 154.65 256.94 154.65 173.77 318.815 c 0,0,0
 90.6 482.98 90.6 482.98 90.6 711 c 0,0,0
 90.6 940.69 90.6 940.69 171.26 1101.02 c 0,0,0
 251.92 1261.35 251.92 1261.35 407.26 1345.675 c 0,0,0
 562.6 1430 562.6 1430 784.64 1430 c 0,0,0
 1025.05 1430 1025.05 1430 1179.4 1334.295 c 0,0,0
 1333.75 1238.59 1333.75 1238.59 1399.39 1052.19 c 1,0,0
 1165.46 984.82 l 1,0,0
 1127.18 1096.43 1127.18 1096.43 1026.72 1159.755 c 0,0,0
 926.26 1223.08 926.26 1223.08 789.32 1223.08 c 0,0,0
 578.1 1223.08 578.1 1223.08 465.855 1090.335 c 0,0,0
 353.61 957.59 353.61 957.59 353.61 711 c 0,0,0
 353.61 545.7 353.61 545.7 405.73 428.595 c 0,0,0
 457.85 311.49 457.85 311.49 556.95 249.37 c 0,0,0
 656.05 187.25 656.05 187.25 796.65 187.25 c 0,0,0
EndSplineSet
EndChar

StartChar: D
Encoding: 68 68 39
Width: 1479
GlyphClass: 2
Flags: W
LayerCount: 2
Fore
SplineSet
1389.04 716.32 m 0,0,0
 1389.04 491.31 1389.04 491.31 1301.87 330.98 c 0,0,0
 1214.7 170.65 1214.7 170.65 1060.2 85.325 c 0,0,0
 905.7 0 905.7 0 703.04 0 c 2,0,0
 147.23 0 l 1,0,0
 147.23 1409 l 1,0,0
 642.71 1409 l 2,0,0
 999.37 1409 999.37 1409 1194.205 1229.5 c 0,0,0
 1389.04 1050 1389.04 1050 1389.04 716.32 c 0,0,0
1126.69 716.32 m 0,0,0
 1126.69 954.87 1126.69 954.87 1000.275 1080.31 c 0,0,0
 873.86 1205.75 873.86 1205.75 637.37 1205.75 c 2,0,0
 407.91 1205.75 l 1,0,0
 407.91 203.25 l 1,0,0
 679.03 203.25 l 2,0,0
 815.93 203.25 815.93 203.25 916.02 265.885 c 0,0,0
 1016.11 328.52 1016.11 328.52 1071.4 443.46 c 0,0,0
 1126.69 558.4 1126.69 558.4 1126.69 716.32 c 0,0,0
EndSplineSet
EndChar

StartChar: E
Encoding: 69 69 40
Width: 1366
GlyphClass: 2
Flags: W
LayerCount: 2
Fore
SplineSet
1283.36 204.24 m 1,0,0
 1283.36 0 l 1,0,0
 147.23 0 l 1,0,0
 147.23 1409 l 1,0,0
 1242.36 1409 l 1,0,0
 1242.36 1204.76 l 1,0,0
 407.91 1204.76 l 1,0,0
 407.91 818.42 l 1,0,0
 1181.69 818.42 l 1,0,0
 1181.69 614.84 l 1,0,0
 407.91 614.84 l 1,0,0
 407.91 204.24 l 1,0,0
 1283.36 204.24 l 1,0,0
EndSplineSet
EndChar

StartChar: F
Encoding: 70 70 41
Width: 1251
GlyphClass: 2
Flags: W
LayerCount: 2
Fore
SplineSet
407.91 534.82 m 1,0,0
 407.91 0 l 1,0,0
 147.23 0 l 1,0,0
 147.23 1409 l 1,0,0
 1173.69 1409 l 1,0,0
 1173.69 1204.76 l 1,0,0
 407.91 1204.76 l 1,0,0
 407.91 739.72 l 1,0,0
 1150.36 739.72 l 1,0,0
 1150.36 534.82 l 1,0,0
 407.91 534.82 l 1,0,0
EndSplineSet
EndChar

StartChar: G
Encoding: 71 71 42
Width: 1593
GlyphClass: 2
Flags: W
LayerCount: 2
Fore
SplineSet
808.31 185.92 m 0,0,0
 930.9 185.92 930.9 185.92 1042.695 222.225 c 0,0,0
 1154.49 258.53 1154.49 258.53 1218.44 317.13 c 1,0,0
 1218.44 531.6 l 1,0,0
 849.03 531.6 l 1,0,0
 849.03 730.46 l 1,0,0
 1457.42 730.46 l 1,0,0
 1457.42 223.02 l 1,0,0
 1345.42 108.35 1345.42 108.35 1171.53 44.175 c 0,0,0
 997.64 -20 997.64 -20 802.95 -20 c 0,0,0
 576.92 -20 576.92 -20 417.585 66.655 c 0,0,0
 258.25 153.31 258.25 153.31 174.26 317.14 c 0,0,0
 90.27 480.97 90.27 480.97 90.27 711 c 0,0,0
 90.27 1057.35 90.27 1057.35 275.61 1243.675 c 0,0,0
 460.95 1430 460.95 1430 804.67 1430 c 0,0,0
 1048.05 1430 1048.05 1430 1202.09 1342.625 c 0,0,0
 1356.13 1255.25 1356.13 1255.25 1427.09 1074.55 c 1,0,0
 1184.79 1001.79 l 1,0,0
 1135.51 1113.08 1135.51 1113.08 1037.715 1168.08 c 0,0,0
 939.92 1223.08 939.92 1223.08 803.02 1223.08 c 0,0,0
 583.14 1223.08 583.14 1223.08 468.21 1089.985 c 0,0,0
 353.28 956.89 353.28 956.89 353.28 711 c 0,0,0
 353.28 462.76 353.28 462.76 473.195 324.34 c 0,0,0
 593.11 185.92 593.11 185.92 808.31 185.92 c 0,0,0
EndSplineSet
EndChar

StartChar: H
Encoding: 72 72 43
Width: 1479
GlyphClass: 2
Flags: W
LayerCount: 2
Fore
SplineSet
407.91 620.17 m 1,0,0
 407.91 0 l 1,0,0
 147.23 0 l 1,0,0
 147.23 1409 l 1,0,0
 407.91 1409 l 1,0,0
 407.91 836.45 l 1,0,0
 1070.75 836.45 l 1,0,0
 1070.75 1409 l 1,0,0
 1331.43 1409 l 1,0,0
 1331.43 0 l 1,0,0
 1070.75 0 l 1,0,0
 1070.75 620.17 l 1,0,0
 407.91 620.17 l 1,0,0
EndSplineSet
EndChar

StartChar: I
Encoding: 73 73 44
Width: 569
GlyphClass: 2
Flags: W
LayerCount: 2
Fore
SplineSet
414.84 1409 m 1,0,0
 414.84 0 l 1,0,0
 154.16 0 l 1,0,0
 154.16 1409 l 1,0,0
 414.84 1409 l 1,0,0
EndSplineSet
EndChar

StartChar: J
Encoding: 74 74 45
Width: 1101
GlyphClass: 2
Flags: W
LayerCount: 2
Fore
SplineSet
501.89 -20 m 0,0,0
 296.09 -20 296.09 -20 182.385 74.175 c 0,0,0
 68.68 168.35 68.68 168.35 31.33 371.44 c 1,0,0
 289.35 410.48 l 1,0,0
 307.35 299.17 307.35 299.17 360.97 242.545 c 0,0,0
 414.59 185.92 414.59 185.92 503.56 185.92 c 0,0,0
 596.84 185.92 596.84 185.92 647.125 249.045 c 0,0,0
 697.41 312.17 697.41 312.17 697.41 431.41 c 2,0,0
 697.41 1409 l 1,0,0
 957.09 1409 l 1,0,0
 957.09 437.42 l 2,0,0
 957.09 222.37 957.09 222.37 836.71 101.185 c 0,0,0
 716.33 -20 716.33 -20 501.89 -20 c 0,0,0
EndSplineSet
EndChar

StartChar: K
Encoding: 75 75 46
Width: 1441
GlyphClass: 2
Flags: W
LayerCount: 2
Fore
SplineSet
407.91 522.58 m 1,0,0
 407.91 0 l 1,0,0
 147.23 0 l 1,0,0
 147.23 1409 l 1,0,0
 407.91 1409 l 1,0,0
 407.91 747.89 l 1,0,0
 1057.43 1409 l 1,0,0
 1362.16 1409 l 1,0,0
 760.82 807.72 l 1,0,0
 1421.39 0 l 1,0,0
 1110.02 0 l 1,0,0
 585.21 657.89 l 1,0,0
 407.91 522.58 l 1,0,0
EndSplineSet
EndChar

StartChar: L
Encoding: 76 76 47
Width: 1214
GlyphClass: 2
Flags: W
LayerCount: 2
Fore
SplineSet
1149.39 204.24 m 1,0,0
 1149.39 0 l 1,0,0
 147.23 0 l 1,0,0
 147.23 1409 l 1,0,0
 407.91 1409 l 1,0,0
 407.91 204.24 l 1,0,0
 1149.39 204.24 l 1,0,0
EndSplineSet
EndChar

StartChar: M
Encoding: 77 77 48
Width: 1706
GlyphClass: 2
Flags: W
LayerCount: 2
Fore
SplineSet
378.87 882.38 m 2,0,0
 378.87 0 l 1,0,0
 147.23 0 l 1,0,0
 147.23 1409 l 1,0,0
 494.71 1409 l 1,0,0
 787.3 558.63 l 2,0,0
 805.29 494.94 805.29 494.94 823.455 428.11 c 0,0,0
 841.62 361.28 841.62 361.28 854.99 307.16 c 1,0,0
 864.34 341.53 864.34 341.53 875.66 382.33 c 0,0,0
 886.98 423.13 886.98 423.13 898.635 463.11 c 0,0,0
 910.29 503.09 910.29 503.09 919.64 532.5 c 2,0,0
 1214.61 1409 l 1,0,0
 1558.77 1409 l 1,0,0
 1558.77 0 l 1,0,0
 1326.47 0 l 1,0,0
 1326.47 882.38 l 2,0,0
 1326.47 927.55 1326.47 927.55 1328.97 1010.925 c 0,0,0
 1331.47 1094.3 1331.47 1094.3 1336.14 1187.07 c 1,0,0
 1304.44 1067.92 1304.44 1067.92 1279.59 981.675 c 0,0,0
 1254.74 895.43 1254.74 895.43 1236.75 843.42 c 2,0,0
 946.45 0 l 1,0,0
 761.53 0 l 1,0,0
 469.58 843.42 l 1,0,0
 368.52 1187.07 l 1,0,0
 373.2 1084.6 373.2 1084.6 376.035 1008.595 c 0,0,0
 378.87 932.59 378.87 932.59 378.87 882.38 c 2,0,0
EndSplineSet
EndChar

StartChar: N
Encoding: 78 78 49
Width: 1479
GlyphClass: 2
Flags: W
LayerCount: 2
Fore
SplineSet
378.87 865.65 m 2,0,0
 378.87 0 l 1,0,0
 147.23 0 l 1,0,0
 147.23 1409 l 1,0,0
 446.28 1409 l 1,0,0
 1115.15 277.38 l 1,0,0
 1099.13 444.23 1099.13 444.23 1099.13 555.35 c 2,0,0
 1099.13 1409 l 1,0,0
 1331.43 1409 l 1,0,0
 1331.43 0 l 1,0,0
 1023.71 0 l 1,0,0
 363.51 1122.95 l 1,0,0
 370.2 1048.24 370.2 1048.24 374.535 983.915 c 0,0,0
 378.87 919.59 378.87 919.59 378.87 865.65 c 2,0,0
EndSplineSet
EndChar

StartChar: O
Encoding: 79 79 50
Width: 1593
GlyphClass: 2
Flags: W
LayerCount: 2
Fore
SplineSet
1503.04 711 m 0,0,0
 1503.04 489.02 1503.04 489.02 1415.53 324.685 c 0,0,0
 1328.02 160.35 1328.02 160.35 1168.675 70.175 c 0,0,0
 1009.33 -20 1009.33 -20 793.66 -20 c 0,0,0
 574.31 -20 574.31 -20 416.135 68.335 c 0,0,0
 257.96 156.67 257.96 156.67 173.125 320.67 c 0,0,0
 88.29 484.67 88.29 484.67 88.29 711 c 0,0,0
 88.29 937 88.29 937 172.46 1097.835 c 0,0,0
 256.63 1258.67 256.63 1258.67 415.14 1344.335 c 0,0,0
 573.65 1430 573.65 1430 795.66 1430 c 0,0,0
 1017.02 1430 1017.02 1430 1175.195 1343.995 c 0,0,0
 1333.37 1257.99 1333.37 1257.99 1418.205 1097.155 c 0,0,0
 1503.04 936.32 1503.04 936.32 1503.04 711 c 0,0,0
1237.02 711 m 0,0,0
 1237.02 950.55 1237.02 950.55 1121.265 1086.815 c 0,0,0
 1005.51 1223.08 1005.51 1223.08 795.66 1223.08 c 0,0,0
 583.14 1223.08 583.14 1223.08 467.22 1088.145 c 0,0,0
 351.3 953.21 351.3 953.21 351.3 711 c 0,0,0
 351.3 549.74 351.3 549.74 404.6 431.965 c 0,0,0
 457.9 314.19 457.9 314.19 557.165 250.39 c 0,0,0
 656.43 186.59 656.43 186.59 793.66 186.59 c 0,0,0
 1006.84 186.59 1006.84 186.59 1121.93 323.355 c 0,0,0
 1237.02 460.12 1237.02 460.12 1237.02 711 c 0,0,0
EndSplineSet
EndChar

StartChar: P
Encoding: 80 80 51
Width: 1366
GlyphClass: 2
Flags: W
LayerCount: 2
Fore
SplineSet
1283.46 970.26 m 0,0,0
 1283.46 834.58 1283.46 834.58 1222.115 731.555 c 0,0,0
 1160.77 628.53 1160.77 628.53 1047.915 571.01 c 0,0,0
 935.06 513.49 935.06 513.49 779.03 513.49 c 2,0,0
 407.91 513.49 l 1,0,0
 407.91 0 l 1,0,0
 147.23 0 l 1,0,0
 147.23 1409 l 1,0,0
 767.03 1409 l 2,0,0
 1014.75 1409 1014.75 1409 1149.105 1294.315 c 0,0,0
 1283.46 1179.63 1283.46 1179.63 1283.46 970.26 c 0,0,0
1021.11 966.25 m 0,0,0
 1021.11 1205.08 1021.11 1205.08 737.33 1205.08 c 2,0,0
 407.91 1205.08 l 1,0,0
 407.91 715.41 l 1,0,0
 745.33 715.41 l 2,0,0
 879.87 715.41 879.87 715.41 950.49 779.21 c 0,0,0
 1021.11 843.01 1021.11 843.01 1021.11 966.25 c 0,0,0
EndSplineSet
EndChar

StartChar: Q
Encoding: 81 81 52
Width: 1593
GlyphClass: 2
Flags: W
LayerCount: 2
Fore
SplineSet
1503.04 711 m 0,0,0
 1503.04 519.7 1503.04 519.7 1438.89 370.72 c 0,0,0
 1374.74 221.74 1374.74 221.74 1254.44 126.57 c 0,0,0
 1134.14 31.4 1134.14 31.4 964.85 0.7 c 1,0,0
 1001.16 -107.21 1001.16 -107.21 1064.31 -155.17 c 0,0,0
 1127.46 -203.13 1127.46 -203.13 1235.49 -203.13 c 0,0,0
 1295.84 -203.13 1295.84 -203.13 1353.17 -192.14 c 1,0,0
 1351.83 -371.7 l 1,0,0
 1238.72 -397.72 1238.72 -397.72 1130.95 -397.72 c 0,0,0
 971.91 -397.72 971.91 -397.72 868.045 -308.535 c 0,0,0
 764.18 -219.35 764.18 -219.35 700.17 -11.98 c 1,0,0
 506.21 3.38 506.21 3.38 369.57 95.38 c 0,0,0
 232.93 187.38 232.93 187.38 160.61 344.365 c 0,0,0
 88.29 501.35 88.29 501.35 88.29 711 c 0,0,0
 88.29 937 88.29 937 172.46 1097.835 c 0,0,0
 256.63 1258.67 256.63 1258.67 415.14 1344.335 c 0,0,0
 573.65 1430 573.65 1430 795.66 1430 c 0,0,0
 1019 1430 1019 1430 1177.01 1343.17 c 0,0,0
 1335.02 1256.34 1335.02 1256.34 1419.03 1095.34 c 0,0,0
 1503.04 934.34 1503.04 934.34 1503.04 711 c 0,0,0
1237.02 711 m 0,0,0
 1237.02 950.55 1237.02 950.55 1121.265 1086.815 c 0,0,0
 1005.51 1223.08 1005.51 1223.08 795.66 1223.08 c 0,0,0
 583.14 1223.08 583.14 1223.08 467.22 1088.145 c 0,0,0
 351.3 953.21 351.3 953.21 351.3 711 c 0,0,0
 351.3 549.74 351.3 549.74 404.265 431.63 c 0,0,0
 457.23 313.52 457.23 313.52 556.495 249.72 c 0,0,0
 655.76 185.92 655.76 185.92 793.66 185.92 c 0,0,0
 1006.84 185.92 1006.84 185.92 1121.93 322.685 c 0,0,0
 1237.02 459.45 1237.02 459.45 1237.02 711 c 0,0,0
EndSplineSet
EndChar

StartChar: R
Encoding: 82 82 53
Width: 1479
GlyphClass: 2
Flags: W
LayerCount: 2
Fore
SplineSet
407.91 551.5 m 1,0,0
 407.91 0 l 1,0,0
 147.23 0 l 1,0,0
 147.23 1409 l 1,0,0
 837.7 1409 l 2,0,0
 1085.08 1409 1085.08 1409 1219.605 1301.16 c 0,0,0
 1354.13 1193.32 1354.13 1193.32 1354.13 994.61 c 0,0,0
 1354.13 843.64 1354.13 843.64 1267.655 736.305 c 0,0,0
 1181.18 628.97 1181.18 628.97 1032.24 596.95 c 1,0,0
 1419.51 0 l 1,0,0
 1124.47 0 l 1,0,0
 784.6 551.5 l 1,0,0
 407.91 551.5 l 1,0,0
1091.78 985.91 m 0,0,0
 1091.78 1094.17 1091.78 1094.17 1020.675 1149.625 c 0,0,0
 949.57 1205.08 949.57 1205.08 810.66 1205.08 c 2,0,0
 407.91 1205.08 l 1,0,0
 407.91 754.76 l 1,0,0
 818.66 754.76 l 2,0,0
 951.57 754.76 951.57 754.76 1021.675 815.545 c 0,0,0
 1091.78 876.33 1091.78 876.33 1091.78 985.91 c 0,0,0
EndSplineSet
EndChar

StartChar: S
Encoding: 83 83 54
Width: 1366
GlyphClass: 2
Flags: W
LayerCount: 2
Fore
SplineSet
1281.38 400.39 m 0,0,0
 1281.38 197.35 1281.38 197.35 1128.21 88.675 c 0,0,0
 975.04 -20 975.04 -20 684.64 -20 c 0,0,0
 156.24 -20 156.24 -20 70.22 357.43 c 1,0,0
 322.22 401.13 l 1,0,0
 352.21 284.18 352.21 284.18 442.81 230.71 c 0,0,0
 533.41 177.24 533.41 177.24 692.31 177.24 c 0,0,0
 857.21 177.24 857.21 177.24 941.965 229.685 c 0,0,0
 1026.72 282.13 1026.72 282.13 1026.72 385.7 c 0,0,0
 1026.72 448.67 1026.72 448.67 992.875 488.99 c 0,0,0
 959.03 529.31 959.03 529.31 896.67 555.97 c 0,0,0
 856.42 573.92 856.42 573.92 788.81 590.575 c 0,0,0
 721.2 607.23 721.2 607.23 627.88 627.22 c 0,0,0
 520.23 652.22 520.23 652.22 455.445 671.865 c 0,0,0
 390.66 691.51 390.66 691.51 350.7 711.31 c 0,0,0
 310.74 731.11 310.74 731.11 276.74 754.41 c 0,0,0
 209.99 799.74 209.99 799.74 173.105 870.12 c 0,0,0
 136.22 940.5 136.22 940.5 136.22 1041.61 c 0,0,0
 136.22 1229.31 136.22 1229.31 278.07 1329.655 c 0,0,0
 419.92 1430 419.92 1430 688.64 1430 c 0,0,0
 943.38 1430 943.38 1430 1073.395 1350.805 c 0,0,0
 1203.41 1271.61 1203.41 1271.61 1245.7 1086.57 c 1,0,0
 992.04 1049.55 l 1,0,0
 967.07 1147.48 967.07 1147.48 893.135 1194.965 c 0,0,0
 819.2 1242.45 819.2 1242.45 683.96 1242.45 c 0,0,0
 538.41 1242.45 538.41 1242.45 464.15 1195.83 c 0,0,0
 389.89 1149.21 389.89 1149.21 389.89 1056.3 c 0,0,0
 389.89 998 389.89 998 420.37 960.525 c 0,0,0
 450.85 923.05 450.85 923.05 509.82 896.73 c 0,0,0
 565.46 871.08 565.46 871.08 747.38 831.77 c 0,0,0
 841.78 810.76 841.78 810.76 916.76 790.93 c 0,0,0
 991.74 771.1 991.74 771.1 1044.32 748.81 c 0,0,0
 1087.33 730.47 1087.33 730.47 1122.82 708.315 c 0,0,0
 1158.31 686.16 1158.31 686.16 1184.3 659.52 c 0,0,0
 1231.01 612.83 1231.01 612.83 1256.195 548.795 c 0,0,0
 1281.38 484.76 1281.38 484.76 1281.38 400.39 c 0,0,0
EndSplineSet
EndChar

StartChar: T
Encoding: 84 84 55
Width: 1251
GlyphClass: 2
Flags: W
LayerCount: 2
Fore
SplineSet
755.51 1204.76 m 1,0,0
 755.51 0 l 1,0,0
 495.16 0 l 1,0,0
 495.16 1204.76 l 1,0,0
 30.59 1204.76 l 1,0,0
 30.59 1409 l 1,0,0
 1220.75 1409 l 1,0,0
 1220.75 1204.76 l 1,0,0
 755.51 1204.76 l 1,0,0
EndSplineSet
EndChar

StartChar: U
Encoding: 85 85 56
Width: 1479
GlyphClass: 2
Flags: W
LayerCount: 2
Fore
SplineSet
725.64 -20 m 0,0,0
 538.57 -20 538.57 -20 406.22 43.665 c 0,0,0
 273.87 107.33 273.87 107.33 204.21 228.675 c 0,0,0
 134.55 350.02 134.55 350.02 134.55 522.72 c 2,0,0
 134.55 1409 l 1,0,0
 395.23 1409 l 1,0,0
 395.23 543.41 l 2,0,0
 395.23 367.83 395.23 367.83 480.835 276.875 c 0,0,0
 566.44 185.92 566.44 185.92 730.67 185.92 c 0,0,0
 899.23 185.92 899.23 185.92 990.995 280.71 c 0,0,0
 1082.76 375.5 1082.76 375.5 1082.76 554.4 c 2,0,0
 1082.76 1409 l 1,0,0
 1343.11 1409 l 1,0,0
 1343.11 538.71 l 2,0,0
 1343.11 363.02 1343.11 363.02 1269.27 238.01 c 0,0,0
 1195.43 113 1195.43 113 1057.235 46.5 c 0,0,0
 919.04 -20 919.04 -20 725.64 -20 c 0,0,0
EndSplineSet
EndChar

StartChar: V
Encoding: 86 86 57
Width: 1366
GlyphClass: 2
Flags: W
LayerCount: 2
Fore
SplineSet
1353.65 1409 m 1,0,0
 816.84 0 l 1,0,0
 551.17 0 l 1,0,0
 12.35 1409 l 1,0,0
 285.04 1409 l 1,0,0
 608.04 475.29 l 2,0,0
 625.34 425.68 625.34 425.68 644.17 360.335 c 0,0,0
 663 294.99 663 294.99 685.34 214.9 c 1,0,0
 714.05 319.11 714.05 319.11 731.025 379.07 c 0,0,0
 748 439.03 748 439.03 761.3 475.29 c 2,0,0
 1082.97 1409 l 1,0,0
 1353.65 1409 l 1,0,0
EndSplineSet
EndChar

StartChar: W
Encoding: 87 87 58
Width: 1933
GlyphClass: 2
Flags: W
LayerCount: 2
Fore
SplineSet
905.04 852.48 m 2,0,0
 694.21 0 l 1,0,0
 384.47 0 l 1,0,0
 4.31 1409 l 1,0,0
 270.31 1409 l 1,0,0
 485.12 535.44 l 2,0,0
 501.42 470.87 501.42 470.87 518.57 394.085 c 0,0,0
 535.72 317.3 535.72 317.3 548.69 242.37 c 1,0,0
 558.03 286.07 558.03 286.07 568.18 335.85 c 0,0,0
 578.33 385.63 578.33 385.63 589.31 435.565 c 0,0,0
 600.29 485.5 600.29 485.5 610.95 528.5 c 2,0,0
 828.76 1409 l 1,0,0
 1110.25 1409 l 1,0,0
 1323.09 561.48 l 2,0,0
 1339.03 498.03 1339.03 498.03 1356.005 414.235 c 0,0,0
 1372.98 330.44 1372.98 330.44 1386.97 242.37 c 1,0,0
 1400.63 300.7 1400.63 300.7 1413.11 353.12 c 0,0,0
 1437.41 454 l 0,0,0
 1449.23 502.46 1449.23 502.46 1459.25 548.57 c 2,0,0
 1663.35 1409 l 1,0,0
 1929.35 1409 l 1,0,0
 1548.52 0 l 1,0,0
 1238.78 0 l 1,0,0
 1030.29 841.4 l 2,0,0
 1014.94 903.5 1014.94 903.5 999.115 978.5 c 0,0,0
 983.29 1053.5 983.29 1053.5 967.66 1142.4 c 1,0,0
 959.33 1096.1 959.33 1096.1 946.505 1036.945 c 0,0,0
 933.68 977.79 933.68 977.79 922.19 927.13 c 0,0,0
 910.7 876.47 910.7 876.47 905.04 852.48 c 2,0,0
EndSplineSet
EndChar

StartChar: X
Encoding: 88 88 59
Width: 1366
GlyphClass: 2
Flags: W
LayerCount: 2
Fore
SplineSet
685.65 579.15 m 1,0,0
 305.91 0 l 1,0,0
 27.24 0 l 1,0,0
 531.08 738.03 l 1,0,0
 68.24 1409 l 1,0,0
 346.91 1409 l 1,0,0
 685.98 892.85 l 1,0,0
 1021.42 1409 l 1,0,0
 1298.75 1409 l 1,0,0
 852.93 740.34 l 1,0,0
 1339.75 0 l 1,0,0
 1062.42 0 l 1,0,0
 685.65 579.15 l 1,0,0
EndSplineSet
EndChar

StartChar: Y
Encoding: 89 89 60
Width: 1366
GlyphClass: 2
Flags: W
LayerCount: 2
Fore
SplineSet
813.18 579.98 m 1,0,0
 813.18 0 l 1,0,0
 553.5 0 l 1,0,0
 553.5 579.98 l 1,0,0
 38.3 1409 l 1,0,0
 314.63 1409 l 1,0,0
 682.66 788.25 l 1,0,0
 1052.71 1409 l 1,0,0
 1329.04 1409 l 1,0,0
 813.18 579.98 l 1,0,0
EndSplineSet
EndChar

StartChar: Z
Encoding: 90 90 61
Width: 1251
GlyphClass: 2
Flags: W
LayerCount: 2
Fore
SplineSet
1190.35 206.25 m 1,0,0
 1190.35 0 l 1,0,0
 62.32 0 l 1,0,0
 62.32 187.22 l 1,0,0
 856 1202.75 l 1,0,0
 137.33 1202.75 l 1,0,0
 137.33 1409 l 1,0,0
 1147.37 1409 l 1,0,0
 1147.37 1225.78 l 1,0,0
 353.69 206.25 l 1,0,0
 1190.35 206.25 l 1,0,0
EndSplineSet
EndChar

StartChar: bracketleft
Encoding: 91 91 62
Width: 644
GlyphClass: 2
Flags: W
LayerCount: 2
Fore
SplineSet
622.68 -254.46 m 1,0,0
 622.68 -425 l 1,0,0
 125.23 -425 l 1,0,0
 125.23 1484 l 1,0,0
 622.68 1484 l 1,0,0
 622.68 1314.13 l 1,0,0
 360.87 1314.13 l 1,0,0
 360.87 -254.46 l 1,0,0
 622.68 -254.46 l 1,0,0
EndSplineSet
EndChar

StartChar: backslash
Encoding: 92 92 63
Width: 569
GlyphClass: 2
Flags: W
LayerCount: 2
Fore
SplineSet
225.67 1484.67 m 1,0,0
 556.27 -34.07 l 1,0,0
 340 -34.07 l 1,0,0
 14.07 1484.67 l 1,0,0
 225.67 1484.67 l 1,0,0
EndSplineSet
EndChar

StartChar: bracketright
Encoding: 93 93 64
Width: 644
GlyphClass: 2
Flags: W
LayerCount: 2
Fore
SplineSet
519.48 1484 m 1,0,0
 519.48 -425 l 1,0,0
 22.03 -425 l 1,0,0
 22.03 -254.46 l 1,0,0
 285.18 -254.46 l 1,0,0
 285.18 1314.13 l 1,0,0
 22.03 1314.13 l 1,0,0
 22.03 1484 l 1,0,0
 519.48 1484 l 1,0,0
EndSplineSet
EndChar

StartChar: asciicircum
Encoding: 94 94 65
Width: 1118
GlyphClass: 2
Flags: W
LayerCount: 2
Fore
SplineSet
33.45 566.47 m 1,0,0
 416.86 1409 l 1,0,0
 699.59 1409 l 1,0,0
 1085 566.47 l 1,0,0
 877.45 566.47 l 1,0,0
 557.06 1279.2 l 1,0,0
 239 566.47 l 1,0,0
 33.45 566.47 l 1,0,0
EndSplineSet
EndChar

StartChar: underscore
Encoding: 95 95 66
Width: 1139
GlyphClass: 2
Flags: W
LayerCount: 2
Fore
SplineSet
1158.65 -206.65 m 1,0,0
 1158.65 -301.81 l 1,0,0
 -23.63 -301.81 l 1,0,0
 -23.63 -206.65 l 1,0,0
 1158.65 -206.65 l 1,0,0
EndSplineSet
EndChar

StartChar: grave
Encoding: 96 96 67
Width: 682
GlyphClass: 2
Flags: W
LayerCount: 2
Fore
SplineSet
560.15 1216.31 m 1,0,0
 560.15 1188.94 l 1,0,0
 415.9 1188.94 l 1,0,0
 79.2 1465.6 l 1,0,0
 79.2 1503.98 l 1,0,0
 320.37 1503.98 l 1,0,0
 560.15 1216.31 l 1,0,0
EndSplineSet
EndChar

StartChar: a
Encoding: 97 97 68
Width: 1139
GlyphClass: 2
Flags: W
LayerCount: 2
Fore
SplineSet
399.93 -20 m 0,0,0
 240.95 -20 240.95 -20 154.93 65.665 c 0,0,0
 68.91 151.33 68.91 151.33 68.91 304.68 c 0,0,0
 68.91 472.68 68.91 472.68 178.74 560.67 c 0,0,0
 288.57 648.66 288.57 648.66 509.11 653.32 c 2,0,0
 745.41 657.32 l 1,0,0
 745.41 713.64 l 2,0,0
 745.41 828.22 745.41 828.22 702.14 881.535 c 0,0,0
 658.87 934.85 658.87 934.85 562.99 934.85 c 0,0,0
 470.8 934.85 470.8 934.85 428.195 897.535 c 0,0,0
 385.59 860.22 385.59 860.22 375.93 775.58 c 1,0,0
 117.58 790.57 l 1,0,0
 169.61 1102 169.61 1102 572.35 1102 c 0,0,0
 777.02 1102 777.02 1102 885.38 1003.475 c 0,0,0
 993.74 904.95 993.74 904.95 993.74 721.92 c 2,0,0
 993.74 304.16 l 2,0,0
 993.74 216.79 993.74 216.79 1014.405 180.31 c 0,0,0
 1035.07 143.83 1035.07 143.83 1086.7 143.83 c 0,0,0
 1117.38 143.83 1117.38 143.83 1147.71 150.16 c 1,0,0
 1147.71 11.36 l 1,0,0
 1101.65 0.01 1101.65 0.01 1065.31 -5.665 c 0,0,0
 1028.97 -11.34 1028.97 -11.34 981.24 -11.34 c 0,0,0
 877.22 -11.34 877.22 -11.34 828.37 40.825 c 0,0,0
 779.52 92.99 779.52 92.99 770.84 197.62 c 1,0,0
 764.84 197.62 l 1,0,0
 702.54 85.68 702.54 85.68 612.715 32.84 c 0,0,0
 522.89 -20 522.89 -20 399.93 -20 c 0,0,0
745.41 511.89 m 1,0,0
 583.92 509.23 l 2,0,0
 476.01 505.55 476.01 505.55 427.43 486.58 c 0,0,0
 378.18 466.6 378.18 466.6 352.225 425.98 c 0,0,0
 326.27 385.36 326.27 385.36 326.27 318.43 c 0,0,0
 326.27 237.8 326.27 237.8 365.73 196.835 c 0,0,0
 405.19 155.87 405.19 155.87 473.76 155.87 c 0,0,0
 550.98 155.87 550.98 155.87 612.91 194.84 c 0,0,0
 674.5 233.81 674.5 233.81 709.955 302.26 c 0,0,0
 745.41 370.71 745.41 370.71 745.41 445.67 c 2,0,0
 745.41 511.89 l 1,0,0
EndSplineSet
EndChar

StartChar: b
Encoding: 98 98 69
Width: 1214
GlyphClass: 2
Flags: W
LayerCount: 2
Fore
SplineSet
1129.38 545.33 m 0,0,0
 1129.38 272.38 1129.38 272.38 1024.52 126.19 c 0,0,0
 919.66 -20 919.66 -20 719.99 -20 c 0,0,0
 602.35 -20 602.35 -20 519.175 28.185 c 0,0,0
 436 76.37 436 76.37 389.02 172.02 c 1,0,0
 387.02 172.02 l 1,0,0
 387.02 150.01 387.02 150.01 385.02 112.68 c 0,0,0
 383.02 75.35 383.02 75.35 380.35 42.85 c 0,0,0
 377.68 10.35 377.68 10.35 374.34 0 c 1,0,0
 134.01 0 l 1,0,0
 137.68 40.4 137.68 40.4 139.515 99.92 c 0,0,0
 141.35 159.44 141.35 159.44 141.35 239.08 c 2,0,0
 141.35 1484 l 1,0,0
 389.02 1484 l 1,0,0
 389.02 1067.03 l 2,0,0
 389.02 1026.99 389.02 1026.99 387.685 984.805 c 0,0,0
 386.35 942.62 386.35 942.62 385.02 898.62 c 1,0,0
 389.02 898.62 l 1,0,0
 437.01 1002.62 437.01 1002.62 522.525 1052.31 c 0,0,0
 608.04 1102 608.04 1102 732.05 1102 c 0,0,0
 928.34 1102 928.34 1102 1028.86 958.975 c 0,0,0
 1129.38 815.95 1129.38 815.95 1129.38 545.33 c 0,0,0
870.7 543.35 m 0,0,0
 870.7 741.54 870.7 741.54 814.72 833.51 c 0,0,0
 758.74 925.48 758.74 925.48 638.48 925.48 c 0,0,0
 511.94 925.48 511.94 925.48 449.14 827.175 c 0,0,0
 386.34 728.87 386.34 728.87 386.34 533.69 c 0,0,0
 386.34 348.16 386.34 348.16 447.975 250.345 c 0,0,0
 509.61 152.53 509.61 152.53 636.48 152.53 c 0,0,0
 756.4 152.53 756.4 152.53 813.55 248.005 c 0,0,0
 870.7 343.48 870.7 343.48 870.7 543.35 c 0,0,0
EndSplineSet
EndChar

StartChar: c
Encoding: 99 99 70
Width: 1101
GlyphClass: 2
Flags: W
LayerCount: 2
Fore
SplineSet
580.47 -20 m 0,0,0
 340.74 -20 340.74 -20 211.525 125.51 c 0,0,0
 82.31 271.02 82.31 271.02 82.31 537.31 c 0,0,0
 82.31 806.96 82.31 806.96 212.36 954.48 c 0,0,0
 342.41 1102 342.41 1102 582.49 1102 c 0,0,0
 765.24 1102 765.24 1102 885.125 1009.3 c 0,0,0
 1005.01 916.6 1005.01 916.6 1035.69 753.54 c 1,0,0
 785.03 739.54 l 1,0,0
 772.37 824.85 772.37 824.85 721.4 875.505 c 0,0,0
 670.43 926.16 670.43 926.16 576.82 926.16 c 0,0,0
 456.6 926.16 456.6 926.16 399.3 834.175 c 0,0,0
 342 742.19 342 742.19 342 546 c 0,0,0
 342 349.43 342 349.43 401.625 252.465 c 0,0,0
 461.25 155.5 461.25 155.5 580.16 155.5 c 0,0,0
 665.44 155.5 665.44 155.5 722.905 206.495 c 0,0,0
 780.37 257.49 780.37 257.49 794.03 360.13 c 1,0,0
 1043.03 347.46 l 1,0,0
 1028.36 236.76 1028.36 236.76 966.16 154.065 c 0,0,0
 903.96 71.37 903.96 71.37 805.075 25.685 c 0,0,0
 706.19 -20 706.19 -20 580.47 -20 c 0,0,0
EndSplineSet
EndChar

StartChar: d
Encoding: 100 100 71
Width: 1214
GlyphClass: 2
Flags: W
LayerCount: 2
Fore
SplineSet
841.03 0 m 1,0,0
 839.03 10.33 839.03 10.33 835.525 41.835 c 0,0,0
 832.02 73.34 832.02 73.34 829.85 111.01 c 0,0,0
 827.68 148.68 827.68 148.68 827.68 175.34 c 1,0,0
 823.68 175.34 l 1,0,0
 776.36 75.36 776.36 75.36 691.515 27.68 c 0,0,0
 606.67 -20 606.67 -20 480.65 -20 c 0,0,0
 286.37 -20 286.37 -20 185.515 124.365 c 0,0,0
 84.66 268.73 84.66 268.73 84.66 538.68 c 0,0,0
 84.66 812.3 84.66 812.3 190.19 957.15 c 0,0,0
 295.72 1102 295.72 1102 494.72 1102 c 0,0,0
 612.36 1102 612.36 1102 695.365 1054.99 c 0,0,0
 778.37 1007.98 778.37 1007.98 825.02 911.99 c 1,0,0
 827.02 911.99 l 1,0,0
 825.02 1071.18 l 1,0,0
 825.02 1484 l 1,0,0
 1072.69 1484 l 1,0,0
 1072.69 231.71 l 2,0,0
 1072.69 170.16 1072.69 170.16 1074.525 112.315 c 0,0,0
 1076.36 54.47 1076.36 54.47 1080.03 0 c 1,0,0
 841.03 0 l 1,0,0
343.34 540.66 m 0,0,0
 343.34 342.47 343.34 342.47 400.325 248.49 c 0,0,0
 457.31 154.51 457.31 154.51 575.56 154.51 c 0,0,0
 700.42 154.51 700.42 154.51 764.06 254.815 c 0,0,0
 827.7 355.12 827.7 355.12 827.7 549.31 c 0,0,0
 827.7 737.51 827.7 737.51 765.735 833.825 c 0,0,0
 703.77 930.14 703.77 930.14 577.56 930.14 c 0,0,0
 456.97 930.14 456.97 930.14 400.155 835.67 c 0,0,0
 343.34 741.2 343.34 741.2 343.34 540.66 c 0,0,0
EndSplineSet
EndChar

StartChar: e
Encoding: 101 101 72
Width: 1139
GlyphClass: 2
Flags: W
LayerCount: 2
Fore
SplineSet
342.33 492.28 m 1,0,0
 342.33 325.04 342.33 325.04 406.935 237.775 c 0,0,0
 471.54 150.51 471.54 150.51 592.74 150.51 c 0,0,0
 680.93 150.51 680.93 150.51 736.02 187.795 c 0,0,0
 791.11 225.08 791.11 225.08 812.09 291.72 c 1,0,0
 1041.78 261.46 l 1,0,0
 932.72 -20 932.72 -20 583.36 -20 c 0,0,0
 340.68 -20 340.68 -20 211.495 124.005 c 0,0,0
 82.31 268.01 82.31 268.01 82.31 546.66 c 0,0,0
 82.31 814.66 82.31 814.66 212.835 958.33 c 0,0,0
 343.36 1102 343.36 1102 583.73 1102 c 0,0,0
 818.71 1102 818.71 1102 940.39 950.965 c 0,0,0
 1062.07 799.93 1062.07 799.93 1062.07 505.56 c 2,0,0
 1062.07 492.28 l 1,0,0
 342.33 492.28 l 1,0,0
818.45 655.74 m 1,0,0
 808.14 799.94 808.14 799.94 747.53 869.73 c 0,0,0
 686.92 939.52 686.92 939.52 580.06 939.52 c 0,0,0
 470.5 939.52 470.5 939.52 409.41 864.415 c 0,0,0
 348.32 789.31 348.32 789.31 344.33 655.74 c 1,0,0
 818.45 655.74 l 1,0,0
EndSplineSet
EndChar

StartChar: f
Encoding: 102 102 73
Width: 644
GlyphClass: 2
Flags: W
LayerCount: 2
Fore
SplineSet
436.04 911.47 m 1,0,0
 436.04 0 l 1,0,0
 189.04 0 l 1,0,0
 189.04 911.47 l 1,0,0
 33.02 911.47 l 1,0,0
 33.02 1082 l 1,0,0
 189.04 1082 l 1,0,0
 189.04 1197.97 l 2,0,0
 189.04 1345.3 189.04 1345.3 262.75 1414.32 c 0,0,0
 336.46 1483.34 336.46 1483.34 487.21 1483.34 c 0,0,0
 566.9 1483.34 566.9 1483.34 648.38 1468.66 c 1,0,0
 648.38 1302.18 l 1,0,0
 605.74 1310.85 605.74 1310.85 567.04 1310.85 c 0,0,0
 496.03 1310.85 496.03 1310.85 466.035 1280.205 c 0,0,0
 436.04 1249.56 436.04 1249.56 436.04 1170.96 c 2,0,0
 436.04 1082 l 1,0,0
 648.38 1082 l 1,0,0
 648.38 911.47 l 1,0,0
 436.04 911.47 l 1,0,0
EndSplineSet
EndChar

StartChar: g
Encoding: 103 103 74
Width: 1214
GlyphClass: 2
Flags: W
LayerCount: 2
Fore
SplineSet
580.16 -431.03 m 0,0,0
 389.09 -431.03 389.09 -431.03 273.705 -357.51 c 0,0,0
 158.32 -283.99 158.32 -283.99 129.66 -147.95 c 1,0,0
 377.66 -117.26 l 1,0,0
 393.65 -185.56 393.65 -185.56 447.11 -223.715 c 0,0,0
 500.57 -261.87 500.57 -261.87 587.17 -261.87 c 0,0,0
 709.78 -261.87 709.78 -261.87 768.235 -187.56 c 0,0,0
 826.69 -113.25 826.69 -113.25 826.69 33.7 c 2,0,0
 828.03 201 l 1,0,0
 826.03 201 l 1,0,0
 778.38 99.68 778.38 99.68 690.72 49.19 c 0,0,0
 603.06 -1.3 603.06 -1.3 478.03 -1.3 c 0,0,0
 285.73 -1.3 285.73 -1.3 185.195 137.4 c 0,0,0
 84.66 276.1 84.66 276.1 84.66 546.37 c 0,0,0
 84.66 818.63 84.66 818.63 189.515 960.155 c 0,0,0
 294.37 1101.68 294.37 1101.68 498.7 1101.68 c 0,0,0
 615.71 1101.68 615.71 1101.68 698.2 1051.86 c 0,0,0
 780.69 1002.04 780.69 1002.04 826.69 904.37 c 1,0,0
 830.7 904.37 l 1,0,0
 830.7 927.05 830.7 927.05 832.7 965.195 c 0,0,0
 834.7 1003.34 834.7 1003.34 838.035 1037.99 c 0,0,0
 841.37 1072.64 841.37 1072.64 844.04 1082 c 1,0,0
 1078.69 1082 l 1,0,0
 1072.69 991.82 1072.69 991.82 1072.69 840.58 c 2,0,0
 1072.69 32.34 l 2,0,0
 1072.69 -197.67 1072.69 -197.67 947.63 -314.35 c 0,0,0
 822.57 -431.03 822.57 -431.03 580.16 -431.03 c 0,0,0
828.03 551.05 m 0,0,0
 828.03 727.95 828.03 727.95 761.6 828.05 c 0,0,0
 695.17 928.15 695.17 928.15 580.22 928.15 c 0,0,0
 459.64 928.15 459.64 928.15 400.995 834.85 c 0,0,0
 342.35 741.55 342.35 741.55 342.35 547.03 c 0,0,0
 342.35 355.85 342.35 355.85 399.005 264.545 c 0,0,0
 455.66 173.24 455.66 173.24 577.89 173.24 c 0,0,0
 695.17 173.24 695.17 173.24 761.6 272.68 c 0,0,0
 828.03 372.12 828.03 372.12 828.03 551.05 c 0,0,0
EndSplineSet
EndChar

StartChar: h
Encoding: 104 104 75
Width: 1214
GlyphClass: 2
Flags: W
LayerCount: 2
Fore
SplineSet
386.01 876.23 m 1,0,0
 443.34 994.29 443.34 994.29 527.855 1048.145 c 0,0,0
 612.37 1102 612.37 1102 733.35 1102 c 0,0,0
 906.67 1102 906.67 1102 995.865 1000.785 c 0,0,0
 1085.06 899.57 1085.06 899.57 1085.06 697.55 c 2,0,0
 1085.06 0 l 1,0,0
 837.73 0 l 1,0,0
 837.73 632.4 l 2,0,0
 837.73 776.72 837.73 776.72 788.575 845.74 c 0,0,0
 739.42 914.76 739.42 914.76 634.83 914.76 c 0,0,0
 524.58 914.76 524.58 914.76 457.46 827.095 c 0,0,0
 390.34 739.43 390.34 739.43 390.34 598.47 c 2,0,0
 390.34 0 l 1,0,0
 142.67 0 l 1,0,0
 142.67 1484 l 1,0,0
 390.34 1484 l 1,0,0
 390.34 1085.27 l 2,0,0
 390.34 1047.95 390.34 1047.95 389.01 1009.145 c 0,0,0
 387.68 970.34 387.68 970.34 386.18 936.165 c 0,0,0
 384.68 901.99 384.68 901.99 382.34 876.23 c 1,0,0
 386.01 876.23 l 1,0,0
EndSplineSet
EndChar

StartChar: i
Encoding: 105 105 76
Width: 531
GlyphClass: 2
Flags: W
LayerCount: 2
Fore
SplineSet
388.69 1484 m 1,0,0
 388.69 1288.55 l 1,0,0
 141.02 1288.55 l 1,0,0
 141.02 1484 l 1,0,0
 388.69 1484 l 1,0,0
388.69 1082 m 1,0,0
 388.69 0 l 1,0,0
 141.02 0 l 1,0,0
 141.02 1082 l 1,0,0
 388.69 1082 l 1,0,0
EndSplineSet
Substitution2: "Single Substitution lookup 3 subtable" dotlessi
EndChar

StartChar: j
Encoding: 106 106 77
Width: 531
GlyphClass: 2
Flags: W
LayerCount: 2
Fore
SplineSet
389.36 1484 m 1,0,0
 389.36 1288.55 l 1,0,0
 141.69 1288.55 l 1,0,0
 141.69 1484 l 1,0,0
 389.36 1484 l 1,0,0
117.87 -425 m 0,0,0
 25.8 -425 25.8 -425 -37.94 -416 c 1,0,0
 -37.94 -237.47 l 1,0,0
 -23.95 -238.8 -23.95 -238.8 -10.625 -240.465 c 0,0,0
 2.7 -242.13 2.7 -242.13 16.69 -242.13 c 0,0,0
 87.7 -242.13 87.7 -242.13 114.695 -209.145 c 0,0,0
 141.69 -176.16 141.69 -176.16 141.69 -75.51 c 2,0,0
 141.69 1082 l 1,0,0
 389.36 1082 l 1,0,0
 389.36 -129.98 l 2,0,0
 389.36 -276.28 389.36 -276.28 320.985 -350.64 c 0,0,0
 252.61 -425 252.61 -425 117.87 -425 c 0,0,0
EndSplineSet
Substitution2: "Single Substitution lookup 3 subtable" uni0237
EndChar

StartChar: k
Encoding: 107 107 78
Width: 1101
GlyphClass: 2
Flags: W
LayerCount: 2
Fore
SplineSet
389.02 399.07 m 1,0,0
 389.02 0 l 1,0,0
 141.35 0 l 1,0,0
 141.35 1484 l 1,0,0
 389.02 1484 l 1,0,0
 389.02 608.59 l 1,0,0
 804.39 1082 l 1,0,0
 1076.36 1082 l 1,0,0
 676.89 645.81 l 1,0,0
 1103.38 0 l 1,0,0
 828.06 0 l 1,0,0
 513.65 491.32 l 1,0,0
 389.02 399.07 l 1,0,0
EndSplineSet
EndChar

StartChar: l
Encoding: 108 108 79
Width: 531
GlyphClass: 2
Flags: W
LayerCount: 2
Fore
SplineSet
389.02 1484 m 1,0,0
 389.02 0 l 1,0,0
 141.35 0 l 1,0,0
 141.35 1484 l 1,0,0
 389.02 1484 l 1,0,0
EndSplineSet
EndChar

StartChar: m
Encoding: 109 109 80
Width: 1783
GlyphClass: 2
Flags: W
LayerCount: 2
Fore
SplineSet
390.01 595.51 m 2,0,0
 390.01 0 l 1,0,0
 142.67 0 l 1,0,0
 142.67 843.63 l 2,0,0
 142.67 933.27 142.67 933.27 140.5 989.43 c 0,0,0
 138.33 1045.59 138.33 1045.59 135.33 1082 c 1,0,0
 370.99 1082 l 1,0,0
 372.99 1066.7 372.99 1066.7 375.66 1026.325 c 0,0,0
 378.33 985.95 378.33 985.95 380.335 943.41 c 0,0,0
 382.34 900.87 382.34 900.87 382.34 876.9 c 1,0,0
 386.01 876.9 l 1,0,0
 439.99 997.93 439.99 997.93 516.665 1050.3 c 0,0,0
 593.34 1102.67 593.34 1102.67 701.34 1102.67 c 0,0,0
 825.01 1102.67 825.01 1102.67 899.19 1046.97 c 0,0,0
 973.37 991.27 973.37 991.27 1000.03 876.9 c 1,0,0
 1005.04 876.9 l 1,0,0
 1060.37 997.29 1060.37 997.29 1138.195 1049.98 c 0,0,0
 1216.02 1102.67 1216.02 1102.67 1333.04 1102.67 c 0,0,0
 1493.02 1102.67 1493.02 1102.67 1573.215 1001.275 c 0,0,0
 1653.41 899.88 1653.41 899.88 1653.41 698.22 c 2,0,0
 1653.41 0 l 1,0,0
 1407.74 0 l 1,0,0
 1407.74 633.07 l 2,0,0
 1407.74 780.69 1407.74 780.69 1366.08 848.06 c 0,0,0
 1324.42 915.43 1324.42 915.43 1232.52 915.43 c 0,0,0
 1138.64 915.43 1138.64 915.43 1080.175 833.29 c 0,0,0
 1021.71 751.15 1021.71 751.15 1021.71 604.22 c 2,0,0
 1021.71 0 l 1,0,0
 776.04 0 l 1,0,0
 776.04 633.07 l 2,0,0
 776.04 780.69 776.04 780.69 734.38 848.06 c 0,0,0
 692.72 915.43 692.72 915.43 600.82 915.43 c 0,0,0
 505.92 915.43 505.92 915.43 447.965 828.1 c 0,0,0
 390.01 740.77 390.01 740.77 390.01 595.51 c 2,0,0
EndSplineSet
EndChar

StartChar: n
Encoding: 110 110 81
Width: 1214
GlyphClass: 2
Flags: W
LayerCount: 2
Fore
SplineSet
390.34 595.51 m 2,0,0
 390.34 0 l 1,0,0
 142.67 0 l 1,0,0
 142.67 843.63 l 2,0,0
 142.67 933.27 142.67 933.27 140.5 989.43 c 0,0,0
 138.33 1045.59 138.33 1045.59 135.33 1082 c 1,0,0
 370.99 1082 l 1,0,0
 372.99 1067.69 372.99 1067.69 375.495 1028.305 c 0,0,0
 378 988.92 378 988.92 380.005 946.215 c 0,0,0
 382.01 903.51 382.01 903.51 382.34 876.9 c 1,0,0
 386.01 876.9 l 1,0,0
 444.66 996.94 444.66 996.94 529.175 1049.805 c 0,0,0
 613.69 1102.67 613.69 1102.67 733.35 1102.67 c 0,0,0
 907.33 1102.67 907.33 1102.67 996.195 1001.62 c 0,0,0
 1085.06 900.57 1085.06 900.57 1085.06 698.22 c 2,0,0
 1085.06 0 l 1,0,0
 837.73 0 l 1,0,0
 837.73 633.07 l 2,0,0
 837.73 780.03 837.73 780.03 789.07 847.73 c 0,0,0
 740.41 915.43 740.41 915.43 634.83 915.43 c 0,0,0
 523.59 915.43 523.59 915.43 456.965 827.435 c 0,0,0
 390.34 739.44 390.34 739.44 390.34 595.51 c 2,0,0
EndSplineSet
EndChar

StartChar: o
Encoding: 111 111 82
Width: 1214
GlyphClass: 2
Flags: W
LayerCount: 2
Fore
SplineSet
1132.06 542 m 0,0,0
 1132.06 272.07 1132.06 272.07 992.99 126.035 c 0,0,0
 853.92 -20 853.92 -20 602.52 -20 c 0,0,0
 354.8 -20 354.8 -20 218.39 128.185 c 0,0,0
 81.98 276.37 81.98 276.37 81.98 542 c 0,0,0
 81.98 809.27 81.98 809.27 218.555 955.635 c 0,0,0
 355.13 1102 355.13 1102 608.52 1102 c 0,0,0
 867.91 1102 867.91 1102 999.985 960.14 c 0,0,0
 1132.06 818.28 1132.06 818.28 1132.06 542 c 0,0,0
872.71 542 m 0,0,0
 872.71 745.23 872.71 745.23 808.555 837.015 c 0,0,0
 744.4 928.8 744.4 928.8 612.19 928.8 c 0,0,0
 474.29 928.8 474.29 928.8 408.145 833.34 c 0,0,0
 342 737.88 342 737.88 342 542 c 0,0,0
 342 350.11 342 350.11 406.81 251.32 c 0,0,0
 471.62 152.53 471.62 152.53 599.85 152.53 c 0,0,0
 740.41 152.53 740.41 152.53 806.56 248.825 c 0,0,0
 872.71 345.12 872.71 345.12 872.71 542 c 0,0,0
EndSplineSet
EndChar

StartChar: p
Encoding: 112 112 83
Width: 1214
GlyphClass: 2
Flags: W
LayerCount: 2
Fore
SplineSet
1129.38 546 m 0,0,0
 1129.38 271.04 1129.38 271.04 1023.85 125.52 c 0,0,0
 918.32 -20 918.32 -20 719.99 -20 c 0,0,0
 480.04 -20 480.04 -20 389.35 170.68 c 1,0,0
 383.68 170.68 l 1,0,0
 389.02 148.27 389.02 148.27 389.02 -7.36 c 2,0,0
 389.02 -425 l 1,0,0
 141.35 -425 l 1,0,0
 141.35 842.24 l 2,0,0
 141.35 921.22 141.35 921.22 139.515 981.075 c 0,0,0
 137.68 1040.93 137.68 1040.93 134.01 1082 c 1,0,0
 374.34 1082 l 1,0,0
 377.35 1072.64 377.35 1072.64 379.85 1041.995 c 0,0,0
 382.35 1011.35 382.35 1011.35 384.015 973.865 c 0,0,0
 385.68 936.38 385.68 936.38 385.68 906.66 c 1,0,0
 389.68 906.66 l 1,0,0
 437.01 1006.66 437.01 1006.66 521.37 1055.17 c 0,0,0
 605.73 1103.68 605.73 1103.68 732.05 1103.68 c 0,0,0
 924.68 1103.68 924.68 1103.68 1027.03 961.975 c 0,0,0
 1129.38 820.27 1129.38 820.27 1129.38 546 c 0,0,0
870.7 544.68 m 0,0,0
 870.7 741.2 870.7 741.2 813.385 834.18 c 0,0,0
 756.07 927.16 756.07 927.16 637.14 927.16 c 0,0,0
 513.26 927.16 513.26 927.16 449.8 827.675 c 0,0,0
 386.34 728.19 386.34 728.19 386.34 534.7 c 0,0,0
 386.34 347.16 386.34 347.16 448.645 249.845 c 0,0,0
 510.95 152.53 510.95 152.53 635.14 152.53 c 0,0,0
 755.07 152.53 755.07 152.53 812.885 247.68 c 0,0,0
 870.7 342.83 870.7 342.83 870.7 544.68 c 0,0,0
EndSplineSet
EndChar

StartChar: q
Encoding: 113 113 84
Width: 1214
GlyphClass: 2
Flags: W
LayerCount: 2
Fore
SplineSet
84.66 538.68 m 0,0,0
 84.66 811.63 84.66 811.63 190.86 957.15 c 0,0,0
 297.06 1102.67 297.06 1102.67 496.06 1102.67 c 0,0,0
 615.71 1102.67 615.71 1102.67 697.045 1055.82 c 0,0,0
 778.38 1008.97 778.38 1008.97 827.02 909.98 c 1,0,0
 827.02 937.35 827.02 937.35 829.355 975.83 c 0,0,0
 831.69 1014.31 831.69 1014.31 835.36 1046.62 c 0,0,0
 839.03 1078.93 839.03 1078.93 841.03 1086.62 c 1,0,0
 1079.02 1086.62 l 1,0,0
 1075.69 1040.87 1075.69 1040.87 1074.19 974.91 c 0,0,0
 1072.69 908.95 1072.69 908.95 1072.69 822.44 c 2,0,0
 1072.69 -425 l 1,0,0
 826.36 -425 l 1,0,0
 826.36 21.37 l 1,0,0
 831.03 179.34 l 1,0,0
 829.03 179.34 l 1,0,0
 780.39 77.03 780.39 77.03 695.025 28.515 c 0,0,0
 609.66 -20 609.66 -20 480.65 -20 c 0,0,0
 286.04 -20 286.04 -20 185.35 124.695 c 0,0,0
 84.66 269.39 84.66 269.39 84.66 538.68 c 0,0,0
827.7 548.64 m 0,0,0
 827.7 734.18 827.7 734.18 766.07 831.825 c 0,0,0
 704.44 929.47 704.44 929.47 578.9 929.47 c 0,0,0
 458.65 929.47 458.65 929.47 400.995 833.835 c 0,0,0
 343.34 738.2 343.34 738.2 343.34 540.66 c 0,0,0
 343.34 342.47 343.34 342.47 400.49 248.49 c 0,0,0
 457.64 154.51 457.64 154.51 576.9 154.51 c 0,0,0
 701.09 154.51 701.09 154.51 764.395 255.805 c 0,0,0
 827.7 357.1 827.7 357.1 827.7 548.64 c 0,0,0
EndSplineSet
EndChar

StartChar: r
Encoding: 114 114 85
Width: 759
GlyphClass: 2
Flags: W
LayerCount: 2
Fore
SplineSet
390.34 541.89 m 2,0,0
 390.34 0 l 1,0,0
 142.67 0 l 1,0,0
 142.67 828.66 l 2,0,0
 142.67 907.1 142.67 907.1 140.5 967.755 c 0,0,0
 138.33 1028.41 138.33 1028.41 135.33 1082 c 1,0,0
 370.99 1082 l 1,0,0
 372.99 1060.79 372.99 1060.79 374.825 1027.81 c 0,0,0
 376.66 994.83 376.66 994.83 378.33 959.96 c 0,0,0
 380 925.09 380 925.09 381.17 896.205 c 0,0,0
 382.34 867.32 382.34 867.32 382.34 854.3 c 1,0,0
 386.34 854.3 l 1,0,0
 423.04 961.68 423.04 961.68 457.03 1012.33 c 0,0,0
 490.02 1060.32 490.02 1060.32 534.35 1081.495 c 0,0,0
 578.68 1102.67 578.68 1102.67 644.68 1102.67 c 0,0,0
 693.07 1102.67 693.07 1102.67 727.06 1089.32 c 1,0,0
 727.06 877.42 l 1,0,0
 670.95 890.77 670.95 890.77 614.98 890.77 c 0,0,0
 507.67 890.77 507.67 890.77 449.005 801.975 c 0,0,0
 390.34 713.18 390.34 713.18 390.34 541.89 c 2,0,0
EndSplineSet
EndChar

StartChar: s
Encoding: 115 115 86
Width: 1101
GlyphClass: 2
Flags: W
LayerCount: 2
Fore
SplineSet
1020.35 310.39 m 0,0,0
 1020.35 154.71 1020.35 154.71 896.14 67.355 c 0,0,0
 771.93 -20 771.93 -20 551.2 -20 c 0,0,0
 335.13 -20 335.13 -20 219.6 49.18 c 0,0,0
 104.07 118.36 104.07 118.36 67.05 264.72 c 1,0,0
 285.01 299.74 l 1,0,0
 306.67 219.44 306.67 219.44 364.935 184.635 c 0,0,0
 423.2 149.83 423.2 149.83 551.2 149.83 c 0,0,0
 675.47 149.83 675.47 149.83 732.605 183.79 c 0,0,0
 789.74 217.75 789.74 217.75 789.74 288.35 c 0,0,0
 789.74 344.31 789.74 344.31 746.075 377.945 c 0,0,0
 702.41 411.58 702.41 411.58 600.39 434.23 c 0,0,0
 509.18 455.18 509.18 455.18 444.7 471.83 c 0,0,0
 380.22 488.48 380.22 488.48 338.195 502.98 c 0,0,0
 296.17 517.48 296.17 517.48 270.15 530.48 c 0,0,0
 192.76 570.49 192.76 570.49 151.405 631.52 c 0,0,0
 110.05 692.55 110.05 692.55 110.05 781.93 c 0,0,0
 110.05 934.62 110.05 934.62 224.93 1018.15 c 0,0,0
 339.81 1101.68 339.81 1101.68 553.2 1101.68 c 0,0,0
 741.58 1101.68 741.58 1101.68 855.12 1030.64 c 0,0,0
 968.66 959.6 968.66 959.6 997.33 818.59 c 1,0,0
 777.04 794.57 l 1,0,0
 764.05 862.55 764.05 862.55 710.945 897.03 c 0,0,0
 657.84 931.51 657.84 931.51 553.2 931.51 c 0,0,0
 445.94 931.51 445.94 931.51 393.3 902.215 c 0,0,0
 340.66 872.92 340.66 872.92 340.66 807.97 c 0,0,0
 340.66 758.33 340.66 758.33 377.345 728.19 c 0,0,0
 414.03 698.05 414.03 698.05 505.69 678.4 c 0,0,0
 632.03 651.08 632.03 651.08 735.315 620.94 c 0,0,0
 838.6 590.8 838.6 590.8 894.97 553.79 c 0,0,0
 953.31 514.8 953.31 514.8 986.83 456.62 c 0,0,0
 1020.35 398.44 1020.35 398.44 1020.35 310.39 c 0,0,0
EndSplineSet
EndChar

StartChar: t
Encoding: 116 116 87
Width: 644
GlyphClass: 2
Flags: W
LayerCount: 2
Fore
SplineSet
623.01 13.36 m 1,0,0
 525.63 -17.34 525.63 -17.34 404.16 -17.34 c 0,0,0
 285.44 -17.34 285.44 -17.34 222.73 48.18 c 0,0,0
 160.02 113.7 160.02 113.7 160.02 245.75 c 2,0,0
 160.02 911.47 l 1,0,0
 26.98 911.47 l 1,0,0
 26.98 1082 l 1,0,0
 171.71 1082 l 1,0,0
 248.16 1332.04 l 1,0,0
 405.68 1332.04 l 1,0,0
 405.68 1082 l 1,0,0
 609.03 1082 l 1,0,0
 609.03 911.47 l 1,0,0
 405.68 911.47 l 1,0,0
 405.68 309.54 l 2,0,0
 405.68 230.87 405.68 230.87 434.195 195.35 c 0,0,0
 462.71 159.83 462.71 159.83 525.71 159.83 c 0,0,0
 557.03 159.83 557.03 159.83 623.01 173.83 c 1,0,0
 623.01 13.36 l 1,0,0
EndSplineSet
EndChar

StartChar: u
Encoding: 117 117 88
Width: 1214
GlyphClass: 2
Flags: W
LayerCount: 2
Fore
SplineSet
828.03 205.1 m 1,0,0
 770.05 85.73 770.05 85.73 685.2 32.865 c 0,0,0
 600.35 -20 600.35 -20 480.69 -20 c 0,0,0
 306.71 -20 306.71 -20 217.845 79.89 c 0,0,0
 128.98 179.78 128.98 179.78 128.98 383.78 c 2,0,0
 128.98 1082 l 1,0,0
 376.98 1082 l 1,0,0
 376.98 448.93 l 2,0,0
 376.98 300.33 376.98 300.33 425.805 233.45 c 0,0,0
 474.63 166.57 474.63 166.57 579.21 166.57 c 0,0,0
 690.45 166.57 690.45 166.57 757.075 254.565 c 0,0,0
 823.7 342.56 823.7 342.56 823.7 486.49 c 2,0,0
 823.7 1082 l 1,0,0
 1071.37 1082 l 1,0,0
 1071.37 238.37 l 2,0,0
 1071.37 161.12 1071.37 161.12 1073.205 101.445 c 0,0,0
 1075.04 41.77 1075.04 41.77 1078.71 0 c 1,0,0
 843.05 0 l 1,0,0
 838.7 49.89 838.7 49.89 835.865 99.93 c 0,0,0
 833.03 149.97 833.03 149.97 832.37 205.1 c 1,0,0
 828.03 205.1 l 1,0,0
EndSplineSet
EndChar

StartChar: v
Encoding: 118 118 89
Width: 1101
GlyphClass: 2
Flags: W
LayerCount: 2
Fore
SplineSet
1092.71 1082 m 1,0,0
 692.06 0 l 1,0,0
 396.65 0 l 1,0,0
 7.67 1082 l 1,0,0
 270.02 1082 l 1,0,0
 475.19 444.33 l 2,0,0
 482.86 420.98 482.86 420.98 500.195 359.47 c 0,0,0
 517.53 297.96 517.53 297.96 545.53 198.62 c 1,0,0
 552.5 220.87 552.5 220.87 565 263.035 c 0,0,0
 577.5 305.2 577.5 305.2 591.675 351.9 c 0,0,0
 605.85 398.6 605.85 398.6 616.85 431.61 c 2,0,0
 832.7 1082 l 1,0,0
 1092.71 1082 l 1,0,0
EndSplineSet
EndChar

StartChar: w
Encoding: 119 119 90
Width: 1555
GlyphClass: 2
Flags: W
LayerCount: 2
Fore
SplineSet
731.47 693.31 m 2,0,0
 550.21 0 l 1,0,0
 282.58 0 l 1,0,0
 -5.01 1082 l 1,0,0
 230.61 1082 l 1,0,0
 384.45 406.03 l 2,0,0
 393.79 364.65 393.79 364.65 404.12 316.99 c 0,0,0
 424.45 220.02 l 1,0,0
 434.78 267.69 434.78 267.69 443.935 315.36 c 0,0,0
 453.09 363.03 453.09 363.03 465.76 409.7 c 2,0,0
 644.67 1082 l 1,0,0
 910.03 1082 l 1,0,0
 1083.62 410.69 l 2,0,0
 1092.27 377.76 1092.27 377.76 1103.1 330.095 c 0,0,0
 1113.93 282.43 1113.93 282.43 1126.27 220.02 c 1,0,0
 1137.27 268.02 1137.27 268.02 1148.1 317.17 c 0,0,0
 1158.93 366.32 1158.93 366.32 1168.93 411.68 c 2,0,0
 1327.43 1082 l 1,0,0
 1559.71 1082 l 1,0,0
 1267.13 0 l 1,0,0
 999.17 0 l 1,0,0
 821.56 694.65 l 2,0,0
 814.24 723.92 814.24 723.92 803.395 775.13 c 0,0,0
 792.55 826.34 792.55 826.34 778.19 899.16 c 1,0,0
 768.16 854.38 768.16 854.38 756.655 799.535 c 0,0,0
 745.15 744.69 745.15 744.69 731.47 693.31 c 2,0,0
EndSplineSet
EndChar

StartChar: x
Encoding: 120 120 91
Width: 1101
GlyphClass: 2
Flags: W
LayerCount: 2
Fore
SplineSet
548.19 409.16 m 1,0,0
 281.32 0 l 1,0,0
 16.97 0 l 1,0,0
 409.34 558.01 l 1,0,0
 35.64 1082 l 1,0,0
 304.32 1082 l 1,0,0
 548.19 705.89 l 1,0,0
 790.73 1082 l 1,0,0
 1061.41 1082 l 1,0,0
 687.71 560.68 l 1,0,0
 1083.74 0 l 1,0,0
 813.06 0 l 1,0,0
 548.19 409.16 l 1,0,0
EndSplineSet
EndChar

StartChar: y
Encoding: 121 121 92
Width: 1101
GlyphClass: 2
Flags: W
LayerCount: 2
Fore
SplineSet
252.64 -425 m 0,0,0
 159.87 -425 159.87 -425 93.13 -412.66 c 1,0,0
 93.13 -234.11 l 1,0,0
 143.19 -241.45 143.19 -241.45 185.84 -241.45 c 0,0,0
 279.22 -241.45 279.22 -241.45 335.31 -185.315 c 0,0,0
 391.4 -129.18 391.4 -129.18 440.7 9.02 c 1,0,0
 12.37 1082 l 1,0,0
 274.72 1082 l 1,0,0
 463.86 544.97 l 2,0,0
 485.51 487 485.51 487 511.665 404.66 c 0,0,0
 537.82 322.32 537.82 322.32 563.87 226.15 c 1,0,0
 587.53 311.22 587.53 311.22 610.015 386.58 c 0,0,0
 632.5 461.94 632.5 461.94 657.17 539.98 c 2,0,0
 832.68 1082 l 1,0,0
 1092.36 1082 l 1,0,0
 668.32 -38.19 l 2,0,0
 639.68 -112.8 639.68 -112.8 610.02 -169.595 c 0,0,0
 580.36 -226.39 580.36 -226.39 550.69 -267.72 c 0,0,0
 490.68 -351.38 490.68 -351.38 419.175 -388.19 c 0,0,0
 347.67 -425 347.67 -425 252.64 -425 c 0,0,0
EndSplineSet
EndChar

StartChar: z
Encoding: 122 122 93
Width: 1024
GlyphClass: 2
Flags: W
LayerCount: 2
Fore
SplineSet
940.76 183.22 m 1,0,0
 940.76 0 l 1,0,0
 82.33 0 l 1,0,0
 82.33 178.54 l 1,0,0
 623.01 900.12 l 1,0,0
 121.02 900.12 l 1,0,0
 121.02 1082 l 1,0,0
 901 1082 l 1,0,0
 901 902.12 l 1,0,0
 362 183.22 l 1,0,0
 940.76 183.22 l 1,0,0
EndSplineSet
EndChar

StartChar: braceleft
Encoding: 123 123 94
Width: 759
GlyphClass: 2
Flags: W
LayerCount: 2
Fore
SplineSet
542.48 -425 m 2,0,0
 410.79 -425 410.79 -425 334.25 -346.995 c 0,0,0
 257.71 -268.99 257.71 -268.99 257.71 -127.98 c 2,0,0
 257.71 210.91 l 2,0,0
 257.71 325.9 257.71 325.9 203.535 382.73 c 0,0,0
 149.36 439.56 149.36 439.56 33.33 442.55 c 1,0,0
 33.33 615.11 l 1,0,0
 150.37 619.78 150.37 619.78 204.04 676.61 c 0,0,0
 257.71 733.44 257.71 733.44 257.71 847.76 c 2,0,0
 257.71 1186.98 l 2,0,0
 257.71 1331.33 257.71 1331.33 332.25 1407.665 c 0,0,0
 406.79 1484 406.79 1484 542.48 1484 c 2,0,0
 719.02 1484 l 1,0,0
 719.02 1314.13 l 1,0,0
 659.37 1314.13 l 2,0,0
 568.37 1314.13 568.37 1314.13 528.53 1261.635 c 0,0,0
 488.69 1209.14 488.69 1209.14 488.69 1103.15 c 2,0,0
 488.69 784 l 2,0,0
 488.69 689.33 488.69 689.33 432.675 620.495 c 0,0,0
 376.66 551.66 376.66 551.66 285.98 532 c 1,0,0
 285.98 528.66 l 1,0,0
 379 506.99 379 506.99 433.845 438.655 c 0,0,0
 488.69 370.32 488.69 370.32 488.69 276 c 2,0,0
 488.69 -43.48 l 2,0,0
 488.69 -149.48 488.69 -149.48 528.53 -201.97 c 0,0,0
 568.37 -254.46 568.37 -254.46 659.37 -254.46 c 2,0,0
 719.02 -254.46 l 1,0,0
 719.02 -425 l 1,0,0
 542.48 -425 l 2,0,0
EndSplineSet
EndChar

StartChar: bar
Encoding: 124 124 95
Width: 559
GlyphClass: 2
Flags: W
LayerCount: 2
Fore
SplineSet
395.23 1484 m 1,0,0
 395.23 -448.07 l 1,0,0
 164.91 -448.07 l 1,0,0
 164.91 1484 l 1,0,0
 395.23 1484 l 1,0,0
EndSplineSet
EndChar

StartChar: braceright
Encoding: 125 125 96
Width: 759
GlyphClass: 2
Flags: W
LayerCount: 2
Fore
SplineSet
40.03 -254.46 m 1,0,0
 98.02 -254.46 l 2,0,0
 190.36 -254.46 190.36 -254.46 229.86 -201.97 c 0,0,0
 269.36 -149.48 269.36 -149.48 269.36 -43.48 c 2,0,0
 269.36 276 l 2,0,0
 269.36 369.98 269.36 369.98 324.375 438.65 c 0,0,0
 379.39 507.32 379.39 507.32 471.74 528.66 c 1,0,0
 471.74 532 l 1,0,0
 382.39 551.33 382.39 551.33 325.875 619.5 c 0,0,0
 269.36 687.67 269.36 687.67 269.36 784 c 2,0,0
 269.36 1103.15 l 2,0,0
 269.36 1209.14 269.36 1209.14 229.86 1261.635 c 0,0,0
 190.36 1314.13 190.36 1314.13 98.02 1314.13 c 2,0,0
 40.03 1314.13 l 1,0,0
 40.03 1484 l 1,0,0
 215.58 1484 l 2,0,0
 351.27 1484 351.27 1484 425.81 1407.665 c 0,0,0
 500.35 1331.33 500.35 1331.33 500.35 1186.98 c 2,0,0
 500.35 847.76 l 2,0,0
 500.35 734.44 500.35 734.44 554.69 677.11 c 0,0,0
 609.03 619.78 609.03 619.78 726.73 615.11 c 1,0,0
 726.73 442.55 l 1,0,0
 608.7 439.89 608.7 439.89 554.525 381.89 c 0,0,0
 500.35 323.89 500.35 323.89 500.35 210.91 c 2,0,0
 500.35 -127.98 l 2,0,0
 500.35 -267.99 500.35 -267.99 424.145 -346.495 c 0,0,0
 347.94 -425 347.94 -425 215.58 -425 c 2,0,0
 40.03 -425 l 1,0,0
 40.03 -254.46 l 1,0,0
EndSplineSet
EndChar

StartChar: asciitilde
Encoding: 126 126 97
Width: 1196
GlyphClass: 2
Flags: W
LayerCount: 2
Fore
SplineSet
849.36 528.21 m 0,0,0
 776.34 528.21 776.34 528.21 703.84 549.54 c 0,0,0
 631.34 570.87 631.34 570.87 557 596.87 c 0,0,0
 423.31 643.21 423.31 643.21 337.32 643.21 c 0,0,0
 267.64 643.21 267.64 643.21 208.635 622.04 c 0,0,0
 149.63 600.87 149.63 600.87 84.63 555.21 c 1,0,0
 84.63 745.11 l 1,0,0
 196.97 829.11 196.97 829.11 352.99 829.11 c 0,0,0
 440.49 829.11 440.49 829.11 553.41 793.33 c 0,0,0
 608.19 775.61 608.19 775.61 654.515 761.11 c 0,0,0
 700.84 746.61 700.84 746.61 739.04 735 c 0,0,0
 766.02 727.02 766.02 727.02 801.9 719.565 c 0,0,0
 837.78 712.11 837.78 712.11 867.37 712.11 c 0,0,0
 999.05 712.11 999.05 712.11 1114.05 804.11 c 1,0,0
 1114.05 608.21 l 1,0,0
 1052.03 564.87 1052.03 564.87 993.53 546.54 c 0,0,0
 935.03 528.21 935.03 528.21 849.36 528.21 c 0,0,0
EndSplineSet
EndChar

StartChar: exclamdown
Encoding: 161 161 99
Width: 682
GlyphClass: 2
Flags: W
LayerCount: 2
Fore
SplineSet
472.16 1082 m 1,0,0
 472.16 834.77 l 1,0,0
 215.18 834.77 l 1,0,0
 215.18 1082 l 1,0,0
 472.16 1082 l 1,0,0
209.84 -327 m 1,0,0
 239.2 664.23 l 1,0,0
 442.14 664.23 l 1,0,0
 471.5 -327 l 1,0,0
 209.84 -327 l 1,0,0
EndSplineSet
EndChar

StartChar: cent
Encoding: 162 162 100
Width: 1139
GlyphClass: 2
Flags: W
LayerCount: 2
Fore
SplineSet
590.64 319.21 m 0,0,0
 681.28 319.21 681.28 319.21 742.43 372.885 c 0,0,0
 803.58 426.56 803.58 426.56 817.91 529.2 c 1,0,0
 1067.58 517.2 l 1,0,0
 1046.57 367.17 1046.57 367.17 940.18 269.135 c 0,0,0
 833.79 171.1 833.79 171.1 666.02 152.41 c 1,0,0
 666.02 -31 l 1,0,0
 516.56 -31 l 1,0,0
 516.56 151.07 l 1,0,0
 306.84 171.08 306.84 171.08 192.78 309.225 c 0,0,0
 78.72 447.37 78.72 447.37 78.72 689.63 c 0,0,0
 78.72 928.56 78.72 928.56 191.105 1070.385 c 0,0,0
 303.49 1212.21 303.49 1212.21 516.56 1234.57 c 1,0,0
 516.56 1409 l 1,0,0
 666.02 1409 l 1,0,0
 666.02 1234.57 l 1,0,0
 826.44 1216.89 826.44 1216.89 929.17 1126.855 c 0,0,0
 1031.9 1036.82 1031.9 1036.82 1059.57 889.78 c 1,0,0
 809.58 875.78 l 1,0,0
 794.91 966.45 794.91 966.45 738.58 1017.105 c 0,0,0
 682.25 1067.76 682.25 1067.76 588.64 1067.76 c 0,0,0
 458.37 1067.76 458.37 1067.76 394.37 974.77 c 0,0,0
 330.37 881.78 330.37 881.78 330.37 697.65 c 0,0,0
 330.37 509.79 330.37 509.79 397.365 414.5 c 0,0,0
 464.36 319.21 464.36 319.21 590.64 319.21 c 0,0,0
EndSplineSet
EndChar

StartChar: sterling
Encoding: 163 163 101
Width: 1139
GlyphClass: 2
Flags: W
LayerCount: 2
Fore
SplineSet
1060.72 0 m 1,0,0
 44.21 0 l 1,0,0
 44.21 188.17 l 1,0,0
 141.92 242.21 141.92 242.21 181.235 316.85 c 0,0,0
 220.55 391.49 220.55 391.49 220.55 501.77 c 2,0,0
 220.55 610.93 l 1,0,0
 33.21 610.93 l 1,0,0
 33.21 767.4 l 1,0,0
 213.85 767.4 l 1,0,0
 213.85 1025.96 l 2,0,0
 213.85 1224.98 213.85 1224.98 319.53 1327.49 c 0,0,0
 425.21 1430 425.21 1430 631.93 1430 c 0,0,0
 793.67 1430 793.67 1430 891.66 1363.805 c 0,0,0
 989.65 1297.61 989.65 1297.61 1030.35 1159.13 c 1,0,0
 816.82 1108.83 l 1,0,0
 795.82 1181.54 795.82 1181.54 750.035 1217.365 c 0,0,0
 704.25 1253.19 704.25 1253.19 636.6 1253.19 c 0,0,0
 538.01 1253.19 538.01 1253.19 492.73 1195.69 c 0,0,0
 447.45 1138.19 447.45 1138.19 447.45 1013.19 c 2,0,0
 447.45 767.4 l 1,0,0
 773.71 767.4 l 1,0,0
 773.71 610.93 l 1,0,0
 447.45 610.93 l 1,0,0
 447.45 509.05 l 2,0,0
 447.45 400.77 447.45 400.77 404.8 321.17 c 0,0,0
 362.15 241.57 362.15 241.57 269.74 190.52 c 1,0,0
 1060.72 190.52 l 1,0,0
 1060.72 0 l 1,0,0
EndSplineSet
EndChar

StartChar: currency
Encoding: 164 164 102
Width: 1139
GlyphClass: 2
Flags: W
LayerCount: 2
Fore
SplineSet
134.99 684 m 0,0,0
 134.99 810.61 134.99 810.61 200.93 915.23 c 1,0,0
 78.82 1037.34 l 1,0,0
 218.33 1175.85 l 1,0,0
 338.77 1053.41 l 1,0,0
 443.73 1120 443.73 1120 569.99 1120 c 0,0,0
 695.94 1120 695.94 1120 799.55 1054.07 c 1,0,0
 922.01 1176.53 l 1,0,0
 1062.19 1036.02 l 1,0,0
 939.39 913.89 l 1,0,0
 1005.99 808.62 1005.99 808.62 1005.99 684 c 0,0,0
 1005.99 558.4 1005.99 558.4 940.07 455.45 c 1,0,0
 1062.85 333.34 l 1,0,0
 923.33 191.49 l 1,0,0
 800.89 315.27 l 1,0,0
 695.6 250 695.6 250 569.99 250 c 0,0,0
 441.39 250 441.39 250 339.43 314.59 c 1,0,0
 214.33 188.15 l 1,0,0
 75.48 328.66 l 1,0,0
 199.59 454.11 l 1,0,0
 134.99 557.39 134.99 557.39 134.99 684 c 0,0,0
337.23 686 m 0,0,0
 337.23 622.07 337.23 622.07 368.695 569.29 c 0,0,0
 400.16 516.51 400.16 516.51 453.105 485.04 c 0,0,0
 506.05 453.57 506.05 453.57 569.99 453.57 c 0,0,0
 633.26 453.57 633.26 453.57 685.705 485.04 c 0,0,0
 738.15 516.51 738.15 516.51 769.95 569.625 c 0,0,0
 801.75 622.74 801.75 622.74 801.75 686 c 0,0,0
 801.75 750.6 801.75 750.6 770.285 803.21 c 0,0,0
 738.82 855.82 738.82 855.82 686.375 887.29 c 0,0,0
 633.93 918.76 633.93 918.76 569.99 918.76 c 0,0,0
 506.05 918.76 506.05 918.76 453.605 887.625 c 0,0,0
 401.16 856.49 401.16 856.49 369.195 803.71 c 0,0,0
 337.23 750.93 337.23 750.93 337.23 686 c 0,0,0
EndSplineSet
EndChar

StartChar: yen
Encoding: 165 165 103
Width: 1139
GlyphClass: 2
Flags: W
LayerCount: 2
Fore
SplineSet
688.82 258.11 m 1,0,0
 688.82 0 l 1,0,0
 447.84 0 l 1,0,0
 447.84 258.11 l 1,0,0
 96.99 258.11 l 1,0,0
 96.99 398.51 l 1,0,0
 447.84 398.51 l 1,0,0
 449.84 557.87 l 1,0,0
 96.99 557.87 l 1,0,0
 96.99 696.94 l 1,0,0
 387.51 696.94 l 1,0,0
 4.7 1409 l 1,0,0
 264 1409 l 1,0,0
 567.33 796.17 l 1,0,0
 874.66 1409 l 1,0,0
 1133.96 1409 l 1,0,0
 750.82 696.94 l 1,0,0
 1041.67 696.94 l 1,0,0
 1041.67 557.87 l 1,0,0
 688.82 557.87 l 1,0,0
 688.82 398.51 l 1,0,0
 1041.67 398.51 l 1,0,0
 1041.67 258.11 l 1,0,0
 688.82 258.11 l 1,0,0
EndSplineSet
EndChar

StartChar: brokenbar
Encoding: 166 166 104
Width: 559
GlyphClass: 2
Flags: W
LayerCount: 2
Fore
SplineSet
395.23 1463.9 m 1,0,0
 395.23 685.9 l 1,0,0
 164.91 685.9 l 1,0,0
 164.91 1463.9 l 1,0,0
 395.23 1463.9 l 1,0,0
395.23 330.93 m 1,0,0
 395.23 -448.07 l 1,0,0
 164.91 -448.07 l 1,0,0
 164.91 330.93 l 1,0,0
 395.23 330.93 l 1,0,0
EndSplineSet
EndChar

StartChar: section
Encoding: 167 167 105
Width: 1139
GlyphClass: 2
Flags: W
LayerCount: 2
Fore
SplineSet
579.29 1445.81 m 0,0,0
 766.36 1445.81 766.36 1445.81 880.23 1376.63 c 0,0,0
 994.1 1307.45 994.1 1307.45 1021.1 1176.43 c 1,0,0
 807.84 1153.08 l 1,0,0
 794.84 1219.37 794.84 1219.37 735.86 1254.19 c 0,0,0
 676.88 1289.01 676.88 1289.01 579.29 1289.01 c 0,0,0
 463 1289.01 463 1289.01 406.54 1256.21 c 0,0,0
 350.08 1223.41 350.08 1223.41 350.08 1156.43 c 0,0,0
 350.08 1113.12 350.08 1113.12 378.57 1082.475 c 0,0,0
 407.06 1051.83 407.06 1051.83 458.04 1029.18 c 0,0,0
 510.35 1005.86 510.35 1005.86 639.69 976.2 c 0,0,0
 796.76 940.19 796.76 940.19 880.77 898.19 c 0,0,0
 960.11 856.86 960.11 856.86 1002.775 796.52 c 0,0,0
 1045.44 736.18 1045.44 736.18 1045.44 651.16 c 0,0,0
 1045.44 556.18 1045.44 556.18 988.955 483.525 c 0,0,0
 932.47 410.87 932.47 410.87 841.18 384.86 c 1,0,0
 939.11 342.22 939.11 342.22 985.925 278.39 c 0,0,0
 1032.74 214.56 1032.74 214.56 1032.74 124.9 c 0,0,0
 1032.74 -35.83 1032.74 -35.83 910.54 -123.01 c 0,0,0
 788.34 -210.19 788.34 -210.19 562.93 -210.19 c 0,0,0
 344.55 -210.19 344.55 -210.19 227.68 -141.68 c 0,0,0
 110.81 -73.17 110.81 -73.17 73.46 72.53 c 1,0,0
 285.38 107.55 l 1,0,0
 305.38 24.25 305.38 24.25 369.025 -14.405 c 0,0,0
 432.67 -53.06 432.67 -53.06 562.93 -53.06 c 0,0,0
 689.55 -53.06 689.55 -53.06 755.685 -16.765 c 0,0,0
 821.82 19.53 821.82 19.53 821.82 100.19 c 0,0,0
 821.82 151.16 821.82 151.16 795.015 184.3 c 0,0,0
 768.21 217.44 768.21 217.44 713.58 241.75 c 0,0,0
 658.61 266.73 658.61 266.73 484.5 307.75 c 0,0,0
 282.46 355.43 282.46 355.43 196.96 433.43 c 0,0,0
 111.46 511.43 111.46 511.43 111.46 623.43 c 0,0,0
 111.46 715.11 111.46 715.11 168.605 782.41 c 0,0,0
 225.75 849.71 225.75 849.71 329.41 883.06 c 1,0,0
 237.43 919.08 237.43 919.08 186.285 986.75 c 0,0,0
 135.14 1054.42 135.14 1054.42 135.14 1139.08 c 0,0,0
 135.14 1284.78 135.14 1284.78 248.68 1365.295 c 0,0,0
 362.22 1445.81 362.22 1445.81 579.29 1445.81 c 0,0,0
833.84 620.79 m 0,0,0
 833.84 692.12 833.84 692.12 771.54 734.74 c 0,0,0
 707.57 777.69 707.57 777.69 534.25 813 c 1,0,0
 433.29 803.65 433.29 803.65 379.845 760.365 c 0,0,0
 326.4 717.08 326.4 717.08 326.4 645.81 c 0,0,0
 326.4 602.17 326.4 602.17 354.39 571.7 c 0,0,0
 382.38 541.23 382.38 541.23 434.03 518.25 c 0,0,0
 484 495.94 484 495.94 619.37 463.61 c 1,0,0
 724.3 467.62 724.3 467.62 779.07 508.07 c 0,0,0
 833.84 548.52 833.84 548.52 833.84 620.79 c 0,0,0
EndSplineSet
EndChar

StartChar: dieresis
Encoding: 168 168 106
Width: 682
GlyphClass: 2
Flags: W
LayerCount: 2
Fore
SplineSet
645.55 1413.05 m 1,0,0
 645.55 1205.6 l 1,0,0
 446.37 1205.6 l 1,0,0
 446.37 1413.05 l 1,0,0
 645.55 1413.05 l 1,0,0
223.4 1413.05 m 1,0,0
 223.4 1205.6 l 1,0,0
 25.57 1205.6 l 1,0,0
 25.57 1413.05 l 1,0,0
 223.4 1413.05 l 1,0,0
EndSplineSet
EndChar

StartChar: copyright
Encoding: 169 169 107
Width: 1509
GlyphClass: 2
Flags: W
LayerCount: 2
Fore
SplineSet
1477.67 707 m 0,0,0
 1477.67 514 1477.67 514 1381.67 346 c 0,0,0
 1284.67 177 1284.67 177 1116.17 80.5 c 0,0,0
 947.67 -16 947.67 -16 754.67 -16 c 0,0,0
 558.67 -16 558.67 -16 388.67 85 c 0,0,0
 219.67 186 219.67 186 125.67 352 c 0,0,0
 31.67 518 31.67 518 31.67 707 c 0,0,0
 31.67 901 31.67 901 128.67 1068 c 0,0,0
 225.67 1236 225.67 1236 393.67 1333 c 0,0,0
 561.67 1430 561.67 1430 754.67 1430 c 0,0,0
 948.67 1430 948.67 1430 1117.67 1333 c 0,0,0
 1285.67 1236 1285.67 1236 1381.67 1068.5 c 0,0,0
 1477.67 901 1477.67 901 1477.67 707 c 0,0,0
1372.27 707 m 0,0,0
 1372.27 872.65 1372.27 872.65 1289.61 1014.3 c 0,0,0
 1206.95 1155.62 1206.95 1155.62 1063.465 1238.61 c 0,0,0
 919.98 1321.6 919.98 1321.6 754.67 1321.6 c 0,0,0
 594.04 1321.6 594.04 1321.6 452.06 1241.62 c 0,0,0
 310.08 1161.31 310.08 1161.31 225.075 1018.325 c 0,0,0
 140.07 875.34 140.07 875.34 140.07 707 c 0,0,0
 140.07 541.69 140.07 541.69 223.06 398.7 c 0,0,0
 305.05 255.38 305.05 255.38 447.035 172.72 c 0,0,0
 589.02 90.06 589.02 90.06 754.67 90.06 c 0,0,0
 920.32 90.06 920.32 90.06 1063.97 172.72 c 0,0,0
 1207.62 255.38 1207.62 255.38 1289.945 398.7 c 0,0,0
 1372.27 542.02 1372.27 542.02 1372.27 707 c 0,0,0
528.82 709 m 0,0,0
 528.82 567.4 528.82 567.4 591.78 489.605 c 0,0,0
 654.74 411.81 654.74 411.81 767.01 411.81 c 0,0,0
 911.61 411.81 911.61 411.81 975.22 559.1 c 1,0,0
 1120.37 516.06 l 1,0,0
 1061.05 392.38 1061.05 392.38 974.875 337.7 c 0,0,0
 888.7 283.02 888.7 283.02 767.01 283.02 c 0,0,0
 575.66 283.02 575.66 283.02 470.655 394.68 c 0,0,0
 365.65 506.34 365.65 506.34 365.65 709 c 0,0,0
 365.65 912 365.65 912 466.99 1019.485 c 0,0,0
 568.33 1126.97 568.33 1126.97 758.67 1126.97 c 0,0,0
 1012.72 1126.97 1012.72 1126.97 1107.38 904.57 c 1,0,0
 965.24 866.21 l 1,0,0
 937.26 929.85 937.26 929.85 885.625 963.85 c 0,0,0
 833.99 997.85 833.99 997.85 762.68 997.85 c 0,0,0
 647.74 997.85 647.74 997.85 588.28 924.385 c 0,0,0
 528.82 850.92 528.82 850.92 528.82 709 c 0,0,0
EndSplineSet
EndChar

StartChar: ordfeminine
Encoding: 170 170 108
Width: 758
GlyphClass: 2
Flags: W
LayerCount: 2
Fore
SplineSet
257.99 700.58 m 0,0,0
 157.36 700.58 157.36 700.58 98.045 754.895 c 0,0,0
 38.73 809.21 38.73 809.21 38.73 908.19 c 0,0,0
 38.73 1124.42 38.73 1124.42 331.97 1129.42 c 2,0,0
 489.2 1132.08 l 1,0,0
 489.2 1180.02 l 2,0,0
 489.2 1246.28 489.2 1246.28 460.23 1278.59 c 0,0,0
 431.26 1310.9 431.26 1310.9 369.69 1310.9 c 0,0,0
 313.41 1310.9 313.41 1310.9 281.285 1285.42 c 0,0,0
 249.16 1259.94 249.16 1259.94 242.84 1203.37 c 1,0,0
 66.37 1212.7 l 1,0,0
 83.71 1313.34 83.71 1313.34 162.54 1368.315 c 0,0,0
 241.37 1423.29 241.37 1423.29 368.36 1423.29 c 0,0,0
 508.67 1423.29 508.67 1423.29 583.5 1361.795 c 0,0,0
 658.33 1300.3 658.33 1300.3 658.33 1183.34 c 2,0,0
 658.33 922.91 l 2,0,0
 658.33 871.61 658.33 871.61 668.98 846.61 c 0,0,0
 679.63 821.61 679.63 821.61 713.29 822.28 c 0,0,0
 724.63 822.95 724.63 822.95 736.47 824.615 c 0,0,0
 748.31 826.28 748.31 826.28 760.31 828.27 c 1,0,0
 760.31 720.92 l 1,0,0
 701.59 704.57 701.59 704.57 653.19 704.57 c 0,0,0
 581.53 704.57 581.53 704.57 541.03 741.565 c 0,0,0
 500.53 778.56 500.53 778.56 495.86 840.88 c 1,0,0
 492.53 840.88 l 1,0,0
 420.2 700.58 420.2 700.58 257.99 700.58 c 0,0,0
318.43 824.98 m 0,0,0
 389 824.98 389 824.98 439.1 876.61 c 0,0,0
 489.2 928.24 489.2 928.24 489.2 997.86 c 2,0,0
 489.2 1037.4 l 1,0,0
 382.02 1034.74 l 2,0,0
 284.12 1030.75 284.12 1030.75 249.49 1003.78 c 0,0,0
 214.86 976.81 214.86 976.81 214.86 921.86 c 0,0,0
 214.86 824.98 214.86 824.98 318.43 824.98 c 0,0,0
EndSplineSet
EndChar

StartChar: guillemotleft
Encoding: 171 171 109
Width: 1139
GlyphClass: 2
Flags: W
LayerCount: 2
Fore
SplineSet
1049.97 174.02 m 1,0,0
 1049.97 141 l 1,0,0
 833.07 141 l 1,0,0
 550.01 503.32 l 1,0,0
 550.01 571.68 l 1,0,0
 833.07 940 l 1,0,0
 1047.97 940 l 1,0,0
 1047.97 904.98 l 1,0,0
 766.25 537 l 1,0,0
 1049.97 174.02 l 1,0,0
588 174.02 m 1,0,0
 588 141 l 1,0,0
 372.77 141 l 1,0,0
 89.03 503.32 l 1,0,0
 89.03 571.68 l 1,0,0
 372.77 940 l 1,0,0
 586 940 l 1,0,0
 586 904.98 l 1,0,0
 305.27 537 l 1,0,0
 588 174.02 l 1,0,0
EndSplineSet
EndChar

StartChar: logicalnot
Encoding: 172 172 110
Width: 1196
GlyphClass: 2
Flags: W
LayerCount: 2
Fore
SplineSet
1105.72 780.13 m 1,0,0
 1105.72 153.87 l 1,0,0
 907.79 153.87 l 1,0,0
 907.79 581.87 l 1,0,0
 89.28 581.87 l 1,0,0
 89.28 780.13 l 1,0,0
 1105.72 780.13 l 1,0,0
EndSplineSet
EndChar

StartChar: registered
Encoding: 174 174 111
Width: 1509
GlyphClass: 2
Flags: W
LayerCount: 2
Fore
SplineSet
1477.67 707 m 0,0,0
 1477.67 514 1477.67 514 1381.67 346 c 0,0,0
 1284.67 177 1284.67 177 1116.17 80.5 c 0,0,0
 947.67 -16 947.67 -16 754.67 -16 c 0,0,0
 558.67 -16 558.67 -16 388.67 85 c 0,0,0
 219.67 186 219.67 186 125.67 352 c 0,0,0
 31.67 518 31.67 518 31.67 707 c 0,0,0
 31.67 901 31.67 901 128.67 1068 c 0,0,0
 225.67 1236 225.67 1236 393.67 1333 c 0,0,0
 561.67 1430 561.67 1430 754.67 1430 c 0,0,0
 948.67 1430 948.67 1430 1117.67 1333 c 0,0,0
 1285.67 1236 1285.67 1236 1381.67 1068.5 c 0,0,0
 1477.67 901 1477.67 901 1477.67 707 c 0,0,0
1372.27 707 m 0,0,0
 1372.27 872.65 1372.27 872.65 1289.61 1014.3 c 0,0,0
 1206.95 1155.62 1206.95 1155.62 1063.465 1238.61 c 0,0,0
 919.98 1321.6 919.98 1321.6 754.67 1321.6 c 0,0,0
 594.04 1321.6 594.04 1321.6 452.06 1241.62 c 0,0,0
 310.08 1161.31 310.08 1161.31 225.075 1018.325 c 0,0,0
 140.07 875.34 140.07 875.34 140.07 707 c 0,0,0
 140.07 541.69 140.07 541.69 223.06 398.7 c 0,0,0
 305.05 255.38 305.05 255.38 447.035 172.72 c 0,0,0
 589.02 90.06 589.02 90.06 754.67 90.06 c 0,0,0
 920.32 90.06 920.32 90.06 1063.97 172.72 c 0,0,0
 1207.62 255.38 1207.62 255.38 1289.945 398.7 c 0,0,0
 1372.27 542.02 1372.27 542.02 1372.27 707 c 0,0,0
617.11 614.95 m 1,0,0
 617.11 294.36 l 1,0,0
 455.94 294.36 l 1,0,0
 455.94 1114.64 l 1,0,0
 778.35 1114.64 l 2,0,0
 927.72 1114.64 927.72 1114.64 1003.555 1050.635 c 0,0,0
 1079.39 986.63 1079.39 986.63 1079.39 874.29 c 0,0,0
 1079.39 777.65 1079.39 777.65 1030.07 717.825 c 0,0,0
 980.75 658 980.75 658 900.44 634.98 c 1,0,0
 1116.08 294.36 l 1,0,0
 933.56 294.36 l 1,0,0
 748.63 614.95 l 1,0,0
 617.11 614.95 l 1,0,0
916.88 872.29 m 0,0,0
 916.88 933.25 916.88 933.25 876.08 965.23 c 0,0,0
 835.28 997.21 835.28 997.21 762.32 997.21 c 2,0,0
 617.11 997.21 l 1,0,0
 617.11 733.06 l 1,0,0
 773.65 733.06 l 2,0,0
 844.27 733.06 844.27 733.06 880.575 770.87 c 0,0,0
 916.88 808.68 916.88 808.68 916.88 872.29 c 0,0,0
EndSplineSet
EndChar

StartChar: macron
Encoding: 175 175 112
Width: 1131
GlyphClass: 2
Flags: W
LayerCount: 2
Fore
SplineSet
1148 1546 m 1,0,0
 1148 1452 l 1,0,0
 -17 1452 l 1,0,0
 -17 1546 l 1,0,0
 1148 1546 l 1,0,0
EndSplineSet
EndChar

StartChar: degree
Encoding: 176 176 113
Width: 819
GlyphClass: 2
Flags: W
LayerCount: 2
Fore
SplineSet
719.45 1123.56 m 0,0,0
 719.45 1039.87 719.45 1039.87 677.77 969.845 c 0,0,0
 636.09 899.82 636.09 899.82 566.065 858.135 c 0,0,0
 496.04 816.45 496.04 816.45 409.67 816.45 c 0,0,0
 324.97 816.45 324.97 816.45 254.78 857.46 c 0,0,0
 184.59 898.47 184.59 898.47 142.575 967.66 c 0,0,0
 100.56 1036.85 100.56 1036.85 100.56 1121.55 c 0,0,0
 100.56 1205.58 100.56 1205.58 142.075 1274.935 c 0,0,0
 183.59 1344.29 183.59 1344.29 253.95 1385.47 c 0,0,0
 324.31 1426.65 324.31 1426.65 409.67 1426.65 c 0,0,0
 496.37 1426.65 496.37 1426.65 566.395 1385.97 c 0,0,0
 636.42 1345.29 636.42 1345.29 677.935 1276.77 c 0,0,0
 719.45 1208.25 719.45 1208.25 719.45 1123.56 c 0,0,0
577.62 1121.55 m 0,0,0
 577.62 1193.53 577.62 1193.53 529.47 1242.85 c 0,0,0
 481.32 1292.17 481.32 1292.17 409.67 1292.17 c 0,0,0
 337.35 1292.17 337.35 1292.17 288.53 1242.185 c 0,0,0
 239.71 1192.2 239.71 1192.2 239.71 1121.55 c 0,0,0
 239.71 1050.9 239.71 1050.9 289.865 1000.245 c 0,0,0
 340.02 949.59 340.02 949.59 409.67 949.59 c 0,0,0
 478.98 949.59 478.98 949.59 528.3 999.745 c 0,0,0
 577.62 1049.9 577.62 1049.9 577.62 1121.55 c 0,0,0
EndSplineSet
EndChar

StartChar: plusminus
Encoding: 177 177 114
Width: 1124
GlyphClass: 2
Flags: W
LayerCount: 2
Fore
SplineSet
661.46 698.09 m 1,0,0
 661.46 339.27 l 1,0,0
 462.87 339.27 l 1,0,0
 462.87 698.09 l 1,0,0
 54.28 698.09 l 1,0,0
 54.28 895.35 l 1,0,0
 462.87 895.35 l 1,0,0
 462.87 1253.17 l 1,0,0
 661.46 1253.17 l 1,0,0
 661.46 895.35 l 1,0,0
 1070.72 895.35 l 1,0,0
 1070.72 698.09 l 1,0,0
 661.46 698.09 l 1,0,0
1070.72 197.26 m 1,0,0
 1070.72 0 l 1,0,0
 54.28 0 l 1,0,0
 54.28 197.26 l 1,0,0
 1070.72 197.26 l 1,0,0
EndSplineSet
EndChar

StartChar: uni00B2
Encoding: 178 178 115
Width: 682
GlyphClass: 2
Flags: W
LayerCount: 2
Fore
SplineSet
640.32 780.52 m 1,0,0
 640.32 650.77 l 1,0,0
 49.7 650.77 l 1,0,0
 47.7 765.83 l 1,0,0
 77.36 829.47 77.36 829.47 134.155 886.26 c 0,0,0
 190.95 943.05 190.95 943.05 287.23 1007 c 0,0,0
 376.86 1066.96 376.86 1066.96 413.155 1109.56 c 0,0,0
 449.45 1152.16 449.45 1152.16 449.45 1198.1 c 0,0,0
 449.45 1249.38 449.45 1249.38 424.335 1276.83 c 0,0,0
 399.22 1304.28 399.22 1304.28 347.33 1304.28 c 0,0,0
 296.08 1304.28 296.08 1304.28 265.815 1275.82 c 0,0,0
 235.55 1247.36 235.55 1247.36 229.56 1192.09 c 1,0,0
 55.69 1198.08 l 1,0,0
 68.69 1299.72 68.69 1299.72 146.175 1362.035 c 0,0,0
 223.66 1424.35 223.66 1424.35 349.31 1424.35 c 0,0,0
 478.99 1424.35 478.99 1424.35 553.155 1366.87 c 0,0,0
 627.32 1309.39 627.32 1309.39 627.32 1206.76 c 0,0,0
 627.32 1074.5 627.32 1074.5 462.77 963.3 c 0,0,0
 407.8 926.34 407.8 926.34 370.16 899.04 c 0,0,0
 332.52 871.74 332.52 871.74 311.54 853.43 c 0,0,0
 268.25 816.82 268.25 816.82 251.59 780.52 c 1,0,0
 640.32 780.52 l 1,0,0
EndSplineSet
EndChar

StartChar: uni00B3
Encoding: 179 179 116
Width: 682
GlyphClass: 2
Flags: W
LayerCount: 2
Fore
SplineSet
639.32 862 m 0,0,0
 639.32 757.39 639.32 757.39 563.495 698.75 c 0,0,0
 487.67 640.11 487.67 640.11 348.35 640.11 c 0,0,0
 210.71 640.11 210.71 640.11 131.545 693.76 c 0,0,0
 52.38 747.41 52.38 747.41 38.39 854.38 c 1,0,0
 209.9 866.71 l 1,0,0
 223.21 759.52 223.21 759.52 346.34 759.52 c 0,0,0
 467.48 759.52 467.48 759.52 467.48 872.68 c 0,0,0
 467.48 980.2 467.48 980.2 311.98 980.2 c 2,0,0
 254.33 980.2 l 1,0,0
 254.33 1100.59 l 1,0,0
 307.31 1100.59 l 2,0,0
 375.92 1100.59 375.92 1100.59 412.54 1128.215 c 0,0,0
 449.16 1155.84 449.16 1155.84 449.16 1206.1 c 0,0,0
 449.16 1252.03 449.16 1252.03 421.54 1278.155 c 0,0,0
 393.92 1304.28 393.92 1304.28 341.68 1304.28 c 0,0,0
 289.76 1304.28 289.76 1304.28 259.485 1277.655 c 0,0,0
 229.21 1251.03 229.21 1251.03 223.88 1200.1 c 1,0,0
 54.71 1212.1 l 1,0,0
 66.37 1311.05 66.37 1311.05 143.53 1367.7 c 0,0,0
 220.69 1424.35 220.69 1424.35 346.35 1424.35 c 0,0,0
 475.01 1424.35 475.01 1424.35 547.335 1370.21 c 0,0,0
 619.66 1316.07 619.66 1316.07 619.66 1226.78 c 0,0,0
 619.66 1159.15 619.66 1159.15 581.015 1110.515 c 0,0,0
 542.37 1061.88 542.37 1061.88 459.74 1044.56 c 1,0,0
 459.74 1042.56 l 1,0,0
 545.38 1033.56 545.38 1033.56 592.35 985.415 c 0,0,0
 639.32 937.27 639.32 937.27 639.32 862 c 0,0,0
EndSplineSet
EndChar

StartChar: acute
Encoding: 180 180 117
Width: 682
GlyphClass: 2
Flags: W
LayerCount: 2
Fore
SplineSet
563.67 1465.6 m 1,0,0
 226.97 1188.94 l 1,0,0
 82.05 1188.94 l 1,0,0
 82.05 1216.31 l 1,0,0
 322.5 1503.98 l 1,0,0
 563.67 1503.98 l 1,0,0
 563.67 1465.6 l 1,0,0
EndSplineSet
EndChar

StartChar: mu
Encoding: 181 181 118
Width: 1212
GlyphClass: 2
Flags: W
LayerCount: 2
Fore
SplineSet
135.98 -425.67 m 1,0,0
 135.98 1082 l 1,0,0
 383.98 1082 l 1,0,0
 383.98 450.27 l 2,0,0
 383.98 304.23 383.98 304.23 430.11 236.405 c 0,0,0
 476.24 168.58 476.24 168.58 575.81 168.58 c 0,0,0
 677.68 168.58 677.68 168.58 731.585 248.21 c 0,0,0
 785.49 327.84 785.49 327.84 785.49 487.83 c 2,0,0
 785.49 1082 l 1,0,0
 1033.16 1082 l 1,0,0
 1031.82 302.18 l 2,0,0
 1031.82 216.13 1031.82 216.13 1051.495 181.63 c 0,0,0
 1071.17 147.13 1071.17 147.13 1117.19 147.13 c 0,0,0
 1146.55 147.13 1146.55 147.13 1176.55 153.79 c 1,0,0
 1176.55 9.38 l 1,0,0
 1131.15 -2.63 1131.15 -2.63 1096.955 -8.635 c 0,0,0
 1062.76 -14.64 1062.76 -14.64 1018.66 -14.64 c 0,0,0
 917.61 -14.64 917.61 -14.64 868.1 30.685 c 0,0,0
 818.59 76.01 818.59 76.01 810.24 176.68 c 1,0,0
 805.23 176.68 l 1,0,0
 765.63 69.63 765.63 69.63 703.525 24.815 c 0,0,0
 641.42 -20 641.42 -20 556.48 -20 c 0,0,0
 499.53 -20 499.53 -20 454.41 2.845 c 0,0,0
 409.29 25.69 409.29 25.69 383.65 66.37 c 1,0,0
 383.65 -425.67 l 1,0,0
 135.98 -425.67 l 1,0,0
EndSplineSet
EndChar

StartChar: paragraph
Encoding: 182 182 119
Width: 1126
GlyphClass: 2
Flags: W
LayerCount: 2
Fore
SplineSet
577.78 1279.53 m 1,0,0
 577.78 -264 l 1,0,0
 436.64 -264 l 1,0,0
 436.64 694 l 1,0,0
 267.97 694 267.97 694 170.97 786.5 c 0,0,0
 73.97 879 73.97 879 73.97 1049 c 0,0,0
 73.97 1218 73.97 1218 172.47 1313.5 c 0,0,0
 270.97 1409 270.97 1409 444.64 1409 c 2,0,0
 1051.86 1409 l 1,0,0
 1051.86 1279.53 l 1,0,0
 921.52 1279.53 l 1,0,0
 921.52 -264 l 1,0,0
 780.04 -264 l 1,0,0
 780.04 1279.53 l 1,0,0
 577.78 1279.53 l 1,0,0
EndSplineSet
EndChar

StartChar: periodcentered
Encoding: 183 183 120
Width: 682
GlyphClass: 2
Flags: W
LayerCount: 2
Fore
SplineSet
431.97 779.9 m 1,0,0
 431.97 502.95 l 1,0,0
 174.66 502.95 l 1,0,0
 174.66 779.9 l 1,0,0
 431.97 779.9 l 1,0,0
EndSplineSet
EndChar

StartChar: cedilla
Encoding: 184 184 121
Width: 682
GlyphClass: 2
Flags: W
LayerCount: 2
Fore
SplineSet
494.39 -240.94 m 0,0,0
 494.39 -333.95 494.39 -333.95 419.525 -380.96 c 0,0,0
 344.66 -427.97 344.66 -427.97 200.96 -427.97 c 0,0,0
 150.68 -427.97 150.68 -427.97 103.59 -422.63 c 1,0,0
 103.59 -311.23 l 1,0,0
 141.53 -317.9 141.53 -317.9 188.25 -317.9 c 0,0,0
 328.55 -317.9 328.55 -317.9 328.55 -244.94 c 0,0,0
 328.55 -208.95 328.55 -208.95 298.9 -191.125 c 0,0,0
 269.25 -173.3 269.25 -173.3 202.92 -173.3 c 0,0,0
 182.93 -173.3 182.93 -173.3 169.6 -173.8 c 0,0,0
 156.27 -174.3 156.27 -174.3 149.27 -175.3 c 1,0,0
 212.26 0 l 1,0,0
 343.38 0 l 1,0,0
 308.4 -87.94 l 1,0,0
 402.4 -92.28 402.4 -92.28 448.395 -133.115 c 0,0,0
 494.39 -173.95 494.39 -173.95 494.39 -240.94 c 0,0,0
EndSplineSet
EndChar

StartChar: uni00B9
Encoding: 185 185 122
Width: 682
GlyphClass: 2
Flags: W
LayerCount: 2
Fore
SplineSet
624.27 767.15 m 1,0,0
 624.27 650.77 l 1,0,0
 81.34 650.77 l 1,0,0
 81.34 767.15 l 1,0,0
 274.25 767.15 l 1,0,0
 274.25 1285.31 l 1,0,0
 91.68 1167.41 l 1,0,0
 91.68 1288.75 l 1,0,0
 281.58 1412.35 l 1,0,0
 439.42 1412.35 l 1,0,0
 439.42 767.15 l 1,0,0
 624.27 767.15 l 1,0,0
EndSplineSet
EndChar

StartChar: ordmasculine
Encoding: 186 186 123
Width: 748
GlyphClass: 2
Flags: W
LayerCount: 2
Fore
SplineSet
716.3 1062.77 m 0,0,0
 716.3 892.19 716.3 892.19 627.295 796.385 c 0,0,0
 538.29 700.58 538.29 700.58 374.01 700.58 c 0,0,0
 216.73 700.58 216.73 700.58 127.895 795.385 c 0,0,0
 39.06 890.19 39.06 890.19 39.06 1062.77 c 0,0,0
 39.06 1233.68 39.06 1233.68 127.39 1328.485 c 0,0,0
 215.72 1423.29 215.72 1423.29 378.01 1423.29 c 0,0,0
 542.3 1423.29 542.3 1423.29 629.3 1331.485 c 0,0,0
 716.3 1239.68 716.3 1239.68 716.3 1062.77 c 0,0,0
533.13 1062.77 m 0,0,0
 533.13 1184.61 533.13 1184.61 498.35 1238.72 c 0,0,0
 463.57 1292.83 463.57 1292.83 380.34 1292.83 c 0,0,0
 295.79 1292.83 295.79 1292.83 258.835 1237.39 c 0,0,0
 221.88 1181.95 221.88 1181.95 221.88 1062.77 c 0,0,0
 221.88 943.9 221.88 943.9 258.335 886.465 c 0,0,0
 294.79 829.03 294.79 829.03 373.01 829.03 c 0,0,0
 459.89 829.03 459.89 829.03 496.51 885.635 c 0,0,0
 533.13 942.24 533.13 942.24 533.13 1062.77 c 0,0,0
EndSplineSet
EndChar

StartChar: guillemotright
Encoding: 187 187 124
Width: 1139
GlyphClass: 2
Flags: W
LayerCount: 2
Fore
SplineSet
766.24 141 m 1,0,0
 551.34 141 l 1,0,0
 551.34 174.02 l 1,0,0
 834.4 537 l 1,0,0
 553.34 904.98 l 1,0,0
 553.34 940 l 1,0,0
 766.24 940 l 1,0,0
 1050.64 571.68 l 1,0,0
 1050.64 503.32 l 1,0,0
 766.24 141 l 1,0,0
306.6 141 m 1,0,0
 89.7 141 l 1,0,0
 89.7 174.02 l 1,0,0
 372.76 537 l 1,0,0
 91.7 904.98 l 1,0,0
 91.7 940 l 1,0,0
 306.6 940 l 1,0,0
 588.67 571.68 l 1,0,0
 588.67 503.32 l 1,0,0
 306.6 141 l 1,0,0
EndSplineSet
EndChar

StartChar: questiondown
Encoding: 191 191 128
Width: 1251
GlyphClass: 2
Flags: W
LayerCount: 2
Fore
SplineSet
791.51 1082 m 1,0,0
 791.51 834.77 l 1,0,0
 533.53 834.77 l 1,0,0
 533.53 1082 l 1,0,0
 791.51 1082 l 1,0,0
119.61 54.02 m 0,0,0
 119.61 156.3 119.61 156.3 165.255 234.455 c 0,0,0
 210.9 312.61 210.9 312.61 329.9 398.27 c 2,0,0
 408.22 454.59 l 2,0,0
 542.52 552.57 542.52 552.57 546.87 672.17 c 1,0,0
 783.51 672.17 l 1,0,0
 780.17 596.25 780.17 596.25 752.865 536.765 c 0,0,0
 725.56 477.28 725.56 477.28 679.075 428.76 c 0,0,0
 632.59 380.24 632.59 380.24 570.55 336.88 c 0,0,0
 504.17 289.85 504.17 289.85 459.355 249.515 c 0,0,0
 414.54 209.18 414.54 209.18 391.91 165.39 c 0,0,0
 369.28 121.6 369.28 121.6 369.28 64.7 c 0,0,0
 369.28 -31.88 369.28 -31.88 433.38 -87.83 c 0,0,0
 497.48 -143.78 497.48 -143.78 614.7 -143.78 c 0,0,0
 728.57 -143.78 728.57 -143.78 801.525 -81.15 c 0,0,0
 874.48 -18.52 874.48 -18.52 887.14 86.73 c 1,0,0
 1138.81 74.73 l 1,0,0
 1112.14 -126.62 1112.14 -126.62 975.44 -237.31 c 0,0,0
 838.74 -348 838.74 -348 618.04 -348 c 0,0,0
 385.66 -348 385.66 -348 252.635 -241.16 c 0,0,0
 119.61 -134.32 119.61 -134.32 119.61 54.02 c 0,0,0
EndSplineSet
EndChar

StartChar: AE
Encoding: 198 198 135
Width: 2048
GlyphClass: 2
Flags: W
LayerCount: 2
Fore
SplineSet
461.2 377.16 m 1,0,0
 280.62 0 l 1,0,0
 10.6 0 l 1,0,0
 705.98 1409 l 1,0,0
 1924.36 1409 l 1,0,0
 1924.36 1205.43 l 1,0,0
 1204.22 1205.43 l 1,0,0
 1204.22 818.42 l 1,0,0
 1863.02 818.42 l 1,0,0
 1863.02 619.53 l 1,0,0
 1204.22 619.53 l 1,0,0
 1204.22 203.57 l 1,0,0
 1965.36 203.57 l 1,0,0
 1965.36 0 l 1,0,0
 943.54 0 l 1,0,0
 943.54 377.16 l 1,0,0
 461.2 377.16 l 1,0,0
552.64 575.07 m 1,0,0
 943.54 575.07 l 1,0,0
 943.54 1215.1 l 1,0,0
 852.84 1215.1 l 1,0,0
 552.64 575.07 l 1,0,0
EndSplineSet
EndChar

StartChar: Eth
Encoding: 208 208 145
Width: 1479
GlyphClass: 2
Flags: W
LayerCount: 2
Fore
SplineSet
1389.04 716.32 m 0,0,0
 1389.04 491.65 1389.04 491.65 1301.87 331.32 c 0,0,0
 1214.7 170.99 1214.7 170.99 1060.2 85.495 c 0,0,0
 905.7 0 905.7 0 703.04 0 c 2,0,0
 147.23 0 l 1,0,0
 147.23 611.49 l 1,0,0
 9.98 611.49 l 1,0,0
 9.98 809.04 l 1,0,0
 147.23 809.04 l 1,0,0
 147.23 1409 l 1,0,0
 642.71 1409 l 2,0,0
 999.37 1409 999.37 1409 1194.205 1229.5 c 0,0,0
 1389.04 1050 1389.04 1050 1389.04 716.32 c 0,0,0
1126.69 716.32 m 0,0,0
 1126.69 953.53 1126.69 953.53 1000.945 1078.635 c 0,0,0
 875.2 1203.74 875.2 1203.74 637.37 1203.74 c 2,0,0
 407.91 1203.74 l 1,0,0
 407.91 809.04 l 1,0,0
 780.41 809.04 l 1,0,0
 780.41 611.49 l 1,0,0
 407.91 611.49 l 1,0,0
 407.91 205.26 l 1,0,0
 679.03 205.26 l 2,0,0
 817.26 205.26 817.26 205.26 917.515 267.225 c 0,0,0
 1017.77 329.19 1017.77 329.19 1072.23 443.795 c 0,0,0
 1126.69 558.4 1126.69 558.4 1126.69 716.32 c 0,0,0
EndSplineSet
EndChar

StartChar: multiply
Encoding: 215 215 152
Width: 1196
GlyphClass: 2
Flags: W
LayerCount: 2
Fore
SplineSet
600 543.82 m 1,0,0
 244 186.81 l 1,0,0
 104.48 327.32 l 1,0,0
 459.82 684 l 1,0,0
 107.82 1036 l 1,0,0
 248 1174.51 l 1,0,0
 599.34 823.52 l 1,0,0
 950.68 1175.19 l 1,0,0
 1091.19 1034.68 l 1,0,0
 739.85 682.66 l 1,0,0
 1091.85 332 l 1,0,0
 952.33 190.15 l 1,0,0
 600 543.82 l 1,0,0
EndSplineSet
EndChar

StartChar: Oslash
Encoding: 216 216 153
Width: 1593
GlyphClass: 2
Flags: W
LayerCount: 2
Fore
SplineSet
1503.71 711 m 0,0,0
 1503.71 490.33 1503.71 490.33 1416.535 325.83 c 0,0,0
 1329.36 161.33 1329.36 161.33 1170.015 70.665 c 0,0,0
 1010.67 -20 1010.67 -20 793.66 -20 c 0,0,0
 570.78 -20 570.78 -20 415.84 68.55 c 1,0,0
 315.27 -65.73 l 1,0,0
 121.92 -66.4 l 1,0,0
 291.1 159.19 l 1,0,0
 88.29 353.87 88.29 353.87 88.29 711 c 0,0,0
 88.29 937 88.29 937 172.46 1097.835 c 0,0,0
 256.63 1258.67 256.63 1258.67 415.14 1344.335 c 0,0,0
 573.65 1430 573.65 1430 795.66 1430 c 0,0,0
 1009.16 1430 1009.16 1430 1169.46 1344.12 c 1,0,0
 1264.33 1470.69 l 1,0,0
 1457 1470.69 l 1,0,0
 1295.53 1254.82 l 1,0,0
 1398.95 1160.49 1398.95 1160.49 1451.33 1022.61 c 0,0,0
 1503.71 884.73 1503.71 884.73 1503.71 711 c 0,0,0
351.3 711 m 0,0,0
 351.3 498.75 351.3 498.75 440.91 363.82 c 1,0,0
 1035.35 1159.87 l 1,0,0
 933.46 1223.08 933.46 1223.08 795.66 1223.08 c 0,0,0
 583.14 1223.08 583.14 1223.08 467.22 1088.145 c 0,0,0
 351.3 953.21 351.3 953.21 351.3 711 c 0,0,0
1237.69 711 m 0,0,0
 1237.69 919.93 1237.69 919.93 1147.73 1051.53 c 1,0,0
 551.29 252.8 l 1,0,0
 652.19 185.92 652.19 185.92 793.66 185.92 c 0,0,0
 1007.51 185.92 1007.51 185.92 1122.6 323.02 c 0,0,0
 1237.69 460.12 1237.69 460.12 1237.69 711 c 0,0,0
EndSplineSet
EndChar

StartChar: Thorn
Encoding: 222 222 159
Width: 1366
GlyphClass: 2
Flags: W
LayerCount: 2
Fore
SplineSet
1283.46 736.34 m 0,0,0
 1283.46 605.32 1283.46 605.32 1222.615 503.975 c 0,0,0
 1161.77 402.63 1161.77 402.63 1048.75 345.125 c 0,0,0
 935.73 287.62 935.73 287.62 779.03 287.62 c 2,0,0
 407.91 287.62 l 1,0,0
 407.91 0 l 1,0,0
 147.23 0 l 1,0,0
 147.23 1409 l 1,0,0
 407.91 1409 l 1,0,0
 407.91 1169.73 l 1,0,0
 767.03 1169.73 l 2,0,0
 1016.08 1169.73 1016.08 1169.73 1149.77 1057.055 c 0,0,0
 1283.46 944.38 1283.46 944.38 1283.46 736.34 c 0,0,0
1021.11 732.34 m 0,0,0
 1021.11 850.26 1021.11 850.26 950.165 916.385 c 0,0,0
 879.22 982.51 879.22 982.51 737.33 982.51 c 2,0,0
 407.91 982.51 l 1,0,0
 407.91 474.18 l 1,0,0
 745.33 474.18 l 2,0,0
 876.89 474.18 876.89 474.18 949 542.3 c 0,0,0
 1021.11 610.42 1021.11 610.42 1021.11 732.34 c 0,0,0
EndSplineSet
EndChar

StartChar: germandbls
Encoding: 223 223 160
Width: 1251
GlyphClass: 2
Flags: W
LayerCount: 2
Fore
SplineSet
1184.42 306.39 m 0,0,0
 1184.42 148.35 1184.42 148.35 1086.065 64.175 c 0,0,0
 987.71 -20 987.71 -20 806.99 -20 c 0,0,0
 651.07 -20 651.07 -20 538.06 24.98 c 1,0,0
 537.4 217.12 l 1,0,0
 588.06 192.14 588.06 192.14 659.685 173.48 c 0,0,0
 731.31 154.82 731.31 154.82 785.57 154.82 c 0,0,0
 870.2 154.82 870.2 154.82 911.16 192.125 c 0,0,0
 952.12 229.43 952.12 229.43 952.12 293.69 c 0,0,0
 952.12 349.65 952.12 349.65 912.635 396.295 c 0,0,0
 873.15 442.94 873.15 442.94 778.83 502.95 c 0,0,0
 691.52 557.62 691.52 557.62 648.365 623.285 c 0,0,0
 605.21 688.95 605.21 688.95 605.21 768.25 c 0,0,0
 605.21 824.56 605.21 824.56 633.04 872.55 c 0,0,0
 660.87 920.54 660.87 920.54 716.88 968.89 c 0,0,0
 776.89 1020.91 776.89 1020.91 802.385 1061.905 c 0,0,0
 827.88 1102.9 827.88 1102.9 827.88 1149.55 c 0,0,0
 827.88 1218.51 827.88 1218.51 774.615 1259.985 c 0,0,0
 721.35 1301.46 721.35 1301.46 626.42 1301.46 c 0,0,0
 508.57 1301.46 508.57 1301.46 449.455 1232.515 c 0,0,0
 390.34 1163.57 390.34 1163.57 390.34 1015.64 c 2,0,0
 390.34 0 l 1,0,0
 142.67 0 l 1,0,0
 142.67 1013.6 l 2,0,0
 142.67 1245.29 142.67 1245.29 266.87 1364.645 c 0,0,0
 391.07 1484 391.07 1484 628.43 1484 c 0,0,0
 829.15 1484 829.15 1484 946.005 1397.135 c 0,0,0
 1062.86 1310.27 1062.86 1310.27 1062.86 1161.54 c 0,0,0
 1062.86 1083.17 1062.86 1083.17 1030.675 1025.69 c 0,0,0
 998.49 968.21 998.49 968.21 950.53 923.58 c 0,0,0
 916.63 892.67 916.63 892.67 891.12 868.845 c 0,0,0
 865.61 845.02 865.61 845.02 851.57 824.83 c 0,0,0
 837.53 804.64 837.53 804.64 837.53 784.97 c 0,0,0
 837.53 762.7 837.53 762.7 850.295 743.59 c 0,0,0
 863.06 724.48 863.06 724.48 900.37 695.815 c 0,0,0
 937.68 667.15 937.68 667.15 1011.14 613.71 c 0,0,0
 1184.42 489.71 1184.42 489.71 1184.42 306.39 c 0,0,0
EndSplineSet
EndChar

StartChar: ae
Encoding: 230 230 167
Width: 1821
GlyphClass: 2
Flags: W
LayerCount: 2
Fore
SplineSet
1713.73 261.46 m 1,0,0
 1604.67 -20 1604.67 -20 1255.31 -20 c 0,0,0
 941.68 -20 941.68 -20 824.94 218.24 c 1,0,0
 753.98 94.99 753.98 94.99 650.32 37.495 c 0,0,0
 546.66 -20 546.66 -20 404.68 -20 c 0,0,0
 241.7 -20 241.7 -20 153.85 66 c 0,0,0
 66 152 66 152 66 304.68 c 0,0,0
 66 643.64 66 643.64 519.2 653.32 c 2,0,0
 759.2 657.32 l 1,0,0
 759.2 713.64 l 2,0,0
 759.2 830.55 759.2 830.55 714.085 882.7 c 0,0,0
 668.97 934.85 668.97 934.85 570.08 934.85 c 0,0,0
 471.55 934.85 471.55 934.85 427.445 896.86 c 0,0,0
 383.34 858.87 383.34 858.87 373.02 775.58 c 1,0,0
 114.67 790.57 l 1,0,0
 139.68 943.94 139.68 943.94 255.705 1022.97 c 0,0,0
 371.73 1102 371.73 1102 576.76 1102 c 0,0,0
 804.65 1102 804.65 1102 915.04 984.44 c 1,0,0
 1041.75 1102 1041.75 1102 1255.68 1102 c 0,0,0
 1490.66 1102 1490.66 1102 1612.34 950.965 c 0,0,0
 1734.02 799.93 1734.02 799.93 1734.02 505.56 c 2,0,0
 1734.02 484.91 l 1,0,0
 1017.58 484.91 l 1,0,0
 1017.58 323.07 1017.58 323.07 1082.19 236.79 c 0,0,0
 1146.8 150.51 1146.8 150.51 1264.69 150.51 c 0,0,0
 1352.88 150.51 1352.88 150.51 1407.97 187.795 c 0,0,0
 1463.06 225.08 1463.06 225.08 1484.04 291.72 c 1,0,0
 1713.73 261.46 l 1,0,0
1490.4 655.74 m 1,0,0
 1480.09 799.94 1480.09 799.94 1419.48 869.73 c 0,0,0
 1358.87 939.52 1358.87 939.52 1252.01 939.52 c 0,0,0
 1143.77 939.52 1143.77 939.52 1083.67 865.075 c 0,0,0
 1023.57 790.63 1023.57 790.63 1019.58 655.74 c 1,0,0
 1490.4 655.74 l 1,0,0
323.36 318.43 m 0,0,0
 323.36 238.13 323.36 238.13 364.985 197 c 0,0,0
 406.61 155.87 406.61 155.87 478.84 155.87 c 0,0,0
 559.06 155.87 559.06 155.87 623 196.85 c 0,0,0
 687.27 237.5 687.27 237.5 723.235 306.625 c 0,0,0
 759.2 375.75 759.2 375.75 759.2 452.37 c 2,0,0
 759.2 511.89 l 1,0,0
 593.01 509.23 l 2,0,0
 480.77 505.56 480.77 505.56 427.53 485.59 c 0,0,0
 375.62 464.62 375.62 464.62 349.49 423.835 c 0,0,0
 323.36 383.05 323.36 383.05 323.36 318.43 c 0,0,0
EndSplineSet
EndChar

StartChar: eth
Encoding: 240 240 177
Width: 1214
GlyphClass: 2
Flags: W
LayerCount: 2
Fore
SplineSet
604.19 -18.66 m 0,0,0
 359.46 -18.66 359.46 -18.66 220.72 113.02 c 0,0,0
 81.98 244.7 81.98 244.7 81.98 479.66 c 0,0,0
 81.98 715.62 81.98 715.62 219.715 845.3 c 0,0,0
 357.45 974.98 357.45 974.98 609.18 974.98 c 0,0,0
 723.74 974.98 723.74 974.98 794.62 934.07 c 1,0,0
 715.77 1096.13 715.77 1096.13 616.9 1200.75 c 1,0,0
 321.93 1075.12 l 1,0,0
 321.93 1236.02 l 1,0,0
 505.09 1313.94 l 1,0,0
 457.46 1351.91 457.46 1351.91 394.445 1394.76 c 0,0,0
 331.43 1437.61 331.43 1437.61 252.37 1484 c 1,0,0
 517.65 1484 l 1,0,0
 609.37 1439.63 609.37 1439.63 680.95 1387.36 c 1,0,0
 961.49 1506.63 l 1,0,0
 961.16 1343.71 l 1,0,0
 810.46 1280.52 l 1,0,0
 972.75 1121.84 972.75 1121.84 1054.055 933.58 c 0,0,0
 1135.36 745.32 1135.36 745.32 1135.36 532.75 c 0,0,0
 1135.36 268.42 1135.36 268.42 997.46 124.88 c 0,0,0
 859.56 -18.66 859.56 -18.66 604.19 -18.66 c 0,0,0
876.01 478.32 m 0,0,0
 876.01 648.88 876.01 648.88 810.535 725.33 c 0,0,0
 745.06 801.78 745.06 801.78 613.18 801.78 c 0,0,0
 475.61 801.78 475.61 801.78 408.805 722.485 c 0,0,0
 342 643.19 342 643.19 342 478.32 c 0,0,0
 342 316.46 342 316.46 407.3 234.495 c 0,0,0
 472.6 152.53 472.6 152.53 600.18 152.53 c 0,0,0
 737.06 152.53 737.06 152.53 806.535 229.645 c 0,0,0
 876.01 306.76 876.01 306.76 876.01 478.32 c 0,0,0
EndSplineSet
EndChar

StartChar: divide
Encoding: 247 247 184
Width: 1124
GlyphClass: 2
Flags: W
LayerCount: 2
Fore
SplineSet
668.78 1176.51 m 1,0,0
 668.78 960.01 l 1,0,0
 453.88 960.01 l 1,0,0
 453.88 1176.51 l 1,0,0
 668.78 1176.51 l 1,0,0
1070.72 780.13 m 1,0,0
 1070.72 581.87 l 1,0,0
 54.28 581.87 l 1,0,0
 54.28 780.13 l 1,0,0
 1070.72 780.13 l 1,0,0
668.78 403.99 m 1,0,0
 668.78 187.49 l 1,0,0
 453.88 187.49 l 1,0,0
 453.88 403.99 l 1,0,0
 668.78 403.99 l 1,0,0
EndSplineSet
EndChar

StartChar: oslash
Encoding: 248 248 185
Width: 1251
GlyphClass: 2
Flags: W
LayerCount: 2
Fore
SplineSet
1151.53 542 m 0,0,0
 1151.53 272.07 1151.53 272.07 1012.46 126.035 c 0,0,0
 873.39 -20 873.39 -20 621.99 -20 c 0,0,0
 430 -20 430 -20 301.62 71.97 c 1,0,0
 192.91 -49.39 l 1,0,0
 15.19 -49.39 l 1,0,0
 207.9 165.28 l 1,0,0
 101.45 308.3 101.45 308.3 101.45 542 c 0,0,0
 101.45 809.27 101.45 809.27 238.025 955.635 c 0,0,0
 374.6 1102 374.6 1102 627.99 1102 c 0,0,0
 827.65 1102 827.65 1102 953.37 1016.36 c 1,0,0
 1051.07 1127.39 l 1,0,0
 1229.46 1127.39 l 1,0,0
 1049.09 923.04 l 1,0,0
 1151.53 783.34 1151.53 783.34 1151.53 542 c 0,0,0
361.47 542 m 0,0,0
 361.47 439.13 361.47 439.13 380.78 361.84 c 1,0,0
 812.53 855.84 l 1,0,0
 750.22 928.8 750.22 928.8 631.66 928.8 c 0,0,0
 493.76 928.8 493.76 928.8 427.615 833.34 c 0,0,0
 361.47 737.88 361.47 737.88 361.47 542 c 0,0,0
892.18 542 m 0,0,0
 892.18 648.9 892.18 648.9 873.87 723.47 c 1,0,0
 441.79 229.81 l 1,0,0
 505.44 152.53 505.44 152.53 619.32 152.53 c 0,0,0
 759.88 152.53 759.88 152.53 826.03 248.825 c 0,0,0
 892.18 345.12 892.18 345.12 892.18 542 c 0,0,0
EndSplineSet
EndChar

StartChar: thorn
Encoding: 254 254 191
Width: 1214
GlyphClass: 2
Flags: W
LayerCount: 2
Fore
SplineSet
389.02 -7.36 m 2,0,0
 389.02 -425 l 1,0,0
 141.35 -425 l 1,0,0
 141.35 1484 l 1,0,0
 389.02 1484 l 1,0,0
 389.02 1034.87 l 2,0,0
 389.02 996.17 389.02 996.17 387.685 955.325 c 0,0,0
 386.35 914.48 386.35 914.48 385.02 871.82 c 1,0,0
 389.68 871.82 l 1,0,0
 437.01 971.82 437.01 971.82 521.37 1020.33 c 0,0,0
 605.73 1068.84 605.73 1068.84 732.05 1068.84 c 0,0,0
 926.02 1068.84 926.02 1068.84 1027.7 930.485 c 0,0,0
 1129.38 792.13 1129.38 792.13 1129.38 528.58 c 0,0,0
 1129.38 263 1129.38 263 1023.85 121.5 c 0,0,0
 918.32 -20 918.32 -20 719.99 -20 c 0,0,0
 480.04 -20 480.04 -20 389.35 170.68 c 1,0,0
 383.68 170.68 l 1,0,0
 389.02 148.27 389.02 148.27 389.02 -7.36 c 2,0,0
870.7 527.26 m 0,0,0
 870.7 717.08 870.7 717.08 813.385 804.7 c 0,0,0
 756.07 892.32 756.07 892.32 637.14 892.32 c 0,0,0
 511.6 892.32 511.6 892.32 448.97 797.19 c 0,0,0
 386.34 702.06 386.34 702.06 386.34 517.28 c 0,0,0
 386.34 337.78 386.34 337.78 448.645 245.155 c 0,0,0
 510.95 152.53 510.95 152.53 635.14 152.53 c 0,0,0
 755.07 152.53 755.07 152.53 812.885 243.325 c 0,0,0
 870.7 334.12 870.7 334.12 870.7 527.26 c 0,0,0
EndSplineSet
EndChar

StartChar: dcroat
Encoding: 273 273 210
Width: 1214
GlyphClass: 2
Flags: W
LayerCount: 2
Fore
SplineSet
825.02 1342.36 m 1,0,0
 825.02 1484 l 1,0,0
 1073.36 1484 l 1,0,0
 1073.36 1342.36 l 1,0,0
 1205.36 1342.36 l 1,0,0
 1205.36 1185.23 l 1,0,0
 1073.36 1185.23 l 1,0,0
 1073.36 231.71 l 2,0,0
 1073.36 170.16 1073.36 170.16 1075.195 112.315 c 0,0,0
 1077.03 54.47 1077.03 54.47 1080.7 0 c 1,0,0
 841.7 0 l 1,0,0
 839.7 10.33 839.7 10.33 836.195 41.835 c 0,0,0
 832.69 73.34 832.69 73.34 830.52 111.01 c 0,0,0
 828.35 148.68 828.35 148.68 828.35 175.34 c 1,0,0
 824.35 175.34 l 1,0,0
 777.03 75.36 777.03 75.36 691.85 27.68 c 0,0,0
 606.67 -20 606.67 -20 480.65 -20 c 0,0,0
 287.04 -20 287.04 -20 185.85 120.345 c 0,0,0
 84.66 260.69 84.66 260.69 84.66 525.95 c 0,0,0
 84.66 793.54 84.66 793.54 189.855 934.37 c 0,0,0
 295.05 1075.2 295.05 1075.2 494.72 1075.2 c 0,0,0
 612.36 1075.2 612.36 1075.2 695.365 1028.19 c 0,0,0
 778.37 981.18 778.37 981.18 825.02 885.19 c 1,0,0
 827.02 885.19 l 1,0,0
 825.02 1044.38 l 1,0,0
 825.02 1185.23 l 1,0,0
 534.4 1185.23 l 1,0,0
 534.4 1342.36 l 1,0,0
 825.02 1342.36 l 1,0,0
343.34 528.6 m 0,0,0
 343.34 336.44 343.34 336.44 400.325 245.475 c 0,0,0
 457.31 154.51 457.31 154.51 575.56 154.51 c 0,0,0
 701.76 154.51 701.76 154.51 764.73 252.135 c 0,0,0
 827.7 349.76 827.7 349.76 827.7 537.25 c 0,0,0
 827.7 720.09 827.7 720.09 766.07 812.72 c 0,0,0
 704.44 905.35 704.44 905.35 577.56 905.35 c 0,0,0
 456.97 905.35 456.97 905.35 400.155 815.235 c 0,0,0
 343.34 725.12 343.34 725.12 343.34 528.6 c 0,0,0
EndSplineSet
EndChar

StartChar: Hbar
Encoding: 294 294 231
Width: 1479
GlyphClass: 2
Flags: W
LayerCount: 2
Fore
SplineSet
407.91 620.17 m 1,0,0
 407.91 0 l 1,0,0
 147.23 0 l 1,0,0
 147.23 1038.4 l 1,0,0
 14 1038.4 l 1,0,0
 14 1203.12 l 1,0,0
 147.23 1203.12 l 1,0,0
 147.23 1409 l 1,0,0
 407.91 1409 l 1,0,0
 407.91 1203.12 l 1,0,0
 1079.77 1203.12 l 1,0,0
 1079.77 1409 l 1,0,0
 1331.43 1409 l 1,0,0
 1331.43 1203.12 l 1,0,0
 1465 1203.12 l 1,0,0
 1465 1038.4 l 1,0,0
 1331.43 1038.4 l 1,0,0
 1331.43 0 l 1,0,0
 1079.77 0 l 1,0,0
 1079.77 620.17 l 1,0,0
 407.91 620.17 l 1,0,0
407.91 836.45 m 1,0,0
 1079.77 836.45 l 1,0,0
 1079.77 1038.4 l 1,0,0
 407.91 1038.4 l 1,0,0
 407.91 836.45 l 1,0,0
EndSplineSet
EndChar

StartChar: hbar
Encoding: 295 295 232
Width: 1214
GlyphClass: 2
Flags: W
LayerCount: 2
Fore
SplineSet
386.01 836.23 m 1,0,0
 443.34 954.29 443.34 954.29 527.855 1008.145 c 0,0,0
 612.37 1062 612.37 1062 733.35 1062 c 0,0,0
 906.67 1062 906.67 1062 995.865 959.96 c 0,0,0
 1085.06 857.92 1085.06 857.92 1085.06 657.55 c 2,0,0
 1085.06 0 l 1,0,0
 837.73 0 l 1,0,0
 837.73 592.4 l 2,0,0
 837.73 736.06 837.73 736.06 789.895 805.41 c 0,0,0
 742.06 874.76 742.06 874.76 634.83 874.76 c 0,0,0
 524.58 874.76 524.58 874.76 457.46 787.095 c 0,0,0
 390.34 699.43 390.34 699.43 390.34 558.47 c 2,0,0
 390.34 0 l 1,0,0
 142.67 0 l 1,0,0
 142.67 1185.23 l 1,0,0
 10 1185.23 l 1,0,0
 10 1342.36 l 1,0,0
 142.67 1342.36 l 1,0,0
 142.67 1484 l 1,0,0
 390.34 1484 l 1,0,0
 390.34 1342.36 l 1,0,0
 694.36 1342.36 l 1,0,0
 694.36 1185.23 l 1,0,0
 390.34 1185.23 l 1,0,0
 390.34 1045.27 l 2,0,0
 390.34 1007.95 390.34 1007.95 389.01 969.145 c 0,0,0
 387.68 930.34 387.68 930.34 386.18 896.165 c 0,0,0
 384.68 861.99 384.68 861.99 382.34 836.23 c 1,0,0
 386.01 836.23 l 1,0,0
EndSplineSet
EndChar

StartChar: dotlessi
Encoding: 305 305 242
Width: 569
GlyphClass: 2
Flags: W
LayerCount: 2
Fore
SplineSet
408.84 1082 m 1,0,0
 408.84 0 l 1,0,0
 161.17 0 l 1,0,0
 161.17 1082 l 1,0,0
 408.84 1082 l 1,0,0
EndSplineSet
EndChar

StartChar: jcircumflex
Encoding: 309 309 246
Width: 531
GlyphClass: 2
Flags: W
LayerCount: 2
Fore
SplineSet
265.16 1373.35 m 1,0,0
 47.23 1188.94 l 1,0,0
 -94.29 1188.94 l 1,0,0
 -94.29 1214.3 l 1,0,0
 155.79 1516.46 l 1,0,0
 376.54 1516.46 l 1,0,0
 617.96 1214.3 l 1,0,0
 617.96 1188.94 l 1,0,0
 476.78 1188.94 l 1,0,0
 268.5 1373.35 l 1,0,0
 265.16 1373.35 l 1,0,0
117.87 -425 m 0,0,0
 25.8 -425 25.8 -425 -37.94 -416 c 1,0,0
 -37.94 -237.47 l 1,0,0
 16.69 -242.13 l 1,0,0
 87.7 -242.13 87.7 -242.13 114.695 -209.145 c 0,0,0
 141.69 -176.16 141.69 -176.16 141.69 -75.51 c 2,0,0
 141.69 1082 l 1,0,0
 389.36 1082 l 1,0,0
 389.36 -129.98 l 2,0,0
 389.36 -276.28 389.36 -276.28 320.985 -350.64 c 0,0,0
 252.61 -425 252.61 -425 117.87 -425 c 0,0,0
EndSplineSet
EndChar

StartChar: kgreenlandic
Encoding: 312 312 249
Width: 1101
GlyphClass: 2
Flags: W
LayerCount: 2
Fore
SplineSet
389.02 399.4 m 1,0,0
 389.02 0 l 1,0,0
 141.35 0 l 1,0,0
 141.35 1082 l 1,0,0
 389.02 1082 l 1,0,0
 389.02 608.59 l 1,0,0
 804.39 1082 l 1,0,0
 1076.36 1082 l 1,0,0
 676.89 645.81 l 1,0,0
 1103.38 0 l 1,0,0
 828.06 0 l 1,0,0
 513.65 491.32 l 1,0,0
 389.02 399.4 l 1,0,0
EndSplineSet
EndChar

StartChar: Lslash
Encoding: 321 321 258
Width: 1214
GlyphClass: 2
Flags: W
LayerCount: 2
Fore
SplineSet
146.56 0 m 1,0,0
 147.23 501.15 l 1,0,0
 6.6 429.55 l 1,0,0
 6.6 632.44 l 1,0,0
 147.23 704.71 l 1,0,0
 147.23 1409 l 1,0,0
 407.91 1409 l 1,0,0
 407.91 835.48 l 1,0,0
 698.41 982.81 l 1,0,0
 698.41 781.59 l 1,0,0
 407.91 633.93 l 1,0,0
 407.91 206.25 l 1,0,0
 1149.39 206.25 l 1,0,0
 1149.39 0 l 1,0,0
 146.56 0 l 1,0,0
EndSplineSet
EndChar

StartChar: lslash
Encoding: 322 322 259
Width: 531
GlyphClass: 2
Flags: W
LayerCount: 2
Fore
SplineSet
141.35 0 m 1,0,0
 141.35 554.73 l 1,0,0
 17.34 486.06 l 1,0,0
 17.34 682.25 l 1,0,0
 141.35 750.92 l 1,0,0
 141.35 1484 l 1,0,0
 389.02 1484 l 1,0,0
 389.02 889.76 l 1,0,0
 516.37 963.1 l 1,0,0
 516.37 767.92 l 1,0,0
 389.02 693.57 l 1,0,0
 389.02 0 l 1,0,0
 141.35 0 l 1,0,0
EndSplineSet
EndChar

StartChar: eng
Encoding: 331 331 267
Width: 1214
GlyphClass: 2
Flags: W
LayerCount: 2
Fore
SplineSet
814.56 -425 m 0,0,0
 722.82 -425 722.82 -425 658.75 -416 c 1,0,0
 658.75 -237.47 l 1,0,0
 713.38 -242.13 l 1,0,0
 785.73 -242.13 785.73 -242.13 812.39 -208.475 c 0,0,0
 839.05 -174.82 839.05 -174.82 839.05 -75.51 c 2,0,0
 839.05 633.07 l 2,0,0
 839.05 777.06 839.05 777.06 792.04 846.245 c 0,0,0
 745.03 915.43 745.03 915.43 636.15 915.43 c 0,0,0
 524.91 915.43 524.91 915.43 458.285 827.435 c 0,0,0
 391.66 739.44 391.66 739.44 391.66 595.51 c 2,0,0
 391.66 0 l 1,0,0
 143.99 0 l 1,0,0
 143.99 843.63 l 2,0,0
 143.99 933.27 143.99 933.27 141.82 989.43 c 0,0,0
 139.65 1045.59 139.65 1045.59 136.65 1082 c 1,0,0
 372.31 1082 l 1,0,0
 373.98 1072.97 373.98 1072.97 376.32 1036.72 c 0,0,0
 378.66 1000.47 378.66 1000.47 380.995 956.28 c 0,0,0
 383.33 912.09 383.33 912.09 383.66 876.9 c 1,0,0
 387.33 876.9 l 1,0,0
 445.98 996.94 445.98 996.94 530.495 1049.805 c 0,0,0
 615.01 1102.67 615.01 1102.67 734.67 1102.67 c 0,0,0
 908.65 1102.67 908.65 1102.67 997.515 1002.445 c 0,0,0
 1086.38 902.22 1086.38 902.22 1086.38 698.22 c 2,0,0
 1086.38 -129.98 l 2,0,0
 1086.38 -275.62 1086.38 -275.62 1018.005 -350.31 c 0,0,0
 949.63 -425 949.63 -425 814.56 -425 c 0,0,0
EndSplineSet
EndChar

StartChar: OE
Encoding: 338 338 274
Width: 2048
GlyphClass: 2
Flags: W
LayerCount: 2
Fore
SplineSet
994.31 0 m 1,0,0
 957.63 -2.99 957.63 -2.99 904.125 -6.495 c 0,0,0
 850.62 -10 850.62 -10 791.68 -10 c 0,0,0
 571.99 -10 571.99 -10 414.145 76.665 c 0,0,0
 256.3 163.33 256.3 163.33 172.295 324.66 c 0,0,0
 88.29 485.99 88.29 485.99 88.29 711 c 0,0,0
 88.29 935.68 88.29 935.68 172.295 1093.845 c 0,0,0
 256.3 1252.01 256.3 1252.01 414.145 1336.005 c 0,0,0
 571.99 1420 571.99 1420 793.68 1420 c 0,0,0
 834.62 1420 834.62 1420 886.445 1417 c 0,0,0
 938.27 1414 938.27 1414 999.65 1409 c 1,0,0
 1923.7 1409 l 1,0,0
 1923.7 1205.43 l 1,0,0
 1211.82 1205.43 l 1,0,0
 1211.82 818.42 l 1,0,0
 1863.03 818.42 l 1,0,0
 1863.03 619.53 l 1,0,0
 1211.82 619.53 l 1,0,0
 1211.82 203.57 l 1,0,0
 1964.7 203.57 l 1,0,0
 1964.7 0 l 1,0,0
 994.31 0 l 1,0,0
949.8 1199.03 m 1,0,0
 911.5 1207.05 911.5 1207.05 871.48 1210.065 c 0,0,0
 831.46 1213.08 831.46 1213.08 793.68 1213.08 c 0,0,0
 578.83 1213.08 578.83 1213.08 465.065 1082.475 c 0,0,0
 351.3 951.87 351.3 951.87 351.3 711 c 0,0,0
 351.3 469.13 351.3 469.13 468.06 332.86 c 0,0,0
 584.82 196.59 584.82 196.59 791.68 196.59 c 0,0,0
 844.07 196.59 844.07 196.59 883.6 200.27 c 0,0,0
 923.13 203.95 923.13 203.95 949.8 211.31 c 1,0,0
 949.8 1199.03 l 1,0,0
EndSplineSet
EndChar

StartChar: oe
Encoding: 339 339 275
Width: 1933
GlyphClass: 2
Flags: W
LayerCount: 2
Fore
SplineSet
1139.01 484.91 m 1,0,0
 1139.01 325.71 1139.01 325.71 1203.95 238.11 c 0,0,0
 1268.89 150.51 1268.89 150.51 1389.42 150.51 c 0,0,0
 1477.61 150.51 1477.61 150.51 1532.7 187.795 c 0,0,0
 1587.79 225.08 1587.79 225.08 1608.77 291.72 c 1,0,0
 1838.46 261.46 l 1,0,0
 1729.4 -20 1729.4 -20 1380.04 -20 c 0,0,0
 1130.16 -20 1130.16 -20 1002.13 146.92 c 1,0,0
 864.73 -20 864.73 -20 605.82 -20 c 0,0,0
 357.77 -20 357.77 -20 219.875 128.185 c 0,0,0
 81.98 276.37 81.98 276.37 81.98 542 c 0,0,0
 81.98 808.94 81.98 808.94 220.205 955.47 c 0,0,0
 358.43 1102 358.43 1102 611.82 1102 c 0,0,0
 876.07 1102 876.07 1102 1007.14 941.08 c 1,0,0
 1138.5 1102 1138.5 1102 1380.41 1102 c 0,0,0
 1615.39 1102 1615.39 1102 1737.07 950.965 c 0,0,0
 1858.75 799.93 1858.75 799.93 1858.75 505.56 c 2,0,0
 1858.75 484.91 l 1,0,0
 1139.01 484.91 l 1,0,0
878.32 542 m 0,0,0
 878.32 743.58 878.32 743.58 813.34 836.19 c 0,0,0
 748.36 928.8 748.36 928.8 615.49 928.8 c 0,0,0
 476.27 928.8 476.27 928.8 409.135 832.35 c 0,0,0
 342 735.9 342 735.9 342 542 c 0,0,0
 342 350.11 342 350.11 408.46 251.32 c 0,0,0
 474.92 152.53 474.92 152.53 603.15 152.53 c 0,0,0
 744.37 152.53 744.37 152.53 811.345 248.825 c 0,0,0
 878.32 345.12 878.32 345.12 878.32 542 c 0,0,0
1376.74 939.52 m 0,0,0
 1267.18 939.52 1267.18 939.52 1206.09 864.415 c 0,0,0
 1145 789.31 1145 789.31 1141.01 655.74 c 1,0,0
 1615.13 655.74 l 1,0,0
 1604.82 799.94 1604.82 799.94 1544.21 869.73 c 0,0,0
 1483.6 939.52 1483.6 939.52 1376.74 939.52 c 0,0,0
EndSplineSet
EndChar

StartChar: Tbar
Encoding: 358 358 294
Width: 1251
GlyphClass: 2
Flags: W
LayerCount: 2
Fore
SplineSet
755.51 632.93 m 1,0,0
 755.51 0 l 1,0,0
 495.16 0 l 1,0,0
 495.16 632.93 l 1,0,0
 251 632.93 l 1,0,0
 251 811.05 l 1,0,0
 495.16 811.05 l 1,0,0
 495.16 1204.76 l 1,0,0
 30.59 1204.76 l 1,0,0
 30.59 1409 l 1,0,0
 1220.75 1409 l 1,0,0
 1220.75 1204.76 l 1,0,0
 755.51 1204.76 l 1,0,0
 755.51 811.05 l 1,0,0
 1001 811.05 l 1,0,0
 1001 632.93 l 1,0,0
 755.51 632.93 l 1,0,0
EndSplineSet
EndChar

StartChar: tbar
Encoding: 359 359 295
Width: 644
GlyphClass: 2
Flags: W
LayerCount: 2
Fore
SplineSet
404.16 -17.34 m 0,0,0
 285.44 -17.34 285.44 -17.34 222.73 48.18 c 0,0,0
 160.02 113.7 160.02 113.7 160.02 245.75 c 2,0,0
 160.02 487.19 l 1,0,0
 33.68 487.19 l 1,0,0
 33.68 657.72 l 1,0,0
 160.02 657.72 l 1,0,0
 160.02 911.47 l 1,0,0
 26.98 911.47 l 1,0,0
 26.98 1082 l 1,0,0
 171.71 1082 l 1,0,0
 248.16 1332.04 l 1,0,0
 405.68 1332.04 l 1,0,0
 405.68 1082 l 1,0,0
 609.03 1082 l 1,0,0
 609.03 911.47 l 1,0,0
 405.68 911.47 l 1,0,0
 405.68 657.72 l 1,0,0
 595.63 657.72 l 1,0,0
 595.63 487.19 l 1,0,0
 405.68 487.19 l 1,0,0
 405.68 309.54 l 2,0,0
 405.68 230.87 405.68 230.87 434.195 195.35 c 0,0,0
 462.71 159.83 462.71 159.83 525.71 159.83 c 0,0,0
 557.03 159.83 557.03 159.83 623.01 173.83 c 1,0,0
 623.01 13.36 l 1,0,0
 525.63 -17.34 525.63 -17.34 404.16 -17.34 c 0,0,0
EndSplineSet
EndChar

StartChar: longs
Encoding: 383 383 319
Width: 531
GlyphClass: 2
Flags: W
LayerCount: 2
Fore
SplineSet
387.68 1170.96 m 2,0,0
 387.68 0 l 1,0,0
 140.68 0 l 1,0,0
 140.68 1197.97 l 2,0,0
 140.68 1345.3 140.68 1345.3 214.39 1414.32 c 0,0,0
 288.1 1483.34 288.1 1483.34 438.85 1483.34 c 0,0,0
 518.54 1483.34 518.54 1483.34 600.02 1468.66 c 1,0,0
 600.02 1302.18 l 1,0,0
 557.38 1310.85 557.38 1310.85 518.68 1310.85 c 0,0,0
 447.67 1310.85 447.67 1310.85 417.675 1280.205 c 0,0,0
 387.68 1249.56 387.68 1249.56 387.68 1170.96 c 2,0,0
EndSplineSet
EndChar

StartChar: uni0180
Encoding: 384 384 320
Width: 1214
GlyphClass: 2
Flags: W
LayerCount: 2
Fore
SplineSet
1129.38 531.93 m 0,0,0
 1129.38 261.66 1129.38 261.66 1025.19 120.83 c 0,0,0
 921 -20 921 -20 719.99 -20 c 0,0,0
 601.68 -20 601.68 -20 518.17 28.52 c 0,0,0
 434.66 77.04 434.66 77.04 389.02 172.02 c 1,0,0
 387.02 172.02 l 1,0,0
 387.02 150.01 387.02 150.01 385.02 112.68 c 0,0,0
 383.02 75.35 383.02 75.35 380.35 42.85 c 0,0,0
 377.68 10.35 377.68 10.35 374.34 0 c 1,0,0
 134.01 0 l 1,0,0
 137.68 40.4 137.68 40.4 139.515 99.92 c 0,0,0
 141.35 159.44 141.35 159.44 141.35 239.08 c 2,0,0
 141.35 1185.23 l 1,0,0
 10.33 1185.23 l 1,0,0
 10.33 1342.36 l 1,0,0
 141.35 1342.36 l 1,0,0
 141.35 1484 l 1,0,0
 389.02 1484 l 1,0,0
 389.02 1342.36 l 1,0,0
 697.37 1342.36 l 1,0,0
 697.37 1185.23 l 1,0,0
 389.02 1185.23 l 1,0,0
 389.02 1040.23 l 2,0,0
 389.02 1000.19 389.02 1000.19 387.685 958.005 c 0,0,0
 386.35 915.82 386.35 915.82 385.02 871.82 c 1,0,0
 389.02 871.82 l 1,0,0
 437.01 975.82 437.01 975.82 522.525 1025.51 c 0,0,0
 608.04 1075.2 608.04 1075.2 732.05 1075.2 c 0,0,0
 929.68 1075.2 929.68 1075.2 1029.53 937.535 c 0,0,0
 1129.38 799.87 1129.38 799.87 1129.38 531.93 c 0,0,0
870.7 529.95 m 0,0,0
 870.7 724.12 870.7 724.12 815.39 811.4 c 0,0,0
 760.08 898.68 760.08 898.68 638.48 898.68 c 0,0,0
 507.92 898.68 507.92 898.68 447.13 804.395 c 0,0,0
 386.34 710.11 386.34 710.11 386.34 520.29 c 0,0,0
 386.34 338.11 386.34 338.11 445.965 245.32 c 0,0,0
 505.59 152.53 505.59 152.53 636.48 152.53 c 0,0,0
 759.08 152.53 759.08 152.53 814.89 243.315 c 0,0,0
 870.7 334.1 870.7 334.1 870.7 529.95 c 0,0,0
EndSplineSet
EndChar

StartChar: uni0181
Encoding: 385 385 321
Width: 1660
GlyphClass: 2
Flags: W
LayerCount: 2
Fore
SplineSet
1561.29 400.35 m 0,0,0
 1561.29 209.67 1561.29 209.67 1419.6 104.835 c 0,0,0
 1277.91 0 1277.91 0 1025.87 0 c 2,0,0
 364.76 0 l 1,0,0
 364.76 1216.78 l 1,0,0
 336.43 1216.78 l 2,0,0
 266.13 1216.78 266.13 1216.78 233.13 1187.135 c 0,0,0
 200.13 1157.49 200.13 1157.49 200.13 1097.21 c 0,0,0
 200.13 1045.53 200.13 1045.53 226.84 972.78 c 1,0,0
 32.31 955.78 l 1,0,0
 6.6 1051.21 6.6 1051.21 6.6 1135 c 0,0,0
 6.6 1262.99 6.6 1262.99 96.285 1335.995 c 0,0,0
 185.97 1409 185.97 1409 337.96 1409 c 2,0,0
 965.87 1409 l 2,0,0
 1479.96 1409 1479.96 1409 1479.96 1058.96 c 0,0,0
 1479.96 937.31 1479.96 937.31 1412.305 853.985 c 0,0,0
 1344.65 770.66 1344.65 770.66 1211.29 741.66 c 1,0,0
 1381.3 721.66 1381.3 721.66 1471.295 632.51 c 0,0,0
 1561.29 543.36 1561.29 543.36 1561.29 400.35 c 0,0,0
1217.61 1024.57 m 0,0,0
 1217.61 1125.84 1217.61 1125.84 1151 1168.81 c 0,0,0
 1084.39 1211.78 1084.39 1211.78 956.49 1211.78 c 2,0,0
 625.44 1211.78 l 1,0,0
 625.44 830.77 l 1,0,0
 957.83 830.77 l 2,0,0
 1092.07 830.77 1092.07 830.77 1154.84 878.89 c 0,0,0
 1217.61 927.01 1217.61 927.01 1217.61 1024.57 c 0,0,0
1299.28 420.71 m 0,0,0
 1299.28 635.54 1299.28 635.54 993.5 635.54 c 2,0,0
 625.44 635.54 l 1,0,0
 625.44 197.22 l 1,0,0
 1005.82 197.22 l 2,0,0
 1158.04 197.22 1158.04 197.22 1228.66 253.175 c 0,0,0
 1299.28 309.13 1299.28 309.13 1299.28 420.71 c 0,0,0
EndSplineSet
EndChar

StartChar: uni0182
Encoding: 386 386 322
Width: 1429
GlyphClass: 2
Flags: W
LayerCount: 2
Fore
SplineSet
1348.09 425.06 m 0,0,0
 1348.09 299.05 1348.09 299.05 1286.74 203.035 c 0,0,0
 1225.39 107.02 1225.39 107.02 1111.195 53.51 c 0,0,0
 997 0 997 0 838.97 0 c 2,0,0
 147.23 0 l 1,0,0
 147.23 1409 l 1,0,0
 1171.93 1409 l 1,0,0
 1171.93 1205.43 l 1,0,0
 407.91 1205.43 l 1,0,0
 407.91 831.76 l 1,0,0
 856.45 831.76 l 2,0,0
 1093.12 831.76 1093.12 831.76 1220.605 725.085 c 0,0,0
 1348.09 618.41 1348.09 618.41 1348.09 425.06 c 0,0,0
1084.4 420.38 m 0,0,0
 1084.4 522.62 1084.4 522.62 1011.11 579.08 c 0,0,0
 937.82 635.54 937.82 635.54 791.24 635.54 c 2,0,0
 407.91 635.54 l 1,0,0
 407.91 196.56 l 1,0,0
 797.9 196.56 l 2,0,0
 942.47 196.56 942.47 196.56 1013.435 253.505 c 0,0,0
 1084.4 310.45 1084.4 310.45 1084.4 420.38 c 0,0,0
EndSplineSet
EndChar

StartChar: uni0183
Encoding: 387 387 323
Width: 1214
GlyphClass: 2
Flags: W
LayerCount: 2
Fore
SplineSet
1129.38 531.93 m 0,0,0
 1129.38 265.68 1129.38 265.68 1023.18 122.84 c 0,0,0
 916.98 -20 916.98 -20 719.99 -20 c 0,0,0
 601.68 -20 601.68 -20 518.17 28.52 c 0,0,0
 434.66 77.04 434.66 77.04 389.02 172.02 c 1,0,0
 387.02 172.02 l 1,0,0
 387.02 150.01 387.02 150.01 385.02 112.68 c 0,0,0
 383.02 75.35 383.02 75.35 380.35 42.85 c 0,0,0
 377.68 10.35 377.68 10.35 374.34 0 c 1,0,0
 134.01 0 l 1,0,0
 137.68 40.4 137.68 40.4 139.515 99.92 c 0,0,0
 141.35 159.44 141.35 159.44 141.35 239.08 c 2,0,0
 141.35 1484 l 1,0,0
 884.01 1484 l 1,0,0
 884.01 1288.82 l 1,0,0
 389.02 1288.82 l 1,0,0
 389.02 1040.23 l 2,0,0
 389.02 1000.19 389.02 1000.19 387.685 958.005 c 0,0,0
 386.35 915.82 386.35 915.82 385.02 871.82 c 1,0,0
 389.02 871.82 l 1,0,0
 437.01 975.82 437.01 975.82 522.525 1025.51 c 0,0,0
 608.04 1075.2 608.04 1075.2 732.05 1075.2 c 0,0,0
 925.66 1075.2 925.66 1075.2 1027.52 935.525 c 0,0,0
 1129.38 795.85 1129.38 795.85 1129.38 531.93 c 0,0,0
870.7 529.95 m 0,0,0
 870.7 719.43 870.7 719.43 813.715 809.055 c 0,0,0
 756.73 898.68 756.73 898.68 638.48 898.68 c 0,0,0
 513.95 898.68 513.95 898.68 450.145 803.725 c 0,0,0
 386.34 708.77 386.34 708.77 386.34 520.29 c 0,0,0
 386.34 340.79 386.34 340.79 448.645 246.66 c 0,0,0
 510.95 152.53 510.95 152.53 636.48 152.53 c 0,0,0
 756.4 152.53 756.4 152.53 813.55 244.99 c 0,0,0
 870.7 337.45 870.7 337.45 870.7 529.95 c 0,0,0
EndSplineSet
EndChar

StartChar: uni0184
Encoding: 388 388 324
Width: 1429
GlyphClass: 2
Flags: W
LayerCount: 2
Fore
SplineSet
1348.09 426.71 m 0,0,0
 1348.09 300.03 1348.09 300.03 1288.08 204.02 c 0,0,0
 1228.07 107.68 1228.07 107.68 1112.04 53.84 c 0,0,0
 996.01 0 996.01 0 838.97 0 c 2,0,0
 147.23 0 l 1,0,0
 147.23 1005.64 l 1,0,0
 3.3 1155.9 l 1,0,0
 3.3 1190.91 l 1,0,0
 339.18 1409 l 1,0,0
 407.91 1409 l 1,0,0
 407.91 835.06 l 1,0,0
 856.45 835.06 l 2,0,0
 1093.45 835.06 1093.45 835.06 1220.77 727.56 c 0,0,0
 1348.09 620.06 1348.09 620.06 1348.09 426.71 c 0,0,0
1084.4 422.03 m 0,0,0
 1084.4 523.94 1084.4 523.94 1010.945 581.39 c 0,0,0
 937.49 638.84 937.49 638.84 791.24 638.84 c 2,0,0
 407.91 638.84 l 1,0,0
 407.91 196.56 l 1,0,0
 797.9 196.56 l 2,0,0
 942.47 196.56 942.47 196.56 1013.435 254.33 c 0,0,0
 1084.4 312.1 1084.4 312.1 1084.4 422.03 c 0,0,0
EndSplineSet
EndChar

StartChar: uni0185
Encoding: 389 389 325
Width: 1214
GlyphClass: 2
Flags: W
LayerCount: 2
Fore
SplineSet
1129.38 545.33 m 0,0,0
 1129.38 272.38 1129.38 272.38 1024.52 126.19 c 0,0,0
 919.66 -20 919.66 -20 719.99 -20 c 0,0,0
 601.68 -20 601.68 -20 518.17 28.52 c 0,0,0
 434.66 77.04 434.66 77.04 389.02 172.02 c 1,0,0
 387.02 172.02 l 1,0,0
 387.02 150.01 387.02 150.01 385.02 112.68 c 0,0,0
 383.02 75.35 383.02 75.35 380.35 42.85 c 0,0,0
 377.68 10.35 377.68 10.35 374.34 0 c 1,0,0
 134.01 0 l 1,0,0
 137.68 40.4 137.68 40.4 139.515 99.92 c 0,0,0
 141.35 159.44 141.35 159.44 141.35 239.08 c 2,0,0
 141.35 1093.37 l 1,0,0
 3.3 1248.58 l 1,0,0
 3.3 1283.59 l 1,0,0
 321.94 1484 l 1,0,0
 389.02 1484 l 1,0,0
 389.02 1067.03 l 2,0,0
 389.02 1026.99 389.02 1026.99 388.02 984.805 c 0,0,0
 387.02 942.62 387.02 942.62 385.02 898.62 c 1,0,0
 389.02 898.62 l 1,0,0
 437.01 1002.62 437.01 1002.62 522.525 1052.31 c 0,0,0
 608.04 1102 608.04 1102 732.05 1102 c 0,0,0
 928.34 1102 928.34 1102 1028.86 958.975 c 0,0,0
 1129.38 815.95 1129.38 815.95 1129.38 545.33 c 0,0,0
870.7 543.35 m 0,0,0
 870.7 741.54 870.7 741.54 814.72 833.51 c 0,0,0
 758.74 925.48 758.74 925.48 638.48 925.48 c 0,0,0
 511.94 925.48 511.94 925.48 449.14 827.175 c 0,0,0
 386.34 728.87 386.34 728.87 386.34 533.69 c 0,0,0
 386.34 348.16 386.34 348.16 447.975 250.345 c 0,0,0
 509.61 152.53 509.61 152.53 636.48 152.53 c 0,0,0
 756.4 152.53 756.4 152.53 813.55 248.005 c 0,0,0
 870.7 343.48 870.7 343.48 870.7 543.35 c 0,0,0
EndSplineSet
EndChar

StartChar: uni0186
Encoding: 390 390 326
Width: 1479
GlyphClass: 2
Flags: W
LayerCount: 2
Fore
SplineSet
692.98 186.92 m 0,0,0
 903.87 186.92 903.87 186.92 1015.785 319.17 c 0,0,0
 1127.7 451.42 1127.7 451.42 1127.7 699 c 0,0,0
 1127.7 864.96 1127.7 864.96 1075.745 982.235 c 0,0,0
 1023.79 1099.51 1023.79 1099.51 925.02 1161.13 c 0,0,0
 826.25 1222.75 826.25 1222.75 685.65 1222.75 c 0,0,0
 410.39 1222.75 410.39 1222.75 291.22 946.5 c 1,0,0
 67.55 1037.23 l 1,0,0
 152.2 1233.97 152.2 1233.97 311.05 1331.985 c 0,0,0
 469.9 1430 469.9 1430 688.62 1430 c 0,0,0
 911.66 1430 911.66 1430 1068.345 1342.84 c 0,0,0
 1225.03 1255.68 1225.03 1255.68 1307.87 1092.015 c 0,0,0
 1390.71 928.35 1390.71 928.35 1390.71 699 c 0,0,0
 1390.71 468.98 1390.71 468.98 1310.215 308.815 c 0,0,0
 1229.72 148.65 1229.72 148.65 1075.045 64.325 c 0,0,0
 920.37 -20 920.37 -20 697.66 -20 c 0,0,0
 456.92 -20 456.92 -20 303.23 75.375 c 0,0,0
 149.54 170.75 149.54 170.75 83.9 357.81 c 1,0,0
 317.83 425.18 l 1,0,0
 354.79 314.56 354.79 314.56 455.085 250.74 c 0,0,0
 555.38 186.92 555.38 186.92 692.98 186.92 c 0,0,0
EndSplineSet
EndChar

StartChar: uni0187
Encoding: 391 391 327
Width: 1479
GlyphClass: 2
Flags: W
LayerCount: 2
Fore
SplineSet
1165.46 984.82 m 1,0,0
 1127.18 1096.43 1127.18 1096.43 1026.72 1159.755 c 0,0,0
 926.26 1223.08 926.26 1223.08 789.32 1223.08 c 0,0,0
 578.1 1223.08 578.1 1223.08 465.855 1090.335 c 0,0,0
 353.61 957.59 353.61 957.59 353.61 711 c 0,0,0
 353.61 545.7 353.61 545.7 405.73 428.595 c 0,0,0
 457.85 311.49 457.85 311.49 556.95 249.37 c 0,0,0
 656.05 187.25 656.05 187.25 796.65 187.25 c 0,0,0
 930.58 187.25 930.58 187.25 1029.685 253.715 c 0,0,0
 1128.79 320.18 1128.79 320.18 1192.07 463.5 c 1,0,0
 1415.74 372.77 l 1,0,0
 1332.76 177.37 1332.76 177.37 1172.915 78.685 c 0,0,0
 1013.07 -20 1013.07 -20 793.68 -20 c 0,0,0
 571.64 -20 571.64 -20 414.29 67.325 c 0,0,0
 256.94 154.65 256.94 154.65 173.77 318.815 c 0,0,0
 90.6 482.98 90.6 482.98 90.6 711 c 0,0,0
 90.6 940.69 90.6 940.69 171.26 1101.02 c 0,0,0
 251.92 1261.35 251.92 1261.35 407.26 1345.675 c 0,0,0
 562.6 1430 562.6 1430 784.64 1430 c 0,0,0
 1017.76 1430 1017.76 1430 1169.03 1337.2 c 1,0,0
 1169.03 1384.99 l 2,0,0
 1169.03 1525.67 1169.03 1525.67 1247.245 1601.32 c 0,0,0
 1325.46 1676.97 1325.46 1676.97 1464.88 1676.97 c 0,0,0
 1531.61 1676.97 1531.61 1676.97 1606.32 1660.63 c 1,0,0
 1606.32 1472.14 l 1,0,0
 1549.31 1486.12 1549.31 1486.12 1518.32 1486.12 c 0,0,0
 1455.36 1486.12 1455.36 1486.12 1427.375 1451.29 c 0,0,0
 1399.39 1416.46 1399.39 1416.46 1399.39 1342.81 c 2,0,0
 1399.39 1052.19 l 1,0,0
 1165.46 984.82 l 1,0,0
EndSplineSet
EndChar

StartChar: uni0188
Encoding: 392 392 328
Width: 1101
GlyphClass: 2
Flags: W
LayerCount: 2
Fore
SplineSet
785.03 739.54 m 1,0,0
 772.37 824.85 772.37 824.85 721.4 875.505 c 0,0,0
 670.43 926.16 670.43 926.16 576.82 926.16 c 0,0,0
 456.6 926.16 456.6 926.16 399.3 834.175 c 0,0,0
 342 742.19 342 742.19 342 546 c 0,0,0
 342 349.43 342 349.43 401.625 252.465 c 0,0,0
 461.25 155.5 461.25 155.5 580.16 155.5 c 0,0,0
 665.44 155.5 665.44 155.5 722.905 206.495 c 0,0,0
 780.37 257.49 780.37 257.49 794.03 360.13 c 1,0,0
 1043.03 347.46 l 1,0,0
 1028.36 238.77 1028.36 238.77 967.165 156.075 c 0,0,0
 905.97 73.38 905.97 73.38 807.085 26.69 c 0,0,0
 708.2 -20 708.2 -20 580.47 -20 c 0,0,0
 340.74 -20 340.74 -20 211.525 125.51 c 0,0,0
 82.31 271.02 82.31 271.02 82.31 537.31 c 0,0,0
 82.31 806.96 82.31 806.96 212.36 954.48 c 0,0,0
 342.41 1102 342.41 1102 582.49 1102 c 0,0,0
 709.04 1102 709.04 1102 810.35 1052.78 c 1,0,0
 818.68 1180.48 818.68 1180.48 892.89 1246.815 c 0,0,0
 967.1 1313.15 967.1 1313.15 1101.18 1313.15 c 0,0,0
 1165.6 1313.15 1165.6 1313.15 1235.69 1297.8 c 1,0,0
 1235.69 1113.63 l 1,0,0
 1185.28 1126.95 1185.28 1126.95 1150.66 1126.95 c 0,0,0
 1089.35 1126.95 1089.35 1126.95 1062.52 1092.12 c 0,0,0
 1035.69 1057.29 1035.69 1057.29 1035.69 983.64 c 2,0,0
 1035.69 753.54 l 1,0,0
 785.03 739.54 l 1,0,0
EndSplineSet
EndChar

StartChar: uni018A
Encoding: 394 394 330
Width: 1696
GlyphClass: 2
Flags: W
LayerCount: 2
Fore
SplineSet
1606.57 716.32 m 0,0,0
 1606.57 497.65 1606.57 497.65 1521.57 335.99 c 0,0,0
 1436.57 172.99 1436.57 172.99 1279.9 86.495 c 0,0,0
 1123.23 0 1123.23 0 920.57 0 c 2,0,0
 364.76 0 l 1,0,0
 364.76 1216.78 l 1,0,0
 336.43 1216.78 l 2,0,0
 266.13 1216.78 266.13 1216.78 233.13 1187.135 c 0,0,0
 200.13 1157.49 200.13 1157.49 200.13 1097.21 c 0,0,0
 200.13 1045.53 200.13 1045.53 226.84 972.78 c 1,0,0
 32.31 955.78 l 1,0,0
 6.6 1051.21 6.6 1051.21 6.6 1135 c 0,0,0
 6.6 1262.99 6.6 1262.99 96.285 1335.995 c 0,0,0
 185.97 1409 185.97 1409 337.96 1409 c 2,0,0
 860.24 1409 l 2,0,0
 1216.9 1409 1216.9 1409 1411.735 1228.83 c 0,0,0
 1606.57 1048.66 1606.57 1048.66 1606.57 716.32 c 0,0,0
1344.22 716.32 m 0,0,0
 1344.22 954.87 1344.22 954.87 1217.805 1080.31 c 0,0,0
 1091.39 1205.75 1091.39 1205.75 854.9 1205.75 c 2,0,0
 625.44 1205.75 l 1,0,0
 625.44 203.25 l 1,0,0
 896.56 203.25 l 2,0,0
 1032.8 203.25 1032.8 203.25 1133.055 265.885 c 0,0,0
 1233.31 328.52 1233.31 328.52 1288.765 443.46 c 0,0,0
 1344.22 558.4 1344.22 558.4 1344.22 716.32 c 0,0,0
EndSplineSet
EndChar

StartChar: uni018B
Encoding: 395 395 331
Width: 1429
GlyphClass: 2
Flags: W
LayerCount: 2
Fore
SplineSet
85.69 425.06 m 0,0,0
 85.69 618.41 85.69 618.41 213.51 725.085 c 0,0,0
 341.33 831.76 341.33 831.76 577.33 831.76 c 2,0,0
 1025.87 831.76 l 1,0,0
 1025.87 1205.43 l 1,0,0
 261.85 1205.43 l 1,0,0
 261.85 1409 l 1,0,0
 1286.55 1409 l 1,0,0
 1286.55 0 l 1,0,0
 594.81 0 l 2,0,0
 360.1 0 360.1 0 222.895 115.01 c 0,0,0
 85.69 230.02 85.69 230.02 85.69 425.06 c 0,0,0
349.38 420.38 m 0,0,0
 349.38 310.45 349.38 310.45 420.345 253.505 c 0,0,0
 491.31 196.56 491.31 196.56 635.88 196.56 c 2,0,0
 1025.87 196.56 l 1,0,0
 1025.87 635.54 l 1,0,0
 642.54 635.54 l 2,0,0
 495.96 635.54 495.96 635.54 422.67 579.08 c 0,0,0
 349.38 522.62 349.38 522.62 349.38 420.38 c 0,0,0
EndSplineSet
EndChar

StartChar: uni018C
Encoding: 396 396 332
Width: 1214
GlyphClass: 2
Flags: W
LayerCount: 2
Fore
SplineSet
83.34 531.93 m 0,0,0
 83.34 795.18 83.34 795.18 185.2 935.19 c 0,0,0
 287.06 1075.2 287.06 1075.2 480.67 1075.2 c 0,0,0
 604.68 1075.2 604.68 1075.2 690.195 1025.51 c 0,0,0
 775.71 975.82 775.71 975.82 823.7 871.82 c 1,0,0
 827.7 871.82 l 1,0,0
 826.37 915.82 826.37 915.82 825.035 958.005 c 0,0,0
 823.7 1000.19 823.7 1000.19 823.7 1040.23 c 2,0,0
 823.7 1288.82 l 1,0,0
 328.71 1288.82 l 1,0,0
 328.71 1484 l 1,0,0
 1071.37 1484 l 1,0,0
 1071.37 239.08 l 2,0,0
 1071.37 159.44 1071.37 159.44 1073.205 99.92 c 0,0,0
 1075.04 40.4 1075.04 40.4 1078.71 0 c 1,0,0
 838.38 0 l 1,0,0
 836.04 9.35 836.04 9.35 832.87 42.015 c 0,0,0
 829.7 74.68 829.7 74.68 827.7 112.01 c 0,0,0
 825.7 149.34 825.7 149.34 825.7 172.02 c 1,0,0
 823.7 172.02 l 1,0,0
 776.05 75.7 776.05 75.7 693.21 27.85 c 0,0,0
 610.37 -20 610.37 -20 492.73 -20 c 0,0,0
 296.41 -20 296.41 -20 189.875 122.84 c 0,0,0
 83.34 265.68 83.34 265.68 83.34 531.93 c 0,0,0
342.02 529.95 m 0,0,0
 342.02 337.78 342.02 337.78 399.17 245.155 c 0,0,0
 456.32 152.53 456.32 152.53 576.24 152.53 c 0,0,0
 701.11 152.53 701.11 152.53 763.745 246.83 c 0,0,0
 826.38 341.13 826.38 341.13 826.38 520.29 c 0,0,0
 826.38 707.44 826.38 707.44 763.075 803.06 c 0,0,0
 699.77 898.68 699.77 898.68 574.24 898.68 c 0,0,0
 455.99 898.68 455.99 898.68 399.005 808.89 c 0,0,0
 342.02 719.1 342.02 719.1 342.02 529.95 c 0,0,0
EndSplineSet
EndChar

StartChar: uni018D
Encoding: 397 397 333
Width: 1208
GlyphClass: 2
Flags: W
LayerCount: 2
Fore
SplineSet
1132.06 553.65 m 0,0,0
 1132.06 318.12 1132.06 318.12 1020.725 176.77 c 0,0,0
 909.39 35.42 909.39 35.42 698.11 7.68 c 1,0,0
 1048.08 -260.17 l 1,0,0
 1048.08 -424.33 l 1,0,0
 173.59 -424.33 l 1,0,0
 173.59 -240.47 l 1,0,0
 704.65 -240.47 l 1,0,0
 285.69 75.69 l 2,0,0
 186.39 150.63 186.39 150.63 134.185 267.805 c 0,0,0
 81.98 384.98 81.98 384.98 81.98 553.65 c 0,0,0
 81.98 726.92 81.98 726.92 144.02 849.43 c 0,0,0
 206.06 971.94 206.06 971.94 323.775 1036.97 c 0,0,0
 441.49 1102 441.49 1102 608.52 1102 c 0,0,0
 868.23 1102 868.23 1102 1000.145 963.965 c 0,0,0
 1132.06 825.93 1132.06 825.93 1132.06 553.65 c 0,0,0
872.71 553.65 m 0,0,0
 872.71 746.18 872.71 746.18 810.055 837.49 c 0,0,0
 747.4 928.8 747.4 928.8 612.19 928.8 c 0,0,0
 473.3 928.8 473.3 928.8 407.65 836.83 c 0,0,0
 342 744.86 342 744.86 342 553.65 c 0,0,0
 342 365.77 342 365.77 407.15 269.81 c 0,0,0
 472.3 173.85 472.3 173.85 599.85 173.85 c 0,0,0
 742.06 173.85 742.06 173.85 807.385 269.13 c 0,0,0
 872.71 364.41 872.71 364.41 872.71 553.65 c 0,0,0
EndSplineSet
EndChar

StartChar: uni018E
Encoding: 398 398 334
Width: 1366
GlyphClass: 2
Flags: W
LayerCount: 2
Fore
SplineSet
1219.1 1409 m 1,0,0
 1219.1 0 l 1,0,0
 82.97 0 l 1,0,0
 82.97 204.24 l 1,0,0
 958.42 204.24 l 1,0,0
 958.42 614.84 l 1,0,0
 184.64 614.84 l 1,0,0
 184.64 818.42 l 1,0,0
 958.42 818.42 l 1,0,0
 958.42 1204.76 l 1,0,0
 123.97 1204.76 l 1,0,0
 123.97 1409 l 1,0,0
 1219.1 1409 l 1,0,0
EndSplineSet
EndChar

StartChar: uni018F
Encoding: 399 399 335
Width: 1504
GlyphClass: 2
Flags: W
LayerCount: 2
Fore
SplineSet
1144.79 835.46 m 1,0,0
 1123.81 1019.96 1123.81 1019.96 1022.61 1123.865 c 0,0,0
 921.41 1227.77 921.41 1227.77 752.56 1227.77 c 0,0,0
 619.67 1227.77 619.67 1227.77 533.94 1171.655 c 0,0,0
 448.21 1115.54 448.21 1115.54 399.92 1004.59 c 1,0,0
 162.98 1072.31 l 1,0,0
 232.27 1248.35 232.27 1248.35 380.41 1339.175 c 0,0,0
 528.55 1430 528.55 1430 753.23 1430 c 0,0,0
 980.99 1430 980.99 1430 1138.02 1325.58 c 0,0,0
 1273.27 1237.24 1273.27 1237.24 1345.395 1080.105 c 0,0,0
 1417.52 922.97 1417.52 922.97 1417.52 711 c 0,0,0
 1417.52 490.33 1417.52 490.33 1336.86 324.66 c 0,0,0
 1256.2 158.66 1256.2 158.66 1105.21 69.33 c 0,0,0
 954.22 -20 954.22 -20 751.23 -20 c 0,0,0
 545.24 -20 545.24 -20 395.26 68.33 c 0,0,0
 245.95 155.99 245.95 155.99 166.625 321.82 c 0,0,0
 87.3 487.65 87.3 487.65 87.3 711 c 0,0,0
 87.3 742.73 87.3 742.73 89.47 773.595 c 0,0,0
 91.64 804.46 91.64 804.46 94.98 835.46 c 1,0,0
 1144.79 835.46 l 1,0,0
751.23 179.6 m 0,0,0
 934.01 179.6 934.01 179.6 1036.395 294.99 c 0,0,0
 1138.78 410.38 1138.78 410.38 1150.45 625.87 c 1,0,0
 349.7 625.87 l 1,0,0
 363.35 413.71 363.35 413.71 469.23 296.655 c 0,0,0
 575.11 179.6 575.11 179.6 751.23 179.6 c 0,0,0
EndSplineSet
EndChar

StartChar: uni0190
Encoding: 400 400 336
Width: 1267
GlyphClass: 2
Flags: W
LayerCount: 2
Fore
SplineSet
626.09 -20 m 0,0,0
 462.7 -20 462.7 -20 342.52 31.66 c 0,0,0
 222.34 83.32 222.34 83.32 157.18 177.325 c 0,0,0
 92.02 271.33 92.02 271.33 92.02 397.03 c 0,0,0
 92.02 532.33 92.02 532.33 175.36 619.485 c 0,0,0
 258.7 706.64 258.7 706.64 410 729.3 c 1,0,0
 130 794.35 130 794.35 130 1050.33 c 0,0,0
 130 1162.99 130 1162.99 192.015 1248.325 c 0,0,0
 254.03 1333.66 254.03 1333.66 365.895 1381.33 c 0,0,0
 477.76 1429 477.76 1429 627.14 1429 c 0,0,0
 838.87 1429 838.87 1429 974.385 1336.96 c 0,0,0
 1109.9 1244.92 1109.9 1244.92 1178.56 1053.16 c 1,0,0
 940.26 992.16 l 1,0,0
 898.97 1114.46 898.97 1114.46 822.52 1173.46 c 0,0,0
 746.07 1232.46 746.07 1232.46 632.8 1232.46 c 0,0,0
 517.54 1232.46 517.54 1232.46 450.76 1181.16 c 0,0,0
 383.98 1129.86 383.98 1129.86 383.98 1035.56 c 0,0,0
 383.98 820.09 383.98 820.09 698.45 820.09 c 2,0,0
 761.41 820.09 l 1,0,0
 761.41 619.16 l 1,0,0
 698.45 619.16 l 2,0,0
 518.56 619.16 518.56 619.16 433.615 569.875 c 0,0,0
 348.67 520.59 348.67 520.59 348.67 409.03 c 0,0,0
 348.67 301.8 348.67 301.8 423.095 242.525 c 0,0,0
 497.52 183.25 497.52 183.25 635.1 183.25 c 0,0,0
 880.68 183.25 880.68 183.25 980.92 442.52 c 1,0,0
 1212.25 354.8 l 1,0,0
 1138.64 161.43 1138.64 161.43 995.255 70.715 c 0,0,0
 851.87 -20 851.87 -20 626.09 -20 c 0,0,0
EndSplineSet
EndChar

StartChar: uni0191
Encoding: 401 401 337
Width: 1251
GlyphClass: 2
Flags: W
LayerCount: 2
Fore
SplineSet
407.91 -64.34 m 2,0,0
 407.91 -242.85 407.91 -242.85 327.03 -333.925 c 0,0,0
 246.15 -425 246.15 -425 87.68 -425 c 0,0,0
 20.97 -425 20.97 -425 -70.06 -405 c 1,0,0
 -58.51 -206.12 l 1,0,0
 2.53 -220.44 2.53 -220.44 33.85 -220.44 c 0,0,0
 94.56 -220.44 94.56 -220.44 120.895 -181.775 c 0,0,0
 147.23 -143.11 147.23 -143.11 147.23 -64.11 c 2,0,0
 147.23 1409 l 1,0,0
 1173.69 1409 l 1,0,0
 1173.69 1204.76 l 1,0,0
 407.91 1204.76 l 1,0,0
 407.91 739.72 l 1,0,0
 1150.36 739.72 l 1,0,0
 1150.36 534.82 l 1,0,0
 407.91 534.82 l 1,0,0
 407.91 -64.34 l 2,0,0
EndSplineSet
EndChar

StartChar: florin
Encoding: 402 402 338
Width: 1139
GlyphClass: 2
Flags: W
LayerCount: 2
Fore
SplineSet
874.77 1288.55 m 1,0,0
 854.42 1294.89 854.42 1294.89 822.75 1299.89 c 0,0,0
 791.08 1304.89 791.08 1304.89 766.79 1304.89 c 0,0,0
 708.48 1304.89 708.48 1304.89 681.495 1274.095 c 0,0,0
 654.51 1243.3 654.51 1243.3 654.51 1164.36 c 2,0,0
 654.51 1062.2 l 1,0,0
 866.85 1062.2 l 1,0,0
 866.85 891.67 l 1,0,0
 653.85 891.67 l 1,0,0
 653.85 -435.23 l 1,0,0
 406.85 -435.23 l 1,0,0
 406.85 891.67 l 1,0,0
 250.83 891.67 l 1,0,0
 250.83 1062.2 l 1,0,0
 407.18 1062.2 l 1,0,0
 407.18 1181.47 l 2,0,0
 407.18 1334.77 407.18 1334.77 479.885 1404.435 c 0,0,0
 552.59 1474.1 552.59 1474.1 701.67 1474.1 c 0,0,0
 747.05 1474.1 747.05 1474.1 793.745 1467.76 c 0,0,0
 840.44 1461.42 840.44 1461.42 874.77 1449.41 c 1,0,0
 874.77 1288.55 l 1,0,0
EndSplineSet
EndChar

StartChar: uni0193
Encoding: 403 403 339
Width: 1593
GlyphClass: 2
Flags: W
LayerCount: 2
Fore
SplineSet
1184.79 1001.79 m 1,0,0
 1135.51 1113.08 1135.51 1113.08 1037.715 1168.08 c 0,0,0
 939.92 1223.08 939.92 1223.08 803.02 1223.08 c 0,0,0
 583.14 1223.08 583.14 1223.08 468.21 1089.985 c 0,0,0
 353.28 956.89 353.28 956.89 353.28 711 c 0,0,0
 353.28 462.76 353.28 462.76 473.195 324.34 c 0,0,0
 593.11 185.92 593.11 185.92 808.31 185.92 c 0,0,0
 930.9 185.92 930.9 185.92 1042.695 222.225 c 0,0,0
 1154.49 258.53 1154.49 258.53 1218.44 317.13 c 1,0,0
 1218.44 531.6 l 1,0,0
 849.03 531.6 l 1,0,0
 849.03 730.46 l 1,0,0
 1457.42 730.46 l 1,0,0
 1457.42 223.02 l 1,0,0
 1345.42 108.35 1345.42 108.35 1171.53 44.175 c 0,0,0
 997.64 -20 997.64 -20 802.95 -20 c 0,0,0
 576.92 -20 576.92 -20 417.585 66.655 c 0,0,0
 258.25 153.31 258.25 153.31 174.26 317.14 c 0,0,0
 90.27 480.97 90.27 480.97 90.27 711 c 0,0,0
 90.27 1057.35 90.27 1057.35 275.61 1243.675 c 0,0,0
 460.95 1430 460.95 1430 804.67 1430 c 0,0,0
 1045.76 1430 1045.76 1430 1196.73 1341.17 c 1,0,0
 1196.73 1390.6 l 2,0,0
 1196.73 1531.28 1196.73 1531.28 1274.945 1606.93 c 0,0,0
 1353.16 1682.58 1353.16 1682.58 1492.58 1682.58 c 0,0,0
 1559.31 1682.58 1559.31 1682.58 1634.02 1666.24 c 1,0,0
 1634.02 1477.75 l 1,0,0
 1577.01 1491.73 1577.01 1491.73 1546.02 1491.73 c 0,0,0
 1483.06 1491.73 1483.06 1491.73 1455.075 1456.9 c 0,0,0
 1427.09 1422.07 1427.09 1422.07 1427.09 1348.42 c 2,0,0
 1427.09 1074.55 l 1,0,0
 1184.79 1001.79 l 1,0,0
EndSplineSet
EndChar

StartChar: uni0194
Encoding: 404 404 340
Width: 1295
GlyphClass: 2
Flags: W
LayerCount: 2
Fore
SplineSet
12.68 1409 m 1,0,0
 285.37 1409 l 1,0,0
 650.72 498.45 l 1,0,0
 1013.4 1409 l 1,0,0
 1284.08 1409 l 1,0,0
 782.22 262.41 l 1,0,0
 830.91 174.04 830.91 174.04 863.755 107.02 c 0,0,0
 896.6 40 896.6 40 912.6 -4.33 c 0,0,0
 944.27 -94 944.27 -94 944.27 -153.97 c 0,0,0
 944.27 -283.01 944.27 -283.01 867.05 -354.005 c 0,0,0
 789.83 -425 789.83 -425 651.05 -425 c 0,0,0
 513.94 -425 513.94 -425 436.385 -352.83 c 0,0,0
 358.83 -280.66 358.83 -280.66 358.83 -153.3 c 0,0,0
 358.83 -88.65 358.83 -88.65 390.81 0.3 c 0,0,0
 405.47 42.96 405.47 42.96 436.99 108.655 c 0,0,0
 468.51 174.35 468.51 174.35 516.55 262.41 c 1,0,0
 12.68 1409 l 1,0,0
731.69 -134.86 m 0,0,0
 731.69 -91.26 731.69 -91.26 711.72 -28.525 c 0,0,0
 691.75 34.21 691.75 34.21 651.05 106.55 c 1,0,0
 615.04 40.24 615.04 40.24 593.06 -23.67 c 0,0,0
 571.08 -87.58 571.08 -87.58 571.08 -134.19 c 0,0,0
 571.08 -183.84 571.08 -183.84 593.075 -208.65 c 0,0,0
 615.07 -233.46 615.07 -233.46 651.05 -233.46 c 0,0,0
 687.03 -233.46 687.03 -233.46 709.36 -209.15 c 0,0,0
 731.69 -184.84 731.69 -184.84 731.69 -134.86 c 0,0,0
EndSplineSet
EndChar

StartChar: uni0195
Encoding: 405 405 341
Width: 1872
GlyphClass: 2
Flags: W
LayerCount: 2
Fore
SplineSet
1294.86 -20 m 0,0,0
 1068.39 -20 1068.39 -20 956.36 91.22 c 0,0,0
 844.33 202.44 844.33 202.44 844.33 424.65 c 2,0,0
 844.33 632.4 l 2,0,0
 844.33 778.7 844.33 778.7 793.195 846.73 c 0,0,0
 742.06 914.76 742.06 914.76 634.83 914.76 c 0,0,0
 524.58 914.76 524.58 914.76 457.46 827.095 c 0,0,0
 390.34 739.43 390.34 739.43 390.34 598.47 c 2,0,0
 390.34 0 l 1,0,0
 142.67 0 l 1,0,0
 142.67 1484 l 1,0,0
 390.34 1484 l 1,0,0
 390.34 1085.27 l 2,0,0
 390.34 1047.95 390.34 1047.95 389.01 1009.145 c 0,0,0
 387.68 970.34 387.68 970.34 386.18 936.165 c 0,0,0
 384.68 901.99 384.68 901.99 382.34 876.23 c 1,0,0
 386.01 876.23 l 1,0,0
 440.7 993.3 440.7 993.3 526.7 1047.65 c 0,0,0
 612.7 1102 612.7 1102 733.35 1102 c 0,0,0
 908.98 1102 908.98 1102 1000.32 1000.29 c 0,0,0
 1091.66 898.58 1091.66 898.58 1091.66 697.55 c 2,0,0
 1091.66 430.18 l 2,0,0
 1091.66 290.26 1091.66 290.26 1141.635 228.42 c 0,0,0
 1191.61 166.58 1191.61 166.58 1295.19 166.58 c 0,0,0
 1399.1 166.58 1399.1 166.58 1449.08 229.76 c 0,0,0
 1499.06 292.94 1499.06 292.94 1499.06 430.18 c 2,0,0
 1499.06 1082 l 1,0,0
 1746.39 1082 l 1,0,0
 1746.39 425.97 l 2,0,0
 1746.39 207.11 1746.39 207.11 1632.52 93.555 c 0,0,0
 1518.65 -20 1518.65 -20 1294.86 -20 c 0,0,0
EndSplineSet
EndChar

StartChar: uni0196
Encoding: 406 406 342
Width: 531
GlyphClass: 2
Flags: W
LayerCount: 2
Fore
SplineSet
199 0 m 1,0,0
 170 31 170 31 153.5 98 c 0,0,0
 137 165 137 165 137 236 c 2,0,0
 137 1484 l 1,0,0
 385.34 1484 l 1,0,0
 385.34 227 l 2,0,0
 385.34 162 385.34 162 407.34 100 c 0,0,0
 429.34 38 429.34 38 465.34 0 c 1,0,0
 199 0 l 1,0,0
EndSplineSet
EndChar

StartChar: uni0197
Encoding: 407 407 343
Width: 569
GlyphClass: 2
Flags: W
LayerCount: 2
Fore
SplineSet
160.49 0 m 1,0,0
 160.49 623.09 l 1,0,0
 16.6 623.09 l 1,0,0
 16.6 822.38 l 1,0,0
 160.49 822.38 l 1,0,0
 160.49 1484 l 1,0,0
 408.16 1484 l 1,0,0
 408.16 822.38 l 1,0,0
 554.38 822.38 l 1,0,0
 554.38 623.09 l 1,0,0
 408.16 623.09 l 1,0,0
 408.16 0 l 1,0,0
 160.49 0 l 1,0,0
EndSplineSet
EndChar

StartChar: uni0198
Encoding: 408 408 344
Width: 1441
GlyphClass: 2
Flags: W
LayerCount: 2
Fore
SplineSet
407.91 522.58 m 1,0,0
 407.91 0 l 1,0,0
 147.23 0 l 1,0,0
 147.23 1409 l 1,0,0
 407.91 1409 l 1,0,0
 407.91 747.89 l 1,0,0
 883.78 1234.72 l 2,0,0
 942.85 1294.45 942.85 1294.45 996.37 1337.935 c 0,0,0
 1049.89 1381.42 1049.89 1381.42 1107.23 1404.885 c 0,0,0
 1164.57 1428.35 1164.57 1428.35 1233.92 1428.35 c 0,0,0
 1272.3 1428.35 1272.3 1428.35 1305.49 1423.175 c 0,0,0
 1338.68 1418 1338.68 1418 1370.33 1410 c 1,0,0
 1370.33 1208.15 l 1,0,0
 1344.66 1214.47 1344.66 1214.47 1318.505 1218.635 c 0,0,0
 1292.35 1222.8 1292.35 1222.8 1270.35 1222.8 c 0,0,0
 1216.05 1222.8 1216.05 1222.8 1169.05 1195.855 c 0,0,0
 1122.05 1168.91 1122.05 1168.91 1064.44 1111.31 c 2,0,0
 760.82 807.72 l 1,0,0
 1421.39 0 l 1,0,0
 1110.02 0 l 1,0,0
 585.21 657.89 l 1,0,0
 407.91 522.58 l 1,0,0
EndSplineSet
EndChar

StartChar: uni0199
Encoding: 409 409 345
Width: 1101
GlyphClass: 2
Flags: W
LayerCount: 2
Fore
SplineSet
828.06 0 m 1,0,0
 513.65 491.32 l 1,0,0
 389.02 399.07 l 1,0,0
 389.02 0 l 1,0,0
 141.35 0 l 1,0,0
 141.35 1202.67 l 2,0,0
 141.35 1342.32 141.35 1342.32 225.055 1418.485 c 0,0,0
 308.76 1494.65 308.76 1494.65 458.14 1494.65 c 0,0,0
 542.9 1494.65 542.9 1494.65 623.64 1478.31 c 1,0,0
 623.64 1289.19 l 1,0,0
 603.33 1295.51 603.33 1295.51 568.635 1299.34 c 0,0,0
 533.94 1303.17 533.94 1303.17 508.98 1303.17 c 0,0,0
 389.02 1303.17 389.02 1303.17 389.02 1159.86 c 2,0,0
 389.02 608.59 l 1,0,0
 804.39 1082 l 1,0,0
 1076.36 1082 l 1,0,0
 676.89 645.81 l 1,0,0
 1103.38 0 l 1,0,0
 828.06 0 l 1,0,0
EndSplineSet
EndChar

StartChar: uni019A
Encoding: 410 410 346
Width: 531
GlyphClass: 2
Flags: W
LayerCount: 2
Fore
SplineSet
139.37 0 m 1,0,0
 139.37 649.89 l 1,0,0
 20 649.89 l 1,0,0
 20 821.71 l 1,0,0
 139.37 821.71 l 1,0,0
 139.37 1484 l 1,0,0
 387.04 1484 l 1,0,0
 387.04 821.71 l 1,0,0
 506.76 821.71 l 1,0,0
 506.76 649.89 l 1,0,0
 387.04 649.89 l 1,0,0
 387.04 0 l 1,0,0
 139.37 0 l 1,0,0
EndSplineSet
EndChar

StartChar: uni019B
Encoding: 411 411 347
Width: 1101
GlyphClass: 2
Flags: W
LayerCount: 2
Fore
SplineSet
90.63 1175.83 m 1,0,0
 342.95 1279.67 l 1,0,0
 263.92 1484 l 1,0,0
 521.99 1484 l 1,0,0
 564.6 1371.17 l 1,0,0
 737.68 1442.24 l 1,0,0
 802.44 1287.06 l 1,0,0
 624.68 1214.32 l 1,0,0
 1087.74 0 l 1,0,0
 828.06 0 l 1,0,0
 559.43 793.04 l 1,0,0
 276.04 0 l 1,0,0
 15.34 0 l 1,0,0
 436.87 1037.67 l 1,0,0
 404.38 1123.49 l 1,0,0
 155.39 1020.98 l 1,0,0
 90.63 1175.83 l 1,0,0
EndSplineSet
EndChar

StartChar: uni019C
Encoding: 412 412 348
Width: 1962
GlyphClass: 2
Flags: W
LayerCount: 2
Fore
SplineSet
1109.21 1409 m 1,0,0
 1109.21 469.4 l 2,0,0
 1109.21 316.45 1109.21 316.45 1158.54 244.485 c 0,0,0
 1207.87 172.52 1207.87 172.52 1314.81 172.52 c 0,0,0
 1429.43 172.52 1429.43 172.52 1492.435 257.875 c 0,0,0
 1555.44 343.23 1555.44 343.23 1555.44 488.15 c 2,0,0
 1555.44 1409 l 1,0,0
 1815.13 1409 l 1,0,0
 1815.13 0 l 1,0,0
 1561.45 0 l 1,0,0
 1552.09 154.81 l 1,0,0
 1549.08 154.81 l 1,0,0
 1498.02 64.04 1498.02 64.04 1415.455 22.02 c 0,0,0
 1332.89 -20 1332.89 -20 1227.16 -20 c 0,0,0
 989.01 -20 989.01 -20 904.38 169.78 c 1,0,0
 837.01 68.69 837.01 68.69 748.64 24.345 c 0,0,0
 660.27 -20 660.27 -20 534.15 -20 c 0,0,0
 344.9 -20 344.9 -20 244.415 92.615 c 0,0,0
 143.93 205.23 143.93 205.23 143.93 421.08 c 2,0,0
 143.93 1409 l 1,0,0
 403.62 1409 l 1,0,0
 403.62 479.96 l 2,0,0
 403.62 320.07 403.62 320.07 454.28 246.295 c 0,0,0
 504.94 172.52 504.94 172.52 615.17 172.52 c 0,0,0
 725.46 172.52 725.46 172.52 787.49 253.54 c 0,0,0
 849.52 334.56 849.52 334.56 849.52 473.5 c 2,0,0
 849.52 1409 l 1,0,0
 1109.21 1409 l 1,0,0
EndSplineSet
EndChar

StartChar: uni019D
Encoding: 413 413 349
Width: 1479
GlyphClass: 2
Flags: W
LayerCount: 2
Fore
SplineSet
378.87 -77.74 m 2,0,0
 378.87 -258.59 378.87 -258.59 308.69 -341.795 c 0,0,0
 238.51 -425 238.51 -425 83.72 -425 c 0,0,0
 13.38 -425 13.38 -425 -66.76 -407.97 c 1,0,0
 -66.76 -200.41 l 1,0,0
 -8.36 -213.74 -8.36 -213.74 29.89 -213.74 c 0,0,0
 92.58 -213.74 92.58 -213.74 119.74 -175.075 c 0,0,0
 146.9 -136.41 146.9 -136.41 146.9 -57.41 c 2,0,0
 147.23 1409 l 1,0,0
 446.28 1409 l 1,0,0
 1115.15 277.38 l 1,0,0
 1099.13 444.23 1099.13 444.23 1099.13 555.35 c 2,0,0
 1099.13 1409 l 1,0,0
 1331.43 1409 l 1,0,0
 1331.43 0 l 1,0,0
 1023.71 0 l 1,0,0
 363.51 1122.95 l 1,0,0
 370.2 1048.24 370.2 1048.24 374.535 983.915 c 0,0,0
 378.87 919.59 378.87 919.59 378.87 865.65 c 2,0,0
 378.87 -77.74 l 2,0,0
EndSplineSet
EndChar

StartChar: uni019E
Encoding: 414 414 350
Width: 1214
GlyphClass: 2
Flags: W
LayerCount: 2
Fore
SplineSet
1085.06 698.22 m 2,0,0
 1085.06 -424.66 l 1,0,0
 837.73 -424.66 l 1,0,0
 837.73 633.07 l 2,0,0
 837.73 778.05 837.73 778.05 790.72 846.74 c 0,0,0
 743.71 915.43 743.71 915.43 634.83 915.43 c 0,0,0
 523.59 915.43 523.59 915.43 456.965 827.435 c 0,0,0
 390.34 739.44 390.34 739.44 390.34 595.51 c 2,0,0
 390.34 0 l 1,0,0
 142.67 0 l 1,0,0
 142.67 843.63 l 2,0,0
 142.67 921.21 142.67 921.21 140.835 980.72 c 0,0,0
 139 1040.23 139 1040.23 135.33 1082 c 1,0,0
 370.99 1082 l 1,0,0
 372.66 1072.97 372.66 1072.97 375 1036.72 c 0,0,0
 377.34 1000.47 377.34 1000.47 379.675 956.28 c 0,0,0
 382.01 912.09 382.01 912.09 382.34 876.9 c 1,0,0
 386.01 876.9 l 1,0,0
 444.66 996.94 444.66 996.94 529.175 1049.805 c 0,0,0
 613.69 1102.67 613.69 1102.67 733.35 1102.67 c 0,0,0
 907.33 1102.67 907.33 1102.67 996.195 1002.445 c 0,0,0
 1085.06 902.22 1085.06 902.22 1085.06 698.22 c 2,0,0
EndSplineSet
EndChar

StartChar: Ohorn
Encoding: 416 416 352
Width: 1749
GlyphClass: 2
Flags: W
LayerCount: 2
Fore
SplineSet
1503.04 711 m 0,0,0
 1503.04 491 1503.04 491 1417.03 324 c 0,0,0
 1330.69 157.33 1330.69 157.33 1170.01 68.665 c 0,0,0
 1009.33 -20 1009.33 -20 793.66 -20 c 0,0,0
 574.31 -20 574.31 -20 416.135 69.16 c 0,0,0
 257.96 158.32 257.96 158.32 173.125 322.32 c 0,0,0
 88.29 486.32 88.29 486.32 88.29 711 c 0,0,0
 88.29 937 88.29 937 172.46 1097.835 c 0,0,0
 256.63 1258.67 256.63 1258.67 415.14 1344.335 c 0,0,0
 573.65 1430 573.65 1430 795.66 1430 c 0,0,0
 1059.09 1430 1059.09 1430 1234.47 1306.755 c 0,0,0
 1409.85 1183.51 1409.85 1183.51 1470.46 957.36 c 1,0,0
 1541.04 993.32 1541.04 993.32 1572.86 1047.995 c 0,0,0
 1604.68 1102.67 1604.68 1102.67 1604.68 1179.69 c 1,0,0
 1491.89 1179.69 l 1,0,0
 1491.89 1409 l 1,0,0
 1732.45 1409 l 1,0,0
 1732.45 1233.32 l 2,0,0
 1732.45 1085.53 1732.45 1085.53 1673.275 986.995 c 0,0,0
 1614.1 888.46 1614.1 888.46 1491.78 838.85 c 1,0,0
 1496.74 807.96 1496.74 807.96 1499.89 775.915 c 0,0,0
 1503.04 743.87 1503.04 743.87 1503.04 711 c 0,0,0
1237.02 711 m 0,0,0
 1237.02 950.55 1237.02 950.55 1121.265 1086.815 c 0,0,0
 1005.51 1223.08 1005.51 1223.08 795.66 1223.08 c 0,0,0
 583.14 1223.08 583.14 1223.08 467.22 1088.145 c 0,0,0
 351.3 953.21 351.3 953.21 351.3 711 c 0,0,0
 351.3 549.74 351.3 549.74 404.6 431.965 c 0,0,0
 457.9 314.19 457.9 314.19 557.165 250.39 c 0,0,0
 656.43 186.59 656.43 186.59 793.66 186.59 c 0,0,0
 1006.84 186.59 1006.84 186.59 1121.93 323.355 c 0,0,0
 1237.02 460.12 1237.02 460.12 1237.02 711 c 0,0,0
EndSplineSet
EndChar

StartChar: ohorn
Encoding: 417 417 353
Width: 1418
GlyphClass: 2
Flags: W
LayerCount: 2
Fore
SplineSet
1128.05 506.47 m 1,0,0
 1120.64 329.74 1120.64 329.74 1055.26 212.85 c 0,0,0
 989.88 95.96 989.88 95.96 874.695 37.98 c 0,0,0
 759.51 -20 759.51 -20 602.52 -20 c 0,0,0
 354.8 -20 354.8 -20 218.39 128.185 c 0,0,0
 81.98 276.37 81.98 276.37 81.98 542 c 0,0,0
 81.98 809.27 81.98 809.27 218.555 955.635 c 0,0,0
 355.13 1102 355.13 1102 608.52 1102 c 0,0,0
 849.66 1102 849.66 1102 980.24 980.225 c 0,0,0
 1110.82 858.45 1110.82 858.45 1127.76 624.95 c 1,0,0
 1271.14 683.25 1271.14 683.25 1271.14 854.67 c 1,0,0
 1158.35 854.67 l 1,0,0
 1158.35 1083.98 l 1,0,0
 1398.91 1083.98 l 1,0,0
 1398.91 908.3 l 2,0,0
 1398.91 751.16 1398.91 751.16 1332.21 649.465 c 0,0,0
 1265.51 547.77 1265.51 547.77 1128.05 506.47 c 1,0,0
872.71 542 m 0,0,0
 872.71 745.23 872.71 745.23 808.555 837.015 c 0,0,0
 744.4 928.8 744.4 928.8 612.19 928.8 c 0,0,0
 474.29 928.8 474.29 928.8 408.145 833.34 c 0,0,0
 342 737.88 342 737.88 342 542 c 0,0,0
 342 350.11 342 350.11 406.81 251.32 c 0,0,0
 471.62 152.53 471.62 152.53 599.85 152.53 c 0,0,0
 741.75 152.53 741.75 152.53 807.23 248.155 c 0,0,0
 872.71 343.78 872.71 343.78 872.71 542 c 0,0,0
EndSplineSet
EndChar

StartChar: uni01A2
Encoding: 418 418 354
Width: 1803
GlyphClass: 2
Flags: W
LayerCount: 2
Fore
SplineSet
1399.84 -424.67 m 1,0,0
 1399.84 1194.2 l 1,0,0
 1196.62 1194.86 l 1,0,0
 1196.62 83.66 l 1,0,0
 1113.75 37.02 1113.75 37.02 1004.18 8.51 c 0,0,0
 894.61 -20 894.61 -20 780.3 -20 c 0,0,0
 561.27 -20 561.27 -20 406.27 67.16 c 0,0,0
 251.27 154.32 251.27 154.32 169.78 317.65 c 0,0,0
 88.29 480.98 88.29 480.98 88.29 711 c 0,0,0
 88.29 939.37 88.29 939.37 168.95 1099.7 c 0,0,0
 249.61 1260.03 249.61 1260.03 405.115 1345.015 c 0,0,0
 560.62 1430 560.62 1430 784.31 1430 c 0,0,0
 969.76 1430 969.76 1430 1149.64 1350.96 c 1,0,0
 1585.08 1424.34 l 1,0,0
 1648.18 1424.34 l 1,0,0
 1648.18 -424.67 l 1,0,0
 1399.84 -424.67 l 1,0,0
948.28 1201.2 m 1,0,0
 875.41 1226.43 875.41 1226.43 788.33 1226.43 c 0,0,0
 577.12 1226.43 577.12 1226.43 464.21 1092.51 c 0,0,0
 351.3 958.59 351.3 958.59 351.3 711 c 0,0,0
 351.3 544.38 351.3 544.38 402.925 426.27 c 0,0,0
 454.55 308.16 454.55 308.16 553.155 245.7 c 0,0,0
 651.76 183.24 651.76 183.24 792.36 183.24 c 0,0,0
 879.43 183.24 879.43 183.24 948.28 207.8 c 1,0,0
 948.28 1201.2 l 1,0,0
EndSplineSet
EndChar

StartChar: uni01A3
Encoding: 419 419 355
Width: 1471
GlyphClass: 2
Flags: W
LayerCount: 2
Fore
SplineSet
1326.53 1099.03 m 1,0,0
 1326.53 -425 l 1,0,0
 1099.27 -425 l 1,0,0
 1099.27 890.53 l 1,0,0
 924.34 890.53 l 1,0,0
 924.34 65.68 l 1,0,0
 862.65 24.67 862.65 24.67 776.435 2.335 c 0,0,0
 690.22 -20 690.22 -20 595.82 -20 c 0,0,0
 350.78 -20 350.78 -20 216.38 127.18 c 0,0,0
 81.98 274.36 81.98 274.36 81.98 542 c 0,0,0
 81.98 811.28 81.98 811.28 215.54 956.64 c 0,0,0
 349.1 1102 349.1 1102 601.82 1102 c 0,0,0
 692.53 1102 692.53 1102 771.72 1080.165 c 0,0,0
 850.91 1058.33 850.91 1058.33 914.64 1018.62 c 1,0,0
 1260.75 1099.03 l 1,0,0
 1326.53 1099.03 l 1,0,0
694.39 167.83 m 1,0,0
 694.06 915.5 l 1,0,0
 654.13 928.8 654.13 928.8 607.5 928.8 c 0,0,0
 468.93 928.8 468.93 928.8 405.8 835.015 c 0,0,0
 342.67 741.23 342.67 741.23 342.67 542 c 0,0,0
 342.67 349.44 342.67 349.44 405.47 250.985 c 0,0,0
 468.27 152.53 468.27 152.53 595.16 152.53 c 0,0,0
 648.43 152.53 648.43 152.53 694.39 167.83 c 1,0,0
EndSplineSet
EndChar

StartChar: uni01A4
Encoding: 420 420 356
Width: 1582
GlyphClass: 2
Flags: W
LayerCount: 2
Fore
SplineSet
982.25 1409 m 2,0,0
 1229.97 1409 1229.97 1409 1364.325 1294.315 c 0,0,0
 1498.68 1179.63 1498.68 1179.63 1498.68 970.26 c 0,0,0
 1498.68 833.91 1498.68 833.91 1437 731.22 c 0,0,0
 1375.32 628.53 1375.32 628.53 1262.465 571.01 c 0,0,0
 1149.61 513.49 1149.61 513.49 994.25 513.49 c 2,0,0
 623.13 513.49 l 1,0,0
 623.13 0 l 1,0,0
 362.45 0 l 1,0,0
 362.45 1216.78 l 1,0,0
 336.43 1216.78 l 2,0,0
 266.13 1216.78 266.13 1216.78 233.13 1187.135 c 0,0,0
 200.13 1157.49 200.13 1157.49 200.13 1097.21 c 0,0,0
 200.13 1045.53 200.13 1045.53 226.84 972.78 c 1,0,0
 32.31 955.78 l 1,0,0
 6.6 1051.21 6.6 1051.21 6.6 1135 c 0,0,0
 6.6 1262.99 6.6 1262.99 96.285 1335.995 c 0,0,0
 185.97 1409 185.97 1409 337.96 1409 c 2,0,0
 982.25 1409 l 2,0,0
1236.33 966.25 m 0,0,0
 1236.33 1205.08 1236.33 1205.08 952.55 1205.08 c 2,0,0
 623.13 1205.08 l 1,0,0
 623.13 715.41 l 1,0,0
 960.55 715.41 l 2,0,0
 1095.09 715.41 1095.09 715.41 1165.71 779.21 c 0,0,0
 1236.33 843.01 1236.33 843.01 1236.33 966.25 c 0,0,0
EndSplineSet
EndChar

StartChar: uni01A5
Encoding: 421 421 357
Width: 1214
GlyphClass: 2
Flags: W
LayerCount: 2
Fore
SplineSet
1129.38 546 m 0,0,0
 1129.38 271.04 1129.38 271.04 1023.85 125.52 c 0,0,0
 918.32 -20 918.32 -20 719.99 -20 c 0,0,0
 601.02 -20 601.02 -20 516.015 29.68 c 0,0,0
 431.01 79.36 431.01 79.36 389.35 170.68 c 1,0,0
 383.68 170.68 l 1,0,0
 389.02 148.27 389.02 148.27 389.02 -7.36 c 2,0,0
 389.02 -425 l 1,0,0
 141.35 -425 l 1,0,0
 141.35 1202.67 l 2,0,0
 141.35 1342.31 141.35 1342.31 224.065 1418.48 c 0,0,0
 306.78 1494.65 306.78 1494.65 458.49 1494.65 c 0,0,0
 500.23 1494.65 500.23 1494.65 550.34 1489.805 c 0,0,0
 600.45 1484.96 600.45 1484.96 631.37 1477.98 c 1,0,0
 631.37 1281.83 l 1,0,0
 610.07 1288.48 610.07 1288.48 575.375 1292.475 c 0,0,0
 540.68 1296.47 540.68 1296.47 516.71 1296.47 c 0,0,0
 385.68 1296.47 385.68 1296.47 385.68 1158.52 c 2,0,0
 385.68 904.65 l 1,0,0
 389.68 904.65 l 1,0,0
 437.01 1004.65 437.01 1004.65 521.37 1053.16 c 0,0,0
 605.73 1101.67 605.73 1101.67 732.05 1101.67 c 0,0,0
 924.01 1101.67 924.01 1101.67 1026.695 960.635 c 0,0,0
 1129.38 819.6 1129.38 819.6 1129.38 546 c 0,0,0
870.7 544.68 m 0,0,0
 870.7 741.2 870.7 741.2 813.385 834.18 c 0,0,0
 756.07 927.16 756.07 927.16 637.14 927.16 c 0,0,0
 511.94 927.16 511.94 927.16 449.14 827.675 c 0,0,0
 386.34 728.19 386.34 728.19 386.34 534.7 c 0,0,0
 386.34 347.16 386.34 347.16 448.31 249.845 c 0,0,0
 510.28 152.53 510.28 152.53 635.14 152.53 c 0,0,0
 755.07 152.53 755.07 152.53 812.885 247.68 c 0,0,0
 870.7 342.83 870.7 342.83 870.7 544.68 c 0,0,0
EndSplineSet
EndChar

StartChar: uni01A6
Encoding: 422 422 358
Width: 1366
GlyphClass: 2
Flags: W
LayerCount: 2
Fore
SplineSet
947.44 428.21 m 1,0,0
 1341.64 -326.37 l 1,0,0
 1055.31 -326.37 l 1,0,0
 706.5 382.76 l 1,0,0
 407.91 382.76 l 1,0,0
 407.91 0 l 1,0,0
 147.23 0 l 1,0,0
 147.23 1409 l 1,0,0
 406.59 1409 l 1,0,0
 406.59 1240.26 l 1,0,0
 752.9 1240.26 l 2,0,0
 1000.28 1240.26 1000.28 1240.26 1134.805 1132.42 c 0,0,0
 1269.33 1024.58 1269.33 1024.58 1269.33 825.87 c 0,0,0
 1269.33 674.9 1269.33 674.9 1182.855 567.565 c 0,0,0
 1096.38 460.23 1096.38 460.23 947.44 428.21 c 1,0,0
1006.98 817.17 m 0,0,0
 1006.98 925.43 1006.98 925.43 935.875 980.885 c 0,0,0
 864.77 1036.34 864.77 1036.34 725.86 1036.34 c 2,0,0
 407.91 1036.34 l 1,0,0
 407.91 586.02 l 1,0,0
 733.86 586.02 l 2,0,0
 866.77 586.02 866.77 586.02 936.875 646.805 c 0,0,0
 1006.98 707.59 1006.98 707.59 1006.98 817.17 c 0,0,0
EndSplineSet
EndChar

StartChar: uni01A7
Encoding: 423 423 359
Width: 1366
GlyphClass: 2
Flags: W
LayerCount: 2
Fore
SplineSet
85.94 398.08 m 0,0,0
 85.94 510.19 85.94 510.19 127.325 583.71 c 0,0,0
 168.71 657.23 168.71 657.23 239.43 704.54 c 0,0,0
 310.82 751.52 310.82 751.52 405.485 780.645 c 0,0,0
 500.15 809.77 500.15 809.77 617.96 834.08 c 0,0,0
 787.33 869.1 787.33 869.1 847.93 895.08 c 0,0,0
 910.86 921.39 910.86 921.39 943.155 959.86 c 0,0,0
 975.45 998.33 975.45 998.33 975.45 1056.3 c 0,0,0
 975.45 1242.45 975.45 1242.45 683.69 1242.45 c 0,0,0
 548.12 1242.45 548.12 1242.45 473.36 1191.995 c 0,0,0
 398.6 1141.54 398.6 1141.54 373.63 1038 c 1,0,0
 119.97 1075.02 l 1,0,0
 162.26 1264.01 162.26 1264.01 293.45 1347.005 c 0,0,0
 424.64 1430 424.64 1430 683.7 1430 c 0,0,0
 950.41 1430 950.41 1430 1089.765 1330.66 c 0,0,0
 1229.12 1231.32 1229.12 1231.32 1229.12 1041.61 c 0,0,0
 1229.12 963.94 1229.12 963.94 1207.47 906.11 c 0,0,0
 1185.82 848.28 1185.82 848.28 1146.19 806.28 c 0,0,0
 1114.48 770.21 1114.48 770.21 1070.085 743.505 c 0,0,0
 1025.69 716.8 1025.69 716.8 969.28 695.78 c 0,0,0
 934.31 682.8 934.31 682.8 876.355 666.645 c 0,0,0
 818.4 650.49 818.4 650.49 737.46 632.5 c 0,0,0
 682.32 620.54 682.32 620.54 636.26 608.41 c 0,0,0
 590.2 596.28 590.2 596.28 552.88 584.98 c 0,0,0
 444.41 554.01 444.41 554.01 392.505 505.525 c 0,0,0
 340.6 457.04 340.6 457.04 340.6 383.39 c 0,0,0
 340.6 177.24 340.6 177.24 671.05 177.24 c 0,0,0
 776 177.24 776 177.24 850.95 201.22 c 0,0,0
 925.9 225.2 925.9 225.2 974.02 279.79 c 0,0,0
 1022.14 334.38 1022.14 334.38 1044.77 426.21 c 1,0,0
 1296.77 382.51 l 1,0,0
 1250.8 178.62 1250.8 178.62 1095.44 79.31 c 0,0,0
 940.08 -20 940.08 -20 673.36 -20 c 0,0,0
 384.3 -20 384.3 -20 235.12 87.185 c 0,0,0
 85.94 194.37 85.94 194.37 85.94 398.08 c 0,0,0
EndSplineSet
EndChar

StartChar: uni01A8
Encoding: 424 424 360
Width: 1101
GlyphClass: 2
Flags: W
LayerCount: 2
Fore
SplineSet
82.35 310.39 m 0,0,0
 82.35 401.15 82.35 401.15 120.58 462.525 c 0,0,0
 158.81 523.9 158.81 523.9 231.93 565.57 c 0,0,0
 277.24 593.17 277.24 593.17 368.51 620.14 c 0,0,0
 459.78 647.11 459.78 647.11 579.53 672.12 c 0,0,0
 677.79 692.76 677.79 692.76 719.585 724.39 c 0,0,0
 761.38 756.02 761.38 756.02 761.38 807.97 c 0,0,0
 761.38 872.59 761.38 872.59 710.225 902.05 c 0,0,0
 659.07 931.51 659.07 931.51 556.76 931.51 c 0,0,0
 451.79 931.51 451.79 931.51 398.85 895.21 c 0,0,0
 345.91 858.91 345.91 858.91 331.27 783.68 c 1,0,0
 110.98 807.7 l 1,0,0
 140.64 952 140.64 952 255.355 1026.84 c 0,0,0
 370.07 1101.68 370.07 1101.68 561.11 1101.68 c 0,0,0
 766.89 1101.68 766.89 1101.68 879.44 1018.655 c 0,0,0
 991.99 935.63 991.99 935.63 991.99 781.93 c 0,0,0
 991.99 690.88 991.99 690.88 950.62 629.345 c 0,0,0
 909.25 567.81 909.25 567.81 827.86 527.81 c 0,0,0
 796.22 512.17 796.22 512.17 746.11 496.355 c 0,0,0
 696 480.54 696 480.54 634.355 465.215 c 0,0,0
 572.71 449.89 572.71 449.89 504.63 434.89 c 0,0,0
 398.64 410.59 398.64 410.59 355.8 377.615 c 0,0,0
 312.96 344.64 312.96 344.64 312.96 288.35 c 0,0,0
 312.96 217.08 312.96 217.08 369.605 183.455 c 0,0,0
 426.25 149.83 426.25 149.83 544.9 149.83 c 0,0,0
 670.91 149.83 670.91 149.83 730.995 188.095 c 0,0,0
 791.08 226.36 791.08 226.36 814.72 312.94 c 1,0,0
 1032.68 277.92 l 1,0,0
 994.68 126.95 994.68 126.95 875.835 53.475 c 0,0,0
 756.99 -20 756.99 -20 542.22 -20 c 0,0,0
 328.12 -20 328.12 -20 205.235 66.85 c 0,0,0
 82.35 153.7 82.35 153.7 82.35 310.39 c 0,0,0
EndSplineSet
EndChar

StartChar: uni01AA
Encoding: 426 426 362
Width: 750
GlyphClass: 2
Flags: W
LayerCount: 2
Fore
SplineSet
38.19 1291.28 m 0,0,0
 38.19 1383.96 38.19 1383.96 98.715 1437.475 c 0,0,0
 159.24 1490.99 159.24 1490.99 261.95 1490.99 c 0,0,0
 418.06 1490.99 418.06 1490.99 495.785 1400.92 c 0,0,0
 573.51 1310.85 573.51 1310.85 573.51 1138.34 c 2,0,0
 573.51 -86.48 l 2,0,0
 573.51 -228.14 573.51 -228.14 691.85 -228.14 c 0,0,0
 713.49 -228.14 713.49 -228.14 748.03 -224.805 c 0,0,0
 782.57 -221.47 782.57 -221.47 803.21 -215.81 c 1,0,0
 803.21 -409.32 l 1,0,0
 734.53 -425 734.53 -425 637.05 -425 c 0,0,0
 484.93 -425 484.93 -425 406.39 -344.48 c 0,0,0
 327.85 -263.96 327.85 -263.96 327.85 -106.89 c 2,0,0
 327.85 1119.19 l 1,0,0
 308.16 1108.19 308.16 1108.19 282.015 1101.535 c 0,0,0
 255.87 1094.88 255.87 1094.88 229.54 1094.88 c 0,0,0
 142.19 1094.88 142.19 1094.88 90.19 1149.395 c 0,0,0
 38.19 1203.91 38.19 1203.91 38.19 1291.28 c 0,0,0
144 1292.93 m 0,0,0
 144 1249.96 144 1249.96 170.985 1224.315 c 0,0,0
 197.97 1198.67 197.97 1198.67 237.93 1198.67 c 0,0,0
 278.22 1198.67 278.22 1198.67 304.87 1224.315 c 0,0,0
 331.52 1249.96 331.52 1249.96 331.52 1292.93 c 0,0,0
 331.52 1335.57 331.52 1335.57 305.035 1361.215 c 0,0,0
 278.55 1386.86 278.55 1386.86 237.93 1386.86 c 0,0,0
 197.97 1386.86 197.97 1386.86 170.985 1361.215 c 0,0,0
 144 1335.57 144 1335.57 144 1292.93 c 0,0,0
EndSplineSet
EndChar

StartChar: uni01AB
Encoding: 427 427 363
Width: 644
GlyphClass: 2
Flags: W
LayerCount: 2
Fore
SplineSet
623.01 -128.93 m 2,0,0
 623.01 -271.27 623.01 -271.27 551.3 -348.135 c 0,0,0
 479.59 -425 479.59 -425 333.16 -425 c 0,0,0
 262.8 -425 262.8 -425 176.72 -405.99 c 1,0,0
 176.72 -218.52 l 1,0,0
 243.44 -234.51 243.44 -234.51 285.4 -234.51 c 0,0,0
 402.08 -234.51 402.08 -234.51 402.08 -94.83 c 2,0,0
 402.08 -17.34 l 1,0,0
 280.44 -15.66 280.44 -15.66 220.23 50.025 c 0,0,0
 160.02 115.71 160.02 115.71 160.02 245.75 c 2,0,0
 160.02 911.47 l 1,0,0
 26.98 911.47 l 1,0,0
 26.98 1082 l 1,0,0
 171.71 1082 l 1,0,0
 248.16 1332.04 l 1,0,0
 405.68 1332.04 l 1,0,0
 405.68 1082 l 1,0,0
 609.03 1082 l 1,0,0
 609.03 911.47 l 1,0,0
 405.68 911.47 l 1,0,0
 405.68 309.54 l 2,0,0
 405.68 230.87 405.68 230.87 434.195 195.35 c 0,0,0
 462.71 159.83 462.71 159.83 525.71 159.83 c 0,0,0
 557.03 159.83 557.03 159.83 623.01 173.83 c 1,0,0
 623.01 -128.93 l 2,0,0
EndSplineSet
EndChar

StartChar: uni01AC
Encoding: 428 428 364
Width: 1251
GlyphClass: 2
Flags: W
LayerCount: 2
Fore
SplineSet
755.51 1204.76 m 1,0,0
 755.51 0 l 1,0,0
 495.16 0 l 1,0,0
 495.16 1204.76 l 1,0,0
 336.43 1204.76 l 2,0,0
 266.13 1204.76 266.13 1204.76 233.13 1178.78 c 0,0,0
 200.13 1152.8 200.13 1152.8 200.13 1097.21 c 0,0,0
 200.13 1045.53 200.13 1045.53 226.84 972.78 c 1,0,0
 32.31 955.78 l 1,0,0
 6.6 1051.21 6.6 1051.21 6.6 1135 c 0,0,0
 6.6 1263.64 6.6 1263.64 88.12 1336.32 c 0,0,0
 169.64 1409 169.64 1409 318.63 1409 c 2,0,0
 1220.75 1409 l 1,0,0
 1220.75 1204.76 l 1,0,0
 755.51 1204.76 l 1,0,0
EndSplineSet
EndChar

StartChar: uni01AD
Encoding: 429 429 365
Width: 644
GlyphClass: 2
Flags: W
LayerCount: 2
Fore
SplineSet
623.01 13.36 m 1,0,0
 525.63 -17.34 525.63 -17.34 404.16 -17.34 c 0,0,0
 285.44 -17.34 285.44 -17.34 222.73 48.18 c 0,0,0
 160.02 113.7 160.02 113.7 160.02 245.75 c 2,0,0
 160.02 911.47 l 1,0,0
 26.98 911.47 l 1,0,0
 26.98 1082 l 1,0,0
 160.32 1082 l 1,0,0
 160.32 1199.37 l 2,0,0
 160.32 1341.99 160.32 1341.99 242.045 1418.32 c 0,0,0
 323.77 1494.65 323.77 1494.65 471.17 1494.65 c 0,0,0
 555.27 1494.65 555.27 1494.65 632.71 1478.64 c 1,0,0
 632.71 1288.53 l 1,0,0
 611.41 1295.18 611.41 1295.18 577.87 1299.175 c 0,0,0
 544.33 1303.17 544.33 1303.17 522.67 1303.17 c 0,0,0
 461.01 1303.17 461.01 1303.17 433.345 1267.675 c 0,0,0
 405.68 1232.18 405.68 1232.18 405.68 1159.86 c 2,0,0
 405.68 1082 l 1,0,0
 609.03 1082 l 1,0,0
 609.03 911.47 l 1,0,0
 405.68 911.47 l 1,0,0
 405.68 309.54 l 2,0,0
 405.68 230.87 405.68 230.87 434.195 195.35 c 0,0,0
 462.71 159.83 462.71 159.83 525.71 159.83 c 0,0,0
 557.03 159.83 557.03 159.83 623.01 173.83 c 1,0,0
 623.01 13.36 l 1,0,0
EndSplineSet
EndChar

StartChar: uni01AE
Encoding: 430 430 366
Width: 1251
GlyphClass: 2
Flags: W
LayerCount: 2
Fore
SplineSet
967.52 -405.99 m 1,0,0
 880.45 -425 880.45 -425 813.41 -425 c 0,0,0
 654.93 -425 654.93 -425 575.045 -337.6 c 0,0,0
 495.16 -250.2 495.16 -250.2 495.16 -70.65 c 2,0,0
 495.16 1204.76 l 1,0,0
 30.59 1204.76 l 1,0,0
 30.59 1409 l 1,0,0
 1220.75 1409 l 1,0,0
 1220.75 1204.76 l 1,0,0
 755.51 1204.76 l 1,0,0
 755.51 -64.11 l 2,0,0
 755.51 -143.77 755.51 -143.77 781.52 -182.105 c 0,0,0
 807.53 -220.44 807.53 -220.44 867.57 -220.44 c 0,0,0
 908.13 -220.44 908.13 -220.44 967.52 -206.45 c 1,0,0
 967.52 -405.99 l 1,0,0
EndSplineSet
EndChar

StartChar: Uhorn
Encoding: 431 431 367
Width: 1715
GlyphClass: 2
Flags: W
LayerCount: 2
Fore
SplineSet
720.28 -20 m 0,0,0
 534.88 -20 534.88 -20 403.87 42.995 c 0,0,0
 272.86 105.99 272.86 105.99 203.705 227.335 c 0,0,0
 134.55 348.68 134.55 348.68 134.55 522.72 c 2,0,0
 134.55 1409 l 1,0,0
 395.23 1409 l 1,0,0
 395.23 543.41 l 2,0,0
 395.23 365.82 395.23 365.82 478.825 275.87 c 0,0,0
 562.42 185.92 562.42 185.92 725.31 185.92 c 0,0,0
 893.2 185.92 893.2 185.92 982.955 280.71 c 0,0,0
 1072.71 375.5 1072.71 375.5 1072.71 554.4 c 2,0,0
 1072.71 1409 l 1,0,0
 1333.06 1409 l 1,0,0
 1333.06 932.97 l 1,0,0
 1444.68 950.6 1444.68 950.6 1502.18 1013.625 c 0,0,0
 1559.68 1076.65 1559.68 1076.65 1559.68 1179.69 c 1,0,0
 1446.89 1179.69 l 1,0,0
 1446.89 1409 l 1,0,0
 1687.45 1409 l 1,0,0
 1687.45 1233.32 l 2,0,0
 1687.45 1053.9 1687.45 1053.9 1601.945 946.865 c 0,0,0
 1516.44 839.83 1516.44 839.83 1333.06 811.82 c 1,0,0
 1333.06 538.71 l 2,0,0
 1333.06 362.35 1333.06 362.35 1259.89 237.34 c 0,0,0
 1186.72 112.33 1186.72 112.33 1049.865 46.165 c 0,0,0
 913.01 -20 913.01 -20 720.28 -20 c 0,0,0
EndSplineSet
EndChar

StartChar: uhorn
Encoding: 432 432 368
Width: 1446
GlyphClass: 2
Flags: W
LayerCount: 2
Fore
SplineSet
828.03 205.1 m 1,0,0
 772.06 89.08 772.06 89.08 686.875 34.54 c 0,0,0
 601.69 -20 601.69 -20 480.69 -20 c 0,0,0
 306.71 -20 306.71 -20 217.845 80.225 c 0,0,0
 128.98 180.45 128.98 180.45 128.98 383.78 c 2,0,0
 128.98 1082 l 1,0,0
 376.98 1082 l 1,0,0
 376.98 448.93 l 2,0,0
 376.98 306.93 376.98 306.93 423.99 236.75 c 0,0,0
 471 166.57 471 166.57 579.21 166.57 c 0,0,0
 690.45 166.57 690.45 166.57 757.075 254.565 c 0,0,0
 823.7 342.56 823.7 342.56 823.7 486.49 c 2,0,0
 823.7 1082 l 1,0,0
 1071.37 1082 l 1,0,0
 1071.37 596.31 l 1,0,0
 1183.02 615.9 1183.02 615.9 1240.25 680.78 c 0,0,0
 1297.48 745.66 1297.48 745.66 1297.48 852.69 c 1,0,0
 1184.69 852.69 l 1,0,0
 1184.69 1082 l 1,0,0
 1425.25 1082 l 1,0,0
 1425.25 906.32 l 2,0,0
 1425.25 722.53 1425.25 722.53 1339.18 617.655 c 0,0,0
 1253.11 512.78 1253.11 512.78 1071.37 479.85 c 1,0,0
 1071.37 238.37 l 2,0,0
 1071.37 149.06 1071.37 149.06 1073.54 92.735 c 0,0,0
 1075.71 36.41 1075.71 36.41 1078.71 0 c 1,0,0
 843.05 0 l 1,0,0
 841.71 12.71 841.71 12.71 839.205 45.445 c 0,0,0
 836.7 78.18 836.7 78.18 835.2 121.03 c 0,0,0
 833.7 163.88 833.7 163.88 832.37 205.1 c 1,0,0
 828.03 205.1 l 1,0,0
EndSplineSet
EndChar

StartChar: uni01B1
Encoding: 433 433 369
Width: 1605
GlyphClass: 2
Flags: W
LayerCount: 2
Fore
SplineSet
802.52 -21.67 m 0,0,0
 597.17 -21.67 597.17 -21.67 445.305 53.83 c 0,0,0
 293.44 129.33 293.44 129.33 210.25 267.985 c 0,0,0
 127.06 406.64 127.06 406.64 127.06 595.27 c 0,0,0
 127.06 797.61 127.06 797.61 232.55 952.87 c 0,0,0
 338.04 1108.13 338.04 1108.13 555.08 1215.09 c 1,0,0
 486.79 1210.09 486.79 1210.09 438.14 1207.09 c 0,0,0
 389.49 1204.09 389.49 1204.09 360.48 1204.09 c 2,0,0
 99.06 1204.09 l 1,0,0
 99.06 1408.33 l 1,0,0
 728.93 1408.33 l 1,0,0
 728.93 1127.38 l 1,0,0
 560.65 1042.43 560.65 1042.43 474.855 920.03 c 0,0,0
 389.06 797.63 389.06 797.63 389.06 629.71 c 0,0,0
 389.06 419.15 389.06 419.15 498.68 302.2 c 0,0,0
 608.3 185.25 608.3 185.25 802.86 185.25 c 0,0,0
 998.08 185.25 998.08 185.25 1108.035 302.2 c 0,0,0
 1217.99 419.15 1217.99 419.15 1217.99 629.71 c 0,0,0
 1217.99 795.96 1217.99 795.96 1133.365 919.03 c 0,0,0
 1048.74 1042.1 1048.74 1042.1 880.13 1127.38 c 1,0,0
 880.13 1408.33 l 1,0,0
 1505.98 1408.33 l 1,0,0
 1505.98 1204.09 l 1,0,0
 1245.9 1204.09 l 2,0,0
 1217.56 1204.09 1217.56 1204.09 1169.245 1207.09 c 0,0,0
 1120.93 1210.09 1120.93 1210.09 1052.64 1215.09 c 1,0,0
 1266.67 1108.79 1266.67 1108.79 1372.325 953.7 c 0,0,0
 1477.98 798.61 1477.98 798.61 1477.98 595.94 c 0,0,0
 1477.98 408.65 1477.98 408.65 1394.79 269.66 c 0,0,0
 1311.6 130.67 1311.6 130.67 1159.735 54.5 c 0,0,0
 1007.87 -21.67 1007.87 -21.67 802.52 -21.67 c 0,0,0
EndSplineSet
EndChar

StartChar: uni01B2
Encoding: 434 434 370
Width: 1479
GlyphClass: 2
Flags: W
LayerCount: 2
Fore
SplineSet
689.6 -20 m 0,0,0
 425.86 -20 425.86 -20 280.205 122.145 c 0,0,0
 134.55 264.29 134.55 264.29 134.55 532.62 c 2,0,0
 134.55 1409 l 1,0,0
 395.23 1409 l 1,0,0
 395.23 553.31 l 2,0,0
 395.23 376.76 395.23 376.76 471.63 281.34 c 0,0,0
 548.03 185.92 548.03 185.92 694.88 185.92 c 0,0,0
 830.22 185.92 830.22 185.92 914.855 264.365 c 0,0,0
 999.49 342.81 999.49 342.81 1038.955 509.74 c 0,0,0
 1078.42 676.67 1078.42 676.67 1078.42 940.96 c 0,0,0
 1078.42 1086.51 1078.42 1086.51 1036.405 1153.82 c 0,0,0
 994.39 1221.13 994.39 1221.13 902.72 1221.13 c 0,0,0
 851.77 1221.13 851.77 1221.13 792.71 1209.12 c 1,0,0
 790.4 1408.33 l 1,0,0
 874.48 1425.69 874.48 1425.69 993.69 1425.69 c 0,0,0
 1161.39 1425.69 1161.39 1425.69 1249.745 1307.325 c 0,0,0
 1338.1 1188.96 1338.1 1188.96 1338.1 961.24 c 0,0,0
 1338.1 515.9 1338.1 515.9 1205.44 283.44 c 0,0,0
 1048.66 -20 1048.66 -20 689.6 -20 c 0,0,0
EndSplineSet
EndChar

StartChar: uni01B3
Encoding: 435 435 371
Width: 1578
GlyphClass: 2
Flags: W
LayerCount: 2
Fore
SplineSet
683.65 788.25 m 1,0,0
 957.32 1247.25 l 2,0,0
 1012.99 1342.63 1012.99 1342.63 1074.665 1384.83 c 0,0,0
 1136.34 1427.03 1136.34 1427.03 1219.36 1427.03 c 0,0,0
 1292.09 1427.03 1292.09 1427.03 1363.95 1398.165 c 0,0,0
 1435.81 1369.3 1435.81 1369.3 1502.18 1308.92 c 1,0,0
 1401.43 1140.09 l 1,0,0
 1369.4 1168.78 1369.4 1168.78 1332.45 1186.59 c 0,0,0
 1295.5 1204.4 1295.5 1204.4 1263.86 1204.4 c 0,0,0
 1227.19 1204.4 1227.19 1204.4 1202.02 1186.215 c 0,0,0
 1176.85 1168.03 1176.85 1168.03 1148.2 1122.71 c 2,0,0
 813.18 579.98 l 1,0,0
 813.18 0 l 1,0,0
 553.5 0 l 1,0,0
 553.5 579.98 l 1,0,0
 38.3 1409 l 1,0,0
 315.95 1409 l 1,0,0
 683.65 788.25 l 1,0,0
EndSplineSet
EndChar

StartChar: uni01B4
Encoding: 436 436 372
Width: 1101
GlyphClass: 2
Flags: W
LayerCount: 2
Fore
SplineSet
252.64 -425 m 0,0,0
 159.87 -425 159.87 -425 93.13 -412.66 c 1,0,0
 93.13 -234.11 l 1,0,0
 143.19 -241.45 143.19 -241.45 185.84 -241.45 c 0,0,0
 272.52 -241.45 272.52 -241.45 327.295 -193.35 c 0,0,0
 382.07 -145.25 382.07 -145.25 423.03 -37.33 c 2,0,0
 440.7 9.02 l 1,0,0
 12.37 1082 l 1,0,0
 274.72 1082 l 1,0,0
 463.86 544.97 l 2,0,0
 469.2 530.28 469.2 530.28 483.365 485.935 c 0,0,0
 497.53 441.59 497.53 441.59 514.36 387.91 c 0,0,0
 531.19 334.23 531.19 334.23 545.19 288.875 c 0,0,0
 559.19 243.52 559.19 243.52 563.87 226.15 c 1,0,0
 647.27 512.26 l 1,0,0
 886.31 1234.93 l 2,0,0
 929.65 1368.99 929.65 1368.99 1000.355 1430.83 c 0,0,0
 1071.06 1492.67 1071.06 1492.67 1180.67 1492.67 c 0,0,0
 1307.32 1492.67 1307.32 1492.67 1424.03 1412.4 c 1,0,0
 1333.32 1238.84 l 1,0,0
 1274.03 1283.42 1274.03 1283.42 1213.42 1283.42 c 0,0,0
 1167.77 1283.42 1167.77 1283.42 1138.64 1252.27 c 0,0,0
 1109.51 1221.12 1109.51 1221.12 1090.21 1167.19 c 2,0,0
 668.32 -38.19 l 2,0,0
 616.37 -183.12 616.37 -183.12 557.045 -267.745 c 0,0,0
 497.72 -352.37 497.72 -352.37 423.365 -388.685 c 0,0,0
 349.01 -425 349.01 -425 252.64 -425 c 0,0,0
EndSplineSet
EndChar

StartChar: uni01B5
Encoding: 437 437 373
Width: 1251
GlyphClass: 2
Flags: W
LayerCount: 2
Fore
SplineSet
1190.35 206.25 m 1,0,0
 1190.35 0 l 1,0,0
 62.32 0 l 1,0,0
 62.32 187.22 l 1,0,0
 425.39 652.19 l 1,0,0
 55.3 652.19 l 1,0,0
 55.3 828.07 l 1,0,0
 563.23 828.07 l 1,0,0
 856 1202.75 l 1,0,0
 137.33 1202.75 l 1,0,0
 137.33 1409 l 1,0,0
 1147.37 1409 l 1,0,0
 1147.37 1225.78 l 1,0,0
 837.91 828.07 l 1,0,0
 1167.23 828.07 l 1,0,0
 1167.23 652.19 l 1,0,0
 700.07 652.19 l 1,0,0
 353.69 206.25 l 1,0,0
 1190.35 206.25 l 1,0,0
EndSplineSet
EndChar

StartChar: uni01B6
Encoding: 438 438 374
Width: 1024
GlyphClass: 2
Flags: W
LayerCount: 2
Fore
SplineSet
961.39 183.22 m 1,0,0
 961.39 0 l 1,0,0
 61.73 0 l 1,0,0
 61.73 178.54 l 1,0,0
 298.83 465.24 l 1,0,0
 58.39 465.24 l 1,0,0
 58.39 627.72 l 1,0,0
 421.9 627.72 l 1,0,0
 641.66 900.12 l 1,0,0
 102.4 900.12 l 1,0,0
 102.4 1082 l 1,0,0
 916.35 1082 l 1,0,0
 916.35 902.12 l 1,0,0
 691.24 627.72 l 1,0,0
 938.27 627.72 l 1,0,0
 938.27 465.24 l 1,0,0
 564.82 465.24 l 1,0,0
 338.1 183.22 l 1,0,0
 961.39 183.22 l 1,0,0
EndSplineSet
EndChar

StartChar: uni01B7
Encoding: 439 439 375
Width: 1251
GlyphClass: 2
Flags: W
LayerCount: 2
Fore
SplineSet
599.6 -431.36 m 0,0,0
 386.91 -431.36 386.91 -431.36 248.41 -343 c 0,0,0
 109.91 -254.64 109.91 -254.64 32.27 -65.27 c 1,0,0
 258.59 26.16 l 1,0,0
 314.24 -106.49 314.24 -106.49 395.145 -166.62 c 0,0,0
 476.05 -226.75 476.05 -226.75 591.26 -226.75 c 0,0,0
 749.48 -226.75 749.48 -226.75 836.735 -122.985 c 0,0,0
 923.99 -19.22 923.99 -19.22 923.99 173.68 c 0,0,0
 923.99 358.53 923.99 358.53 813.25 456.775 c 0,0,0
 702.51 555.02 702.51 555.02 487.66 555.02 c 2,0,0
 378.47 555.02 l 1,0,0
 378.47 756.32 l 1,0,0
 822.86 1202.75 l 1,0,0
 94.91 1202.75 l 1,0,0
 94.91 1409 l 1,0,0
 1134.35 1409 l 1,0,0
 1134.35 1218.52 l 1,0,0
 650.12 743.93 l 1,0,0
 902.7 729.95 902.7 729.95 1041.18 583.13 c 0,0,0
 1179.66 436.31 1179.66 436.31 1179.66 181.05 c 0,0,0
 1179.66 -0.66 1179.66 -0.66 1108.66 -141.01 c 0,0,0
 1036.66 -280.36 1036.66 -280.36 903.65 -355.86 c 0,0,0
 770.64 -431.36 770.64 -431.36 599.6 -431.36 c 0,0,0
EndSplineSet
EndChar

StartChar: uni01B8
Encoding: 440 440 376
Width: 1251
GlyphClass: 2
Flags: W
LayerCount: 2
Fore
SplineSet
651.4 -431.36 m 0,0,0
 472.7 -431.36 472.7 -431.36 342.52 -358.19 c 0,0,0
 212.34 -285.02 212.34 -285.02 141.84 -150.35 c 0,0,0
 71.34 -15.68 71.34 -15.68 71.34 169.66 c 0,0,0
 71.34 337.66 71.34 337.66 136.335 462.495 c 0,0,0
 201.33 587.33 201.33 587.33 320.47 660.15 c 0,0,0
 439.61 732.97 439.61 732.97 600.88 743.93 c 1,0,0
 116.65 1218.52 l 1,0,0
 116.65 1409 l 1,0,0
 1156.09 1409 l 1,0,0
 1156.09 1202.75 l 1,0,0
 428.14 1202.75 l 1,0,0
 872.53 756.32 l 1,0,0
 872.53 555.02 l 1,0,0
 763.34 555.02 l 2,0,0
 548.15 555.02 548.15 555.02 437.58 456.94 c 0,0,0
 327.01 358.86 327.01 358.86 327.01 173.68 c 0,0,0
 327.01 46.07 327.01 46.07 367.13 -43.375 c 0,0,0
 407.25 -132.82 407.25 -132.82 482.02 -179.785 c 0,0,0
 556.79 -226.75 556.79 -226.75 659.74 -226.75 c 0,0,0
 774.95 -226.75 774.95 -226.75 856.19 -166.285 c 0,0,0
 937.43 -105.82 937.43 -105.82 992.41 26.16 c 1,0,0
 1218.73 -65.27 l 1,0,0
 1141.09 -254.64 1141.09 -254.64 1002.425 -343 c 0,0,0
 863.76 -431.36 863.76 -431.36 651.4 -431.36 c 0,0,0
EndSplineSet
EndChar

StartChar: uni01B9
Encoding: 441 441 377
Width: 1090
GlyphClass: 2
Flags: W
LayerCount: 2
Fore
SplineSet
570.32 -255.85 m 0,0,0
 674.48 -255.85 674.48 -255.85 738.085 -204.225 c 0,0,0
 801.69 -152.6 801.69 -152.6 814.33 -38.68 c 1,0,0
 1058.66 -51.35 l 1,0,0
 1034.99 -235 1034.99 -235 906.15 -333.345 c 0,0,0
 777.31 -431.69 777.31 -431.69 567 -431.69 c 0,0,0
 408.3 -431.69 408.3 -431.69 293.925 -370.045 c 0,0,0
 179.55 -308.4 179.55 -308.4 118.52 -198.245 c 0,0,0
 57.49 -88.09 57.49 -88.09 57.49 56.94 c 0,0,0
 57.49 254.63 57.49 254.63 167.5 377.445 c 0,0,0
 277.51 500.26 277.51 500.26 475.22 521.91 c 1,0,0
 109.57 892.94 l 1,0,0
 109.57 1082.33 l 1,0,0
 1005.3 1082.33 l 1,0,0
 1005.3 899.79 l 1,0,0
 398.06 899.79 l 1,0,0
 749.57 533.56 l 1,0,0
 749.57 359.41 l 1,0,0
 654.17 359.41 l 2,0,0
 480.08 359.41 480.08 359.41 394.46 280.475 c 0,0,0
 308.84 201.54 308.84 201.54 308.84 47.53 c 0,0,0
 308.84 -43.8 308.84 -43.8 338.975 -112.23 c 0,0,0
 369.11 -180.66 369.11 -180.66 427.4 -218.255 c 0,0,0
 485.69 -255.85 485.69 -255.85 570.32 -255.85 c 0,0,0
EndSplineSet
EndChar

StartChar: uni01BA
Encoding: 442 442 378
Width: 1090
GlyphClass: 2
Flags: W
LayerCount: 2
Fore
SplineSet
1044.28 -99.66 m 1,0,0
 1008.3 -255.33 1008.3 -255.33 868.44 -343.345 c 0,0,0
 728.58 -431.36 728.58 -431.36 513.89 -431.36 c 0,0,0
 448.24 -431.36 448.24 -431.36 388.43 -422.355 c 0,0,0
 328.62 -413.35 328.62 -413.35 276.96 -394.35 c 0,0,0
 172.31 -356.35 172.31 -356.35 117.45 -285.345 c 0,0,0
 62.59 -214.34 62.59 -214.34 62.59 -116.98 c 0,0,0
 62.59 -32.62 62.59 -32.62 108.61 28.41 c 0,0,0
 139.62 68.76 139.62 68.76 185.98 99.1 c 0,0,0
 232.34 129.44 232.34 129.44 308.375 155.94 c 0,0,0
 384.41 182.44 384.41 182.44 504.45 210.44 c 0,0,0
 635.91 240.71 635.91 240.71 688.23 274.68 c 0,0,0
 741.21 307.65 741.21 307.65 741.21 356.6 c 0,0,0
 741.21 436.63 741.21 436.63 639.86 459.26 c 0,0,0
 578.64 474.87 578.64 474.87 413.6 475.86 c 2,0,0
 329.09 476.19 l 1,0,0
 329.09 618.54 l 1,0,0
 649.58 899.79 l 1,0,0
 82.54 899.79 l 1,0,0
 82.54 1082 l 1,0,0
 973.32 1082 l 1,0,0
 973.32 933.52 l 1,0,0
 610.82 629.61 l 1,0,0
 808.92 621.97 808.92 621.97 899.585 554.145 c 0,0,0
 990.25 486.32 990.25 486.32 990.25 353.92 c 0,0,0
 990.25 272.59 990.25 272.59 947.4 214.905 c 0,0,0
 904.55 157.22 904.55 157.22 822.82 117.2 c 0,0,0
 739.74 76.84 739.74 76.84 544.32 29.49 c 0,0,0
 420.39 -0.82 420.39 -0.82 370.71 -28.85 c 0,0,0
 337.79 -47.16 337.79 -47.16 320.5 -69.945 c 0,0,0
 303.21 -92.73 303.21 -92.73 303.21 -121.97 c 0,0,0
 303.21 -183.58 303.21 -183.58 363.16 -219.22 c 0,0,0
 423.11 -254.86 423.11 -254.86 534.99 -254.86 c 0,0,0
 645.86 -254.86 645.86 -254.86 714.78 -207.375 c 0,0,0
 783.7 -159.89 783.7 -159.89 801.96 -67.93 c 1,0,0
 1044.28 -99.66 l 1,0,0
EndSplineSet
EndChar

StartChar: uni01BB
Encoding: 443 443 379
Width: 1139
GlyphClass: 2
Flags: W
LayerCount: 2
Fore
SplineSet
1050.07 205.26 m 1,0,0
 1050.07 0 l 1,0,0
 81.56 0 l 1,0,0
 81.56 172.56 l 1,0,0
 118.22 254.86 118.22 254.86 173.23 330.54 c 0,0,0
 201.86 370.49 201.86 370.49 235.495 409.29 c 0,0,0
 269.13 448.09 269.13 448.09 313.725 491.37 c 0,0,0
 358.32 534.65 358.32 534.65 419.49 586.53 c 1,0,0
 87.32 586.53 l 1,0,0
 87.32 759.38 l 1,0,0
 621.03 759.38 l 1,0,0
 776.07 899.06 776.07 899.06 776.07 1027.28 c 0,0,0
 776.07 1127.2 776.07 1127.2 722.475 1179.14 c 0,0,0
 668.88 1231.08 668.88 1231.08 567.31 1231.08 c 0,0,0
 469.06 1231.08 469.06 1231.08 412.65 1177.96 c 0,0,0
 356.24 1124.84 356.24 1124.84 342.57 1022.56 c 1,0,0
 92.24 1038.89 l 1,0,0
 114.92 1225.98 114.92 1225.98 237.75 1327.99 c 0,0,0
 360.58 1430 360.58 1430 565.97 1430 c 0,0,0
 789.02 1430 789.02 1430 908.545 1327.155 c 0,0,0
 1028.07 1224.31 1028.07 1224.31 1028.07 1037.3 c 0,0,0
 1028.07 896.32 1028.07 896.32 919.14 759.38 c 1,0,0
 1039.37 759.38 l 1,0,0
 1039.37 586.53 l 1,0,0
 745.95 586.53 l 1,0,0
 688.84 538.78 688.84 538.78 647.38 504.65 c 0,0,0
 605.92 470.52 605.92 470.52 577.355 446.77 c 0,0,0
 548.79 423.02 548.79 423.02 528.86 404.08 c 0,0,0
 471.22 352.1 471.22 352.1 430.265 302.81 c 0,0,0
 389.31 253.52 389.31 253.52 369.34 205.26 c 1,0,0
 1050.07 205.26 l 1,0,0
EndSplineSet
EndChar

StartChar: uni01BC
Encoding: 444 444 380
Width: 1139
GlyphClass: 2
Flags: W
LayerCount: 2
Fore
SplineSet
92.44 1409 m 1,0,0
 1027.57 1409 l 1,0,0
 1027.57 1204.76 l 1,0,0
 511.42 1204.76 l 1,0,0
 511.42 945.31 l 1,0,0
 561.28 945.31 l 2,0,0
 809.7 945.31 809.7 945.31 940.875 826.01 c 0,0,0
 1072.05 706.71 1072.05 706.71 1072.05 483.69 c 0,0,0
 1072.05 238.98 1072.05 238.98 939.885 109.49 c 0,0,0
 807.72 -20 807.72 -20 557.31 -20 c 0,0,0
 354.92 -20 354.92 -20 226.565 79.68 c 0,0,0
 98.21 179.36 98.21 179.36 70.24 357.73 c 1,0,0
 318.25 373.37 l 1,0,0
 343.2 273.5 343.2 273.5 404.635 225.05 c 0,0,0
 466.07 176.6 466.07 176.6 563.66 176.6 c 0,0,0
 692.9 176.6 692.9 176.6 755.14 248.845 c 0,0,0
 817.38 321.09 817.38 321.09 817.38 466.29 c 0,0,0
 817.38 602.84 817.38 602.84 748.635 669.775 c 0,0,0
 679.89 736.71 679.89 736.71 532.3 736.71 c 2,0,0
 265.78 736.71 l 1,0,0
 265.78 1204.76 l 1,0,0
 92.44 1204.76 l 1,0,0
 92.44 1409 l 1,0,0
EndSplineSet
EndChar

StartChar: uni01BD
Encoding: 445 445 381
Width: 991
GlyphClass: 2
Flags: W
LayerCount: 2
Fore
SplineSet
36.6 1082 m 1,0,0
 864.84 1082 l 1,0,0
 864.84 899.79 l 1,0,0
 418.17 899.79 l 1,0,0
 418.17 692.69 l 1,0,0
 469.49 692.69 l 2,0,0
 690.58 692.69 690.58 692.69 804.26 602.195 c 0,0,0
 917.94 511.7 917.94 511.7 917.94 337.64 c 0,0,0
 917.94 167.32 917.94 167.32 803.39 73.66 c 0,0,0
 688.84 -20 688.84 -20 478.73 -20 c 0,0,0
 295.7 -20 295.7 -20 179.475 64.52 c 0,0,0
 63.25 149.04 63.25 149.04 26.57 313.01 c 1,0,0
 265.56 329.03 l 1,0,0
 281.91 242.73 281.91 242.73 337.365 197.63 c 0,0,0
 392.82 152.53 392.82 152.53 482.14 152.53 c 0,0,0
 677.31 152.53 677.31 152.53 677.31 336.98 c 0,0,0
 677.31 434.28 677.31 434.28 617.21 478.74 c 0,0,0
 557.11 523.2 557.11 523.2 427.86 523.2 c 2,0,0
 199.89 523.2 l 1,0,0
 199.89 899.79 l 1,0,0
 36.6 899.79 l 1,0,0
 36.6 1082 l 1,0,0
EndSplineSet
EndChar

StartChar: uni01BE
Encoding: 446 446 382
Width: 1123
GlyphClass: 2
Flags: W
LayerCount: 2
Fore
SplineSet
167.67 911.47 m 1,0,0
 32.65 911.47 l 1,0,0
 32.65 1082 l 1,0,0
 177.38 1082 l 1,0,0
 236.34 1366.69 l 1,0,0
 413.33 1392.43 l 1,0,0
 413.33 1082 l 1,0,0
 611.73 1082 l 1,0,0
 611.73 911.47 l 1,0,0
 413.33 911.47 l 1,0,0
 413.33 824.57 l 2,0,0
 413.33 748.28 413.33 748.28 472.54 714.61 c 0,0,0
 491.55 697.36 491.55 697.36 535.4 681.56 c 0,0,0
 579.25 665.76 579.25 665.76 651.23 649.1 c 0,0,0
 719.13 633.13 719.13 633.13 766.955 618.64 c 0,0,0
 814.78 604.15 814.78 604.15 848.47 590.32 c 0,0,0
 882.16 576.49 882.16 576.49 906.16 561.5 c 0,0,0
 973.56 521.49 973.56 521.49 1010.095 461.46 c 0,0,0
 1046.63 401.43 1046.63 401.43 1046.63 310.39 c 0,0,0
 1046.63 155.04 1046.63 155.04 927.535 67.52 c 0,0,0
 808.44 -20 808.44 -20 587.38 -20 c 0,0,0
 371.31 -20 371.31 -20 255.78 49.18 c 0,0,0
 140.25 118.36 140.25 118.36 103.23 264.72 c 1,0,0
 321.19 299.74 l 1,0,0
 342.85 219.44 342.85 219.44 401.115 184.635 c 0,0,0
 459.38 149.83 459.38 149.83 587.38 149.83 c 0,0,0
 708.01 149.83 708.01 149.83 762.015 184.28 c 0,0,0
 816.02 218.73 816.02 218.73 816.02 288.35 c 0,0,0
 816.02 350.58 816.02 350.58 769.88 382.73 c 0,0,0
 723.74 414.88 723.74 414.88 621.06 438.19 c 0,0,0
 521.87 459.21 521.87 459.21 445.175 481.38 c 0,0,0
 368.48 503.55 368.48 503.55 325.49 527.86 c 0,0,0
 246.11 572.19 246.11 572.19 206.89 641.71 c 0,0,0
 167.67 711.23 167.67 711.23 167.67 813.94 c 2,0,0
 167.67 911.47 l 1,0,0
EndSplineSet
EndChar

StartChar: uni01BF
Encoding: 447 447 383
Width: 1214
GlyphClass: 2
Flags: W
LayerCount: 2
Fore
SplineSet
1126.71 653.48 m 0,0,0
 1126.71 545.35 1126.71 545.35 1104.19 450.92 c 0,0,0
 1081.67 356.49 1081.67 356.49 1033.95 273.75 c 0,0,0
 953.59 132.39 953.59 132.39 796.915 20.87 c 0,0,0
 640.24 -90.65 640.24 -90.65 389.02 -188.64 c 1,0,0
 389.02 -425.33 l 1,0,0
 141.35 -425.33 l 1,0,0
 141.35 1082 l 1,0,0
 374.34 1082 l 1,0,0
 378.67 1047.42 378.67 1047.42 381.505 1005.595 c 0,0,0
 384.34 963.77 384.34 963.77 385.68 914.7 c 1,0,0
 389.68 914.7 l 1,0,0
 438.37 1007.68 438.37 1007.68 522.54 1055.68 c 0,0,0
 606.71 1103.68 606.71 1103.68 719.38 1103.68 c 0,0,0
 914.37 1103.68 914.37 1103.68 1020.54 981.515 c 0,0,0
 1126.71 859.35 1126.71 859.35 1126.71 653.48 c 0,0,0
872.39 634.05 m 0,0,0
 872.39 927.16 872.39 927.16 641.85 927.16 c 0,0,0
 519.62 927.16 519.62 927.16 454.32 834.71 c 0,0,0
 389.02 742.26 389.02 742.26 389.02 578.5 c 2,0,0
 389.02 6.6 l 1,0,0
 583.66 97.01 583.66 97.01 693.63 208.12 c 0,0,0
 872.39 383.79 872.39 383.79 872.39 634.05 c 0,0,0
EndSplineSet
EndChar

StartChar: uni01C0
Encoding: 448 448 384
Width: 559
GlyphClass: 2
Flags: W
LayerCount: 2
Fore
SplineSet
403.57 1484 m 1,0,0
 403.57 0 l 1,0,0
 155.9 0 l 1,0,0
 155.9 1484 l 1,0,0
 403.57 1484 l 1,0,0
EndSplineSet
EndChar

StartChar: uni01C1
Encoding: 449 449 385
Width: 961
GlyphClass: 2
Flags: W
LayerCount: 2
Fore
SplineSet
390.9 1484 m 1,0,0
 390.9 0 l 1,0,0
 175.65 0 l 1,0,0
 175.65 1484 l 1,0,0
 390.9 1484 l 1,0,0
786.26 1484 m 1,0,0
 786.26 0 l 1,0,0
 571.01 0 l 1,0,0
 571.01 1484 l 1,0,0
 786.26 1484 l 1,0,0
EndSplineSet
EndChar

StartChar: uni01C2
Encoding: 450 450 386
Width: 1196
GlyphClass: 2
Flags: W
LayerCount: 2
Fore
SplineSet
708.79 404.61 m 1,0,0
 708.79 0 l 1,0,0
 487.22 0 l 1,0,0
 487.22 404.61 l 1,0,0
 92.56 404.61 l 1,0,0
 92.56 595.13 l 1,0,0
 487.22 595.13 l 1,0,0
 487.22 874.99 l 1,0,0
 92.56 874.99 l 1,0,0
 92.56 1065.51 l 1,0,0
 487.22 1065.51 l 1,0,0
 487.22 1484 l 1,0,0
 708.79 1484 l 1,0,0
 708.79 1065.51 l 1,0,0
 1104.11 1065.51 l 1,0,0
 1104.11 874.99 l 1,0,0
 708.79 874.99 l 1,0,0
 708.79 595.13 l 1,0,0
 1104.11 595.13 l 1,0,0
 1104.11 404.61 l 1,0,0
 708.79 404.61 l 1,0,0
EndSplineSet
EndChar

StartChar: uni01DD
Encoding: 477 477 413
Width: 1139
GlyphClass: 2
Flags: W
LayerCount: 2
Fore
SplineSet
801.72 589.72 m 1,0,0
 801.72 756.96 801.72 756.96 737.115 844.225 c 0,0,0
 672.51 931.49 672.51 931.49 551.31 931.49 c 0,0,0
 463.12 931.49 463.12 931.49 408.365 894.54 c 0,0,0
 353.61 857.59 353.61 857.59 331.96 790.28 c 1,0,0
 102.27 820.54 l 1,0,0
 212 1102 212 1102 560.69 1102 c 0,0,0
 803.37 1102 803.37 1102 932.555 957.995 c 0,0,0
 1061.74 813.99 1061.74 813.99 1061.74 535.34 c 0,0,0
 1061.74 267.34 1061.74 267.34 931.215 123.67 c 0,0,0
 800.69 -20 800.69 -20 560.32 -20 c 0,0,0
 325.67 -20 325.67 -20 203.825 131.035 c 0,0,0
 81.98 282.07 81.98 282.07 81.98 576.44 c 2,0,0
 81.98 589.72 l 1,0,0
 801.72 589.72 l 1,0,0
325.6 426.26 m 1,0,0
 335.91 282.06 335.91 282.06 396.52 212.27 c 0,0,0
 457.13 142.48 457.13 142.48 563.99 142.48 c 0,0,0
 673.55 142.48 673.55 142.48 734.64 217.585 c 0,0,0
 795.73 292.69 795.73 292.69 799.72 426.26 c 1,0,0
 325.6 426.26 l 1,0,0
EndSplineSet
EndChar

